<svg width="140" height="99" viewBox="0 0 140 99" fill="none" xmlns="http://www.w3.org/2000/svg">
<path d="M63.3316 87.7898C59.2749 87.7898 55.2182 87.7898 51.1615 87.7898C50.1375 87.3566 50.3738 86.4113 50.3738 85.6236C50.3738 79.4401 50.3738 73.2566 50.3344 67.0731C50.3344 63.0558 50.295 59.0779 50.3738 55.0606C50.4132 53.5246 49.8224 53.1701 48.4045 53.2489C42.221 53.4458 36.6283 55.2576 31.5082 58.7235C21.3074 65.6159 16.0298 75.1865 15.6753 87.5141C15.2815 87.5929 14.8089 87.4747 14.4938 87.8292C9.9251 87.8292 5.31702 87.8292 0.748321 87.8292C0.512009 87.7504 0.236312 87.6323 0 87.5535C0.551394 67.8609 9.49186 53.2095 26.4669 43.442C32.0596 40.173 38.1644 38.4006 44.5448 37.6129C45.2143 37.5342 45.8445 37.4554 46.4353 37.8099C47.3805 37.8099 48.3652 38.2825 49.1922 37.4554C49.4679 37.4554 49.7436 37.416 50.0193 37.416C50.1375 37.5736 50.2163 37.7311 50.3344 37.8886C50.3344 39.4641 50.3738 41.0395 50.3738 42.6149C50.3738 42.7724 50.4132 42.8906 50.4132 43.0481C50.3344 45.8445 51.004 48.6408 50.7677 51.4766C50.6495 52.6581 51.2797 52.8944 52.3037 52.8944C55.4545 52.8551 58.6053 52.9338 61.7168 52.8551C63.0165 52.8157 63.4103 53.2883 63.4103 54.5486C63.3709 65.5371 63.371 76.565 63.371 87.5535C63.3316 87.6323 63.3316 87.711 63.3316 87.7898Z" fill="#633795"/>
<path d="M89.3259 12.682C89.3259 16.463 89.3259 20.244 89.3652 23.9856C89.3652 24.6552 89.1289 25.4429 89.7197 26.0337C86.0569 26.0337 82.394 26.0337 78.7706 26.073C78.2192 26.073 77.1952 25.7186 77.2346 26.7032C77.2739 27.6485 78.2586 27.1758 78.8494 27.2546C79.2826 27.3334 79.7552 27.2546 80.2279 27.2546C86.4113 27.2546 92.6342 27.2546 98.8177 27.2546C96.1789 27.8454 93.5401 27.3334 90.9013 27.5303C90.3499 27.5697 89.4046 27.1758 89.444 28.2392C89.4834 29.1451 90.3105 28.7906 90.8225 28.83C93.4613 28.9088 96.1395 28.9482 98.7783 28.9876C98.3845 29.0663 98.03 29.1845 97.6362 29.1845C91.3345 29.1845 85.0722 29.1451 78.7706 29.1845C78.2192 29.1845 77.1952 28.83 77.2346 29.7753C77.2739 30.7205 78.2586 30.3267 78.81 30.3267C82.3547 30.4054 85.8599 30.4054 89.4046 30.4448C89.3652 32.6504 89.3259 34.856 89.2865 37.0615C76.2893 37.1009 63.2528 37.1009 50.2556 37.1403C50.2556 34.9347 50.2162 32.6898 50.2162 30.4842C50.6101 30.4448 51.004 30.4054 51.3978 30.4054C54.9031 30.4054 58.4478 30.4054 61.9531 30.4054C62.4257 30.4054 63.174 30.563 63.2134 29.854C63.2528 29.0663 62.5045 29.2633 62.0318 29.2239C60.8503 29.1845 59.6687 29.2633 58.5265 29.1845C55.809 29.0269 53.052 29.5783 50.3738 28.8694C50.4526 27.8454 49.9405 27.5303 48.9559 27.5697C46.9473 27.6091 44.9386 27.6091 42.93 27.5697C42.2998 27.5697 41.6303 27.8454 41.0789 27.294C47.9319 27.294 54.8243 27.3334 61.6774 27.294C62.2288 27.294 63.2134 27.6485 63.174 26.6244C63.1346 25.8367 62.2288 26.1124 61.7168 26.1124C57.7782 26.073 53.8791 26.073 49.9405 26.073C50.6495 25.0096 50.2556 23.7887 50.295 22.6465C50.3738 19.3382 50.3738 16.0298 50.3738 12.7214C54.0366 12.7214 57.6995 12.7608 61.4017 12.7608C61.8349 12.7608 62.3469 12.8396 62.6226 12.3276C63.1346 12.6427 63.6466 12.8002 64.2768 12.7608C68.491 12.7214 72.7053 12.7214 76.9589 12.682C81.0549 12.682 85.1904 12.682 89.3259 12.682ZM65.931 25.7186C69.3181 30.2873 71.1692 30.2479 73.6111 25.7186C71.1298 25.7186 68.6486 25.7186 65.931 25.7186ZM76.9195 21.7407C78.8494 21.7407 80.5429 21.7407 82.2365 21.7407C82.5122 21.7407 82.7485 21.7407 83.0242 21.7407C83.3787 21.7013 83.8907 21.8982 84.0088 21.3862C84.0482 21.1499 83.7725 20.7954 83.5362 20.5985C81.6851 18.6686 78.5737 19.1412 76.9195 21.7407ZM63.5679 21.7013C61.2047 18.5898 57.6601 18.708 56.321 21.7013C58.6841 21.7013 61.0078 21.7013 63.5679 21.7013Z" fill="#8765AB"/>
<path d="M63.371 87.5141C63.371 76.5256 63.371 65.4978 63.4104 54.5093C63.4104 53.2489 63.0165 52.7763 61.7168 52.8157C58.566 52.8945 55.4152 52.8157 52.3037 52.8551C51.2797 52.8551 50.6495 52.6188 50.7677 51.4372C51.004 48.6015 50.3345 45.8445 50.4132 43.0087C55.6515 43.0087 60.8897 42.9694 66.128 42.9694C66.3643 43.1269 66.6006 43.2451 66.8369 43.4026C66.7581 44.0328 66.6006 44.7023 66.64 45.3325C66.7581 46.6322 67.7428 47.3805 68.8849 47.6956C70.0665 48.0107 69.1212 46.4747 69.9089 46.2777C70.4997 46.6322 69.6726 47.7744 70.6966 47.7744C71.3662 47.7744 71.9176 47.3411 72.3508 46.8291C73.3749 45.6476 73.3355 44.3478 72.7447 42.9694C78.298 42.9694 83.812 42.9694 89.3653 42.9694C89.3653 46.2383 89.3653 49.5073 89.3259 52.8157C85.5843 52.8157 81.8427 52.8945 78.1011 52.8157C76.7226 52.7763 76.2894 53.2095 76.2894 54.588C76.3288 65.5371 76.3287 76.4863 76.3681 87.4748C72.0358 87.5141 67.7034 87.5141 63.371 87.5141Z" fill="#4F2A74"/>
<path d="M15.7542 87.4747C16.1086 75.1472 21.3862 65.5765 31.587 58.6841C36.7071 55.2182 42.2998 53.4065 48.4833 53.2095C49.8618 53.1702 50.492 53.4852 50.4526 55.0213C50.3344 59.0386 50.4132 63.0165 50.4132 67.0338C49.3498 67.0338 48.2864 66.9156 47.3018 67.1125C36.9434 69.1606 30.0904 76.9589 29.539 87.7111C28.515 87.7111 27.4516 87.7504 26.4276 87.7504C24.3401 87.3172 22.2527 87.3172 20.1653 87.7504C18.708 87.7504 17.2902 87.7504 15.8329 87.7898C15.7541 87.6717 15.7542 87.5929 15.7542 87.4747Z" fill="#734C9F"/>
<path d="M76.3681 87.4748C76.3681 76.5256 76.3681 65.5765 76.2893 54.588C76.2893 53.2095 76.7225 52.7763 78.101 52.8157C81.8426 52.8945 85.5842 52.8157 89.3258 52.8157C89.3258 63.2528 89.3652 73.6505 89.3652 84.0876C89.3652 84.7966 89.4046 85.5449 89.4046 86.2538C89.3652 86.7658 89.3258 87.2384 89.2471 87.7505C88.3412 87.7505 87.4747 87.7505 86.5689 87.7505C83.2211 87.1597 79.7946 87.6323 76.3681 87.4748Z" fill="#734C9F"/>
<path d="M29.4995 87.7111C30.0509 76.9589 36.9039 69.1606 47.2623 67.1125C48.2863 66.9156 49.3497 67.0732 50.3737 67.0338C50.3737 73.2173 50.3737 79.4008 50.4131 85.5843C50.4131 86.4113 50.2162 87.3172 51.2008 87.7504C43.9539 87.7504 36.707 87.7504 29.4995 87.7111Z" fill="#8765AB"/>
<path d="M113.39 86.3326C114.572 80.6611 117.683 76.7226 123.433 75.2653C124.221 75.0684 124.379 74.4382 124.694 73.8868C126.899 69.9877 130.286 69.2788 133.595 72.272C137.927 76.1712 139.266 81.37 139.581 86.9628C139.66 88.0262 138.833 87.8292 138.203 87.8292C129.932 87.8292 121.7 87.8292 113.43 87.7898C113.43 87.3172 113.43 86.8052 113.39 86.3326ZM134.107 82.8667C133.91 81.9214 133.398 81.2913 132.413 81.2913C131.468 81.2913 130.798 81.9608 130.798 82.9061C130.798 83.9301 131.507 84.639 132.531 84.5602C133.516 84.5209 134.028 83.8119 134.107 82.8667Z" fill="#4F2A74"/>
<path d="M89.3651 43.0088C83.8118 43.0088 78.2979 43.0088 72.7445 43.0088C70.342 40.8032 68.806 40.9213 66.8368 43.4026C66.6004 43.2451 66.3641 43.1269 66.1278 42.9694C65.6158 42.3786 64.9069 42.6149 64.2767 42.6149C59.6292 42.6149 55.0212 42.6149 50.3737 42.6149C50.3737 41.0395 50.3343 39.4641 50.3343 37.8887C50.3343 37.6523 50.3737 37.4554 50.3737 37.2191L50.2949 37.101C63.2921 37.0616 76.3286 37.0616 89.3258 37.0222C89.3258 39.0702 89.3651 41.0395 89.3651 43.0088Z" fill="#C18ABD"/>
<path d="M24.0643 22.1346C19.6137 22.1346 15.8721 19.0231 15.045 14.6513C14.3361 10.6734 16.8961 6.38043 20.8741 4.80502C22.4101 4.21424 22.607 4.8444 22.3707 6.10473C21.2679 11.7368 23.119 16.2661 27.6483 19.6927C28.7511 20.5198 28.7511 20.9136 27.4908 21.465C26.1517 21.977 25.7578 22.1346 24.0643 22.1346Z" fill="#C18ABD"/>
<path d="M51.2008 91.0982C52.6187 91.0982 54.0366 91.0982 55.4544 91.0982C55.5726 93.1856 56.0846 95.3518 55.7301 97.3999C55.4938 98.7783 56.124 98.4239 56.7541 98.5814C48.8377 98.739 40.9212 98.739 33.0442 98.5814C34.8165 98.8177 35.2498 98.03 35.0922 96.3365C34.9347 94.6035 35.0922 92.8705 35.1316 91.0982C36.6283 91.0982 38.1643 91.0982 39.6609 91.0982C39.7003 93.2644 39.7791 95.4306 39.7003 97.5574C39.6215 99.251 40.8425 98.3845 41.4333 98.4633C41.9453 98.542 43.0481 99.1328 42.9693 97.5574C42.8511 95.3912 42.9693 93.2644 43.0087 91.0982C44.5053 91.0982 46.0413 91.0982 47.538 91.0982C47.5774 93.0675 47.5774 94.9973 47.6561 96.9666C47.6955 98.0694 48.3257 98.5026 49.4679 98.5026C50.6888 98.5026 50.807 97.8725 50.8463 96.9272C50.8857 94.958 50.4919 92.9887 51.2008 91.0982Z" fill="#633795"/>
<path d="M16.5813 98.542C13.3123 98.542 10.0827 98.6995 6.81372 98.542C3.46597 98.3845 0.866543 95.8638 0.157608 92.6342C-0.0787041 91.492 6.64778e-05 90.9406 1.37855 91.0194C3.3872 91.1376 5.43524 91.0982 7.44389 91.0982C7.56204 93.0281 7.79836 94.9579 7.79836 96.8878C7.79836 98.0694 8.15282 98.5026 9.37377 98.5026C10.4766 98.4632 11.0673 98.2663 11.028 96.9666C10.9492 94.9973 11.028 93.0281 11.0673 91.0588C12.6034 91.0588 14.1394 91.0588 15.636 91.0588C15.6754 92.9887 15.6754 94.9186 15.7148 96.8484C15.7542 97.5968 15.5966 98.3845 16.5813 98.542Z" fill="#633795"/>
<path d="M62.6226 12.2882C62.3469 12.8002 61.8743 12.7215 61.4017 12.7215C57.7388 12.7215 54.076 12.6821 50.3738 12.6821C50.3738 8.62538 50.3738 4.56869 50.3738 0C54.6668 4.293 58.6447 8.27091 62.6226 12.2882Z" fill="#4F2A74"/>
<path d="M89.3258 12.6821C85.1903 12.6821 81.0549 12.6821 76.9194 12.6821C81.0155 8.66476 85.1116 4.64746 89.3258 0.551392C89.3258 4.64746 89.3258 8.66476 89.3258 12.6821Z" fill="#734C9F"/>
<path d="M75.2257 91.1376C78.9673 91.6102 81.6061 93.9339 82.1969 97.2817C82.3545 98.3057 82.1575 98.7389 81.0547 98.6602C78.9673 98.5814 76.8799 98.5814 74.7925 98.542C74.7925 96.0607 74.7925 93.5795 75.2257 91.1376Z" fill="#633795"/>
<path d="M67.3488 91.0982C68.6485 91.0982 69.9482 91.0982 71.248 91.0982C72.1144 93.1069 71.7206 95.2337 71.6024 97.2817C71.5237 98.5814 72.1538 98.4633 72.9021 98.542C70.3815 98.542 67.8608 98.542 65.3008 98.542C66.6793 98.6208 66.955 97.9119 66.9944 96.6515C67.0337 94.8004 66.4823 92.9099 67.3488 91.0982Z" fill="#633795"/>
<path d="M113.39 86.3326C113.43 86.8052 113.43 87.3172 113.469 87.7898C105.395 87.7898 97.3604 87.7898 89.2864 87.7898C89.3258 87.2778 89.3651 86.8052 89.4439 86.2932C97.3997 86.2932 105.395 86.2932 113.39 86.3326Z" fill="#C18ABD"/>
<path d="M19.338 91.0982C20.7559 91.0982 22.1344 91.0982 23.5523 91.0982C23.5917 93.225 23.7098 95.3912 23.5917 97.518C23.5523 98.4239 23.9067 98.4633 24.4975 98.542C22.3313 98.542 20.2045 98.542 18.0383 98.542C19.1805 98.3057 18.8654 97.3999 18.9048 96.6909C19.023 94.8398 18.5503 92.9099 19.338 91.0982Z" fill="#633795"/>
<path d="M59.1172 91.0982C60.5351 91.0982 61.9529 91.0982 63.3314 91.0982C64.0797 93.3432 63.8434 95.6669 63.489 97.9119C63.3314 98.8177 64.001 98.3057 64.1979 98.542C62.4649 98.542 60.732 98.542 58.999 98.5026C59.0384 96.0608 59.0778 93.5795 59.1172 91.0982Z" fill="#633795"/>
<path d="M31.9413 98.542C30.0902 98.542 28.1997 98.542 26.3486 98.542C27.1363 97.9119 27.1363 97.006 27.1363 96.1001C27.1363 94.446 27.1757 92.7524 27.2151 91.0982C28.5936 91.0982 30.0115 91.0982 31.3899 91.0982C31.6656 92.1616 31.6656 93.225 31.5475 94.3278C31.4687 95.7063 31.2324 97.2029 31.9413 98.542Z" fill="#633795"/>
<path d="M50.4131 28.83C53.0913 29.539 55.8483 29.027 58.5659 29.1451C59.7474 29.2239 60.929 29.1451 62.0712 29.1845C62.5438 29.1845 63.2921 29.027 63.2527 29.8147C63.2133 30.563 62.5044 30.3661 61.9924 30.3661C58.4871 30.3661 54.9424 30.3661 51.4371 30.3661C51.0433 30.3661 50.6494 30.4448 50.2556 30.4448C47.5774 30.4448 44.9385 30.4055 42.2603 30.4055C41.3545 30.4055 40.6062 30.3267 41.1182 29.1057C42.7724 29.1451 44.4265 29.3421 46.0807 28.9876C46.317 28.9876 46.5533 28.9876 46.7897 28.9876C47.6167 29.2633 48.4045 29.2633 49.2315 28.9876C49.4679 28.9876 49.6648 28.9876 49.9011 28.9876C50.1374 29.1845 50.3343 29.1451 50.4131 28.83Z" fill="#4F2A74"/>
<path d="M49.98 26.0337C53.9185 26.0337 57.8177 26.0337 61.7562 26.0731C62.2682 26.0731 63.1741 25.7974 63.2134 26.5851C63.2528 27.6091 62.2682 27.2546 61.7168 27.2546C54.8638 27.2546 47.9713 27.2546 41.1183 27.2546C40.6457 25.9943 41.4334 25.9943 42.2998 25.9943C44.8599 26.0337 47.4199 26.0337 49.98 26.0337Z" fill="#4F2A74"/>
<path d="M27.2151 91.0982C27.1757 92.7524 27.1363 94.446 27.1363 96.1001C27.1363 97.006 27.1363 97.9119 26.3486 98.542C25.7184 98.542 25.0883 98.542 24.4975 98.542C23.9067 98.4633 23.5129 98.4239 23.5916 97.518C23.7098 95.3912 23.5916 93.225 23.5522 91.0982C24.7732 91.0982 25.9941 91.0982 27.2151 91.0982Z" fill="#4F2A74"/>
<path d="M31.9415 98.542C31.2325 97.2029 31.4688 95.7063 31.587 94.3278C31.7051 93.225 31.6658 92.1616 31.4294 91.0982C32.6504 91.0982 33.8713 91.0982 35.1317 91.0982C35.0923 92.8312 34.9347 94.6035 35.0923 96.3365C35.2498 98.03 34.8166 98.8177 33.0442 98.5814C32.6898 98.542 32.2959 98.542 31.9415 98.542Z" fill="#4F2A74"/>
<path d="M89.4439 30.4842C85.8992 30.4449 82.3939 30.4448 78.8492 30.3661C78.2584 30.3661 77.2738 30.7599 77.2738 29.8147C77.2344 28.8301 78.2584 29.2239 78.8098 29.2239C85.1115 29.2239 91.3737 29.2239 97.6754 29.2239C98.0692 29.2239 98.4237 29.1057 98.8176 29.027C99.6447 29.8935 99.6447 30.4449 98.2268 30.4449C95.3123 30.4449 92.3584 30.4449 89.4439 30.4842Z" fill="#4F2A74"/>
<path d="M98.8177 27.294C92.6342 27.294 86.4113 27.294 80.2278 27.294C79.7552 27.294 79.322 27.3334 78.8493 27.294C78.2586 27.2152 77.2739 27.6485 77.2345 26.7426C77.1952 25.758 78.1798 26.1124 78.7706 26.1124C82.4334 26.0731 86.0962 26.0731 89.7197 26.0731C92.7524 26.1912 95.8244 25.7974 98.8177 26.27C98.8965 26.3488 99.0146 26.4275 99.0934 26.4669L99.1722 26.5063C99.1328 26.6245 99.1328 26.7426 99.1722 26.8214C99.0934 26.9789 98.9358 27.1365 98.8177 27.294Z" fill="#4F2A74"/>
<path d="M59.1172 91.0982C59.0778 93.5795 59.0384 96.0608 58.999 98.542C58.2507 98.542 57.5024 98.542 56.7541 98.5814C56.1633 98.4239 55.5331 98.7783 55.73 97.3999C56.0451 95.3912 55.5725 93.225 55.4543 91.0982C56.6753 91.0982 57.8962 91.0982 59.1172 91.0982Z" fill="#4F2A74"/>
<path d="M11.0671 91.0982C11.0671 93.0675 10.9489 95.0367 11.0277 97.006C11.0671 98.3057 10.4763 98.5026 9.37348 98.542C8.15254 98.5814 7.79807 98.1088 7.79807 96.9272C7.75869 94.9974 7.56176 93.0675 7.4436 91.1376C8.66455 91.0982 9.84611 91.0982 11.0671 91.0982Z" fill="#4F2A74"/>
<path d="M72.8627 98.542C72.1144 98.4239 71.4842 98.5814 71.563 97.2817C71.6811 95.2337 72.075 93.1069 71.2085 91.0982C72.5476 91.0982 73.8473 91.0982 75.1864 91.1376C74.7532 93.5795 74.7532 96.0608 74.7532 98.542C74.123 98.542 73.4928 98.542 72.8627 98.542Z" fill="#4F2A74"/>
<path d="M64.198 98.542C64.0405 98.3057 63.3709 98.8177 63.4891 97.9119C63.8436 95.6669 64.0799 93.3432 63.3315 91.0982C64.6706 91.0982 65.9704 91.0982 67.3095 91.0982C66.443 92.9099 66.9944 94.8004 66.9156 96.6515C66.8762 97.9119 66.6005 98.6208 65.222 98.542C64.9463 98.542 64.5919 98.542 64.198 98.542Z" fill="#4F2A74"/>
<path d="M19.3381 91.0982C18.5898 92.9099 19.023 94.8004 18.9049 96.6909C18.8655 97.3999 19.1806 98.3451 18.0384 98.542C17.5658 98.542 17.0932 98.542 16.5812 98.542C15.5571 98.3451 15.7541 97.5574 15.7541 96.8878C15.7147 94.958 15.7147 93.0281 15.6753 91.0982C16.8569 91.0982 18.1172 91.0982 19.3381 91.0982Z" fill="#4F2A74"/>
<path d="M43.0086 91.0982C42.9693 93.2644 42.8511 95.4306 42.9693 97.5574C43.048 99.0934 41.9846 98.5026 41.4332 98.4633C40.8424 98.3845 39.6215 99.2903 39.7003 97.5574C39.779 95.3912 39.7003 93.225 39.6609 91.0982C40.7637 91.0982 41.9059 91.0982 43.0086 91.0982Z" fill="#4F2A74"/>
<path d="M51.2008 91.0982C50.4918 92.9887 50.8857 94.958 50.8069 96.9272C50.7675 97.9119 50.6494 98.542 49.4284 98.5026C48.2862 98.5026 47.6561 98.0694 47.6167 96.9666C47.5379 94.9973 47.5379 93.0675 47.4985 91.0982C48.7589 91.0982 49.9798 91.0982 51.2008 91.0982Z" fill="#4F2A74"/>
<path d="M115.95 17.8415C115.911 17.9203 115.911 18.1172 115.832 18.1172C114.414 18.3929 113.784 19.3776 113.233 20.6379C113.036 21.0317 112.484 20.5985 112.406 20.2046C112.209 19.22 111.815 18.5111 110.673 18.4323C110.397 18.3929 110.042 18.2354 110.042 17.8021C110.042 17.3689 110.436 17.3295 110.712 17.2114C110.87 17.1326 111.106 17.0144 111.263 17.0538C112.721 17.2114 111.657 14.2575 113.311 15.2027C114.02 15.5966 114.02 17.2114 115.438 17.2507C115.714 17.2507 115.95 17.4871 115.95 17.8415Z" fill="#C18ABD"/>
<path d="M124.97 51.0434C124.773 51.4372 124.418 51.5554 124.024 51.5947C123.276 51.6735 122.882 52.1068 122.725 52.8157C122.607 53.2095 122.528 53.8397 121.976 53.8003C121.543 53.8003 121.346 53.3277 121.346 52.9338C121.307 51.4766 119.141 51.9492 119.219 50.8464C119.298 49.98 121.189 50.295 121.346 48.9165C121.386 48.4833 121.464 47.9319 122.095 47.9319C122.567 47.9713 122.567 48.5227 122.646 48.8378C122.803 49.7436 123.394 50.1375 124.221 50.3344C124.497 50.4526 124.97 50.492 124.97 51.0434Z" fill="#C18ABD"/>
<path d="M76.3681 87.4747C79.7552 87.6323 83.1817 87.1597 86.5689 87.7504C78.81 87.908 71.0904 88.0261 63.3315 87.7898C63.3315 87.711 63.3315 87.6323 63.3315 87.5141C67.7033 87.5141 72.0357 87.5141 76.3681 87.4747Z" fill="#8765AB"/>
<path d="M12.0518 37.4554C12.8001 36.5889 14.0998 36.5889 13.7453 34.7378C14.8087 35.9588 15.6358 36.6677 15.9115 37.3373C16.1478 37.8886 14.6118 38.3613 14.4149 39.5822C13.6666 38.5976 13.2333 37.6917 12.0518 37.4554Z" fill="#C18ABD"/>
<path d="M104.529 68.6092C103.859 67.979 103.071 67.5458 103.071 67.1125C103.032 66.5218 103.78 65.7734 104.371 65.7734C104.804 65.7734 105.553 66.4824 105.631 66.9944C105.71 67.6639 104.568 67.7033 104.529 68.6092Z" fill="#C18ABD"/>
<path d="M20.0864 87.7504C22.1738 87.3172 24.2613 87.3172 26.3487 87.7504C24.2613 87.9474 22.1738 87.9474 20.0864 87.7504Z" fill="#8765AB"/>
<path d="M49.192 37.4554C48.3649 38.3219 47.3803 37.8099 46.4351 37.8099C47.2228 36.7465 48.2074 36.9828 49.192 37.4554Z" fill="#C18ABD"/>
<path d="M46.0807 29.0663C44.4265 29.4208 42.7723 29.1845 41.1182 29.1845C42.7723 28.5937 44.4265 28.83 46.0807 29.0663Z" fill="#8765AB"/>
<path d="M49.2317 29.0663C48.4046 29.3026 47.6169 29.3026 46.7898 29.0663C47.6169 28.7906 48.444 28.7906 49.2317 29.0663Z" fill="#8765AB"/>
<path d="M15.7541 87.4747C15.7541 87.5929 15.7935 87.6717 15.7935 87.7898C15.3996 87.7898 14.9664 87.7898 14.5725 87.7898C14.8876 87.4353 15.3208 87.5535 15.7541 87.4747Z" fill="#8765AB"/>
<path d="M0.0393066 87.4747C0.275618 87.5535 0.551316 87.6717 0.787627 87.7504C0.472545 87.8686 0.118077 87.9867 0.0393066 87.4747Z" fill="#8765AB"/>
<path d="M50.3738 37.2585C50.3738 37.4948 50.3344 37.6917 50.3344 37.928C50.2162 37.7705 50.1374 37.613 50.0193 37.4554C50.1374 37.3766 50.2556 37.2979 50.3738 37.2585Z" fill="#8765AB"/>
<path d="M50.4131 28.83C50.3344 29.1057 50.1768 29.1845 49.9011 29.0664C50.0587 28.9876 50.2162 28.9088 50.4131 28.83Z" fill="#8765AB"/>
<path d="M99.2115 26.8608C99.1721 26.7426 99.1327 26.6638 99.2115 26.5457C99.5266 26.6245 99.5266 26.7032 99.2115 26.8608Z" fill="#8765AB"/>
<path d="M99.1326 26.4669C99.0539 26.3881 98.9357 26.3094 98.8569 26.27C99.0145 26.2306 99.0933 26.3094 99.1326 26.4669Z" fill="#8765AB"/>
<path d="M50.3738 42.6149C55.0212 42.6149 59.6293 42.6149 64.2768 42.6149C64.907 42.6149 65.6159 42.3786 66.1279 42.9694C60.8897 42.9694 55.6514 43.0087 50.4132 43.0087C50.4132 42.8906 50.3738 42.7724 50.3738 42.6149Z" fill="#8765AB"/>
<path d="M65.9309 25.7186C68.6485 25.7186 71.1298 25.7186 73.611 25.7186C71.2085 30.2479 69.318 30.2873 65.9309 25.7186Z" fill="#4F2A74"/>
<path d="M76.9194 21.7407C78.5342 19.1413 81.6851 18.6686 83.5362 20.5591C83.7331 20.7561 84.0482 21.1105 84.0088 21.3468C83.93 21.8588 83.3786 21.6619 83.0242 21.7013C82.7485 21.7407 82.5121 21.7013 82.2364 21.7013C80.5823 21.7407 78.8887 21.7407 76.9194 21.7407Z" fill="#4F2A74"/>
<path d="M63.5677 21.7013C61.0077 21.7013 58.6445 21.7013 56.3208 21.7013C57.6599 18.6686 61.2046 18.5899 63.5677 21.7013Z" fill="#4F2A74"/>
<path d="M66.8368 43.442C68.806 40.9607 70.3421 40.8425 72.7446 43.0481C73.3353 44.4266 73.3747 45.7263 72.3507 46.9079C71.9175 47.4199 71.3661 47.8531 70.6965 47.8531C69.6725 47.8531 70.4996 46.6716 69.9088 46.3565C69.1605 46.5534 70.0664 48.0894 68.8848 47.7744C67.7426 47.4593 66.7974 46.711 66.6398 45.4112C66.5611 44.7417 66.758 44.0721 66.8368 43.442Z" fill="#FCF8FB"/>
<path d="M134.107 82.8667C134.028 83.8119 133.516 84.5209 132.571 84.5602C131.507 84.639 130.838 83.9301 130.838 82.9061C130.838 81.9608 131.507 81.3306 132.453 81.2913C133.398 81.2913 133.949 81.9214 134.107 82.8667Z" fill="#FCF8FB"/>
</svg>
