<svg width="247" height="132" viewBox="0 0 247 132" fill="none" xmlns="http://www.w3.org/2000/svg">
<path d="M246.531 77.979C246.531 67.0442 237.66 41.0964 226.718 41.0964C215.776 41.0964 206.906 67.0442 206.906 77.979C206.909 83.2311 208.998 88.2669 212.714 91.9794C216.429 95.6919 221.466 97.7773 226.718 97.7773C231.97 97.7773 237.008 95.6919 240.723 91.9794C244.438 88.2669 246.527 83.2311 246.531 77.979H246.531Z" fill="#F2F2F2"/>
<path d="M226.719 121.852C226.658 121.852 226.601 121.828 226.558 121.786C226.516 121.743 226.492 121.686 226.492 121.626V75.3746C226.492 75.3146 226.516 75.2569 226.558 75.2144C226.601 75.1719 226.658 75.1481 226.719 75.1481C226.779 75.1481 226.836 75.1719 226.879 75.2144C226.921 75.2569 226.945 75.3146 226.945 75.3746V121.626C226.945 121.686 226.921 121.743 226.879 121.786C226.836 121.828 226.779 121.852 226.719 121.852Z" fill="#CCCCCC"/>
<path d="M226.719 84.0159C226.686 84.0159 226.654 84.009 226.624 83.9955C226.595 83.982 226.569 83.9624 226.547 83.9378L215.153 70.7971C215.113 70.7516 215.094 70.6925 215.098 70.6326C215.102 70.5728 215.13 70.517 215.176 70.4777C215.221 70.4384 215.28 70.4187 215.34 70.4229C215.4 70.4271 215.456 70.4549 215.495 70.5001L226.89 83.6409C226.918 83.6737 226.936 83.714 226.943 83.757C226.949 83.8 226.943 83.8438 226.925 83.8833C226.907 83.9228 226.878 83.9563 226.841 83.9798C226.804 84.0033 226.762 84.0159 226.719 84.0159Z" fill="#CCCCCC"/>
<path d="M226.718 91.5996C226.674 91.5996 226.63 91.5863 226.593 91.5614C226.555 91.5365 226.526 91.5011 226.509 91.4597C226.492 91.4183 226.488 91.3728 226.496 91.3289C226.505 91.2849 226.527 91.2446 226.558 91.2129L233.033 84.7381C233.075 84.6958 233.133 84.6721 233.193 84.6722C233.253 84.6723 233.31 84.6961 233.353 84.7385C233.395 84.7809 233.419 84.8384 233.419 84.8984C233.419 84.9584 233.396 85.0159 233.353 85.0584L226.879 91.5332C226.858 91.5543 226.833 91.571 226.805 91.5824C226.778 91.5938 226.748 91.5997 226.718 91.5996Z" fill="#CCCCCC"/>
<path d="M28.0606 97.1462C28.0606 90.9886 23.0655 76.3768 16.9037 76.3768C10.7419 76.3768 5.74683 90.9886 5.74683 97.1462C5.74847 100.104 6.92465 102.94 9.0168 105.031C11.109 107.122 13.9458 108.297 16.9037 108.297C19.8617 108.297 22.6985 107.122 24.7907 105.031C26.8828 102.94 28.059 100.104 28.0607 97.1462H28.0606Z" fill="#F2F2F2"/>
<path d="M16.9037 121.852C16.8699 121.852 16.8374 121.839 16.8135 121.815C16.7896 121.791 16.7761 121.758 16.7761 121.725V95.6797C16.7761 95.6458 16.7896 95.6134 16.8135 95.5894C16.8374 95.5655 16.8699 95.5521 16.9037 95.5521C16.9375 95.5521 16.97 95.5655 16.9939 95.5894C17.0179 95.6134 17.0313 95.6458 17.0313 95.6797V121.725C17.0313 121.758 17.0178 121.791 16.9939 121.815C16.97 121.839 16.9375 121.852 16.9037 121.852Z" fill="#CCCCCC"/>
<path d="M16.9038 100.546C16.8855 100.546 16.8674 100.542 16.8507 100.534C16.8341 100.527 16.8193 100.516 16.8073 100.502L10.3907 93.102C10.3687 93.0764 10.3577 93.0431 10.3602 93.0095C10.3627 92.9758 10.3784 92.9445 10.4039 92.9224C10.4294 92.9003 10.4626 92.8892 10.4963 92.8915C10.5299 92.8938 10.5613 92.9094 10.5835 92.9348L17.0001 100.335C17.0161 100.353 17.0265 100.376 17.03 100.4C17.0335 100.424 17.0299 100.449 17.0198 100.471C17.0096 100.493 16.9933 100.512 16.9727 100.526C16.9522 100.539 16.9282 100.546 16.9038 100.546V100.546Z" fill="#CCCCCC"/>
<path d="M16.9037 104.816C16.8784 104.816 16.8538 104.809 16.8328 104.795C16.8118 104.781 16.7955 104.761 16.7858 104.738C16.7762 104.714 16.7737 104.689 16.7786 104.664C16.7835 104.639 16.7956 104.616 16.8135 104.599L20.4595 100.952C20.4834 100.929 20.5159 100.915 20.5497 100.915C20.5835 100.915 20.616 100.929 20.6399 100.952C20.6638 100.976 20.6773 101.009 20.6773 101.043C20.6773 101.076 20.6638 101.109 20.6399 101.133L16.9939 104.779C16.982 104.791 16.968 104.8 16.9525 104.807C16.937 104.813 16.9204 104.816 16.9037 104.816Z" fill="#CCCCCC"/>
<path d="M4.81982 121.683C4.81982 120.448 5.31055 119.263 6.18404 118.39C7.05753 117.516 8.24225 117.025 9.47756 117.025C10.7129 117.025 11.8976 117.516 12.7711 118.39C13.6446 119.263 14.1353 120.448 14.1353 121.683" fill="#F2F2F2"/>
<path d="M9.4772 121.683C9.44382 121.683 9.41179 121.67 9.38818 121.646C9.36458 121.623 9.35132 121.591 9.35132 121.557V119.102C9.35132 119.069 9.36458 119.037 9.38818 119.013C9.41179 118.99 9.44382 118.977 9.4772 118.977C9.51059 118.977 9.5426 118.99 9.56621 119.013C9.58982 119.037 9.60309 119.069 9.60309 119.102V121.557C9.60308 121.591 9.58982 121.623 9.56621 121.646C9.5426 121.67 9.51059 121.683 9.4772 121.683Z" fill="#CCCCCC"/>
<path d="M9.4773 120.84C9.44723 120.84 9.41814 120.829 9.39536 120.809L7.88477 119.513C7.87217 119.502 7.86181 119.489 7.85429 119.474C7.84677 119.459 7.84224 119.443 7.84095 119.427C7.83967 119.41 7.84166 119.394 7.84681 119.378C7.85195 119.362 7.86015 119.347 7.87094 119.335C7.88173 119.322 7.89489 119.312 7.90968 119.305C7.92446 119.297 7.94057 119.293 7.95709 119.291C7.9736 119.29 7.9902 119.292 8.00593 119.297C8.02166 119.303 8.03621 119.311 8.04875 119.322L9.55937 120.618C9.57888 120.635 9.59279 120.657 9.59923 120.682C9.60568 120.707 9.60435 120.733 9.59541 120.757C9.58647 120.782 9.57036 120.802 9.54924 120.817C9.52813 120.832 9.50303 120.84 9.47731 120.84H9.4773Z" fill="#CCCCCC"/>
<path d="M19.1704 121.683C19.1704 120.448 19.6611 119.263 20.5346 118.39C21.4081 117.516 22.5928 117.025 23.8281 117.025C25.0635 117.025 26.2482 117.516 27.1216 118.39C27.9951 119.263 28.4859 120.448 28.4859 121.683" fill="#F2F2F2"/>
<path d="M23.8283 121.683C23.7949 121.683 23.7629 121.67 23.7393 121.646C23.7156 121.623 23.7024 121.591 23.7024 121.557V119.102C23.7024 119.069 23.7156 119.037 23.7393 119.013C23.7629 118.99 23.7949 118.977 23.8283 118.977C23.8617 118.977 23.8937 118.99 23.9173 119.013C23.9409 119.037 23.9542 119.069 23.9542 119.102V121.557C23.9542 121.591 23.9409 121.623 23.9173 121.646C23.8937 121.67 23.8617 121.683 23.8283 121.683Z" fill="#CCCCCC"/>
<path d="M23.8283 120.84C23.7983 120.84 23.7692 120.829 23.7464 120.809L22.2358 119.513C22.2104 119.491 22.1948 119.46 22.1923 119.427C22.1897 119.393 22.2005 119.36 22.2223 119.335C22.244 119.31 22.2749 119.294 22.3082 119.292C22.3415 119.289 22.3744 119.3 22.3998 119.322L23.9104 120.618C23.9299 120.635 23.9438 120.657 23.9503 120.682C23.9567 120.707 23.9554 120.733 23.9464 120.757C23.9375 120.782 23.9214 120.802 23.9003 120.817C23.8792 120.832 23.8541 120.84 23.8283 120.84Z" fill="#CCCCCC"/>
<path d="M105.544 103.176C77.0979 103.176 53.9556 80.0338 53.9556 51.5881C53.9556 23.1424 77.0979 0 105.544 0C133.989 0 157.132 23.1424 157.132 51.5881C157.132 80.0338 133.989 103.176 105.544 103.176ZM105.544 0.692458C77.4797 0.692458 54.648 23.5241 54.648 51.5881C54.648 79.6521 77.4797 102.484 105.544 102.484C133.608 102.484 156.439 79.6521 156.439 51.5881C156.439 23.5241 133.608 0.692458 105.544 0.692458Z" fill="#CCCCCC"/>
<path d="M105.544 47.7796C105.452 47.7796 105.364 47.7431 105.299 47.6782C105.234 47.6132 105.198 47.5252 105.198 47.4333V0.346229C105.198 0.254403 105.234 0.166344 105.299 0.101413C105.364 0.0364826 105.452 0 105.544 0C105.636 0 105.724 0.0364826 105.789 0.101413C105.853 0.166344 105.89 0.254403 105.89 0.346229V47.4333C105.89 47.5252 105.853 47.6132 105.789 47.6782C105.724 47.7431 105.636 47.7796 105.544 47.7796Z" fill="#CCCCCC"/>
<path d="M156.785 51.9343H109.698C109.606 51.9343 109.518 51.8979 109.453 51.8329C109.389 51.768 109.352 51.6799 109.352 51.5881C109.352 51.4963 109.389 51.4082 109.453 51.3433C109.518 51.2784 109.606 51.2419 109.698 51.2419H156.785C156.877 51.2419 156.965 51.2784 157.03 51.3433C157.095 51.4082 157.132 51.4963 157.132 51.5881C157.132 51.6799 157.095 51.768 157.03 51.8329C156.965 51.8979 156.877 51.9343 156.785 51.9343Z" fill="#CCCCCC"/>
<path d="M101.389 51.9343H54.3243C54.2324 51.9343 54.1444 51.8979 54.0794 51.8329C54.0145 51.768 53.978 51.6799 53.978 51.5881C53.978 51.4963 54.0145 51.4082 54.0794 51.3433C54.1444 51.2784 54.2324 51.2419 54.3243 51.2419H101.389C101.481 51.2419 101.569 51.2784 101.634 51.3433C101.699 51.4082 101.735 51.4963 101.735 51.5881C101.735 51.6799 101.699 51.768 101.634 51.8329C101.569 51.8979 101.481 51.9343 101.389 51.9343Z" fill="#CCCCCC"/>
<path d="M105.544 103.176C105.452 103.176 105.364 103.14 105.299 103.075C105.234 103.01 105.198 102.922 105.198 102.83V55.7428C105.198 55.651 105.234 55.563 105.299 55.498C105.364 55.4331 105.452 55.3966 105.544 55.3966C105.636 55.3966 105.724 55.4331 105.789 55.498C105.853 55.563 105.89 55.651 105.89 55.7428V102.83C105.89 102.922 105.853 103.01 105.789 103.075C105.724 103.14 105.636 103.176 105.544 103.176Z" fill="#CCCCCC"/>
<path d="M108.596 49.1209C108.528 49.1208 108.461 49.1005 108.404 49.0625C108.347 49.0244 108.303 48.9704 108.277 48.9071C108.25 48.8439 108.244 48.7743 108.257 48.7071C108.27 48.64 108.303 48.5783 108.352 48.5299L141.501 15.3806C141.533 15.3485 141.571 15.323 141.613 15.3056C141.655 15.2882 141.7 15.2792 141.746 15.2792C141.791 15.2792 141.836 15.2882 141.878 15.3056C141.92 15.323 141.958 15.3485 141.99 15.3806C142.022 15.4128 142.048 15.4509 142.065 15.4929C142.083 15.5349 142.092 15.58 142.092 15.6254C142.092 15.6709 142.083 15.7159 142.065 15.7579C142.048 15.7999 142.022 15.8381 141.99 15.8702L108.841 49.0194C108.809 49.0516 108.771 49.0772 108.729 49.0946C108.687 49.112 108.642 49.1209 108.596 49.1209Z" fill="#CCCCCC"/>
<path d="M102.491 49.1209C102.446 49.1209 102.4 49.112 102.358 49.0946C102.316 49.0772 102.278 49.0516 102.246 49.0194L69.097 15.8702C69.0321 15.8053 68.9956 15.7172 68.9956 15.6254C68.9956 15.5336 69.0321 15.4456 69.097 15.3806C69.1619 15.3157 69.25 15.2792 69.3418 15.2792C69.4336 15.2792 69.5217 15.3157 69.5866 15.3806L102.736 48.5299C102.784 48.5783 102.817 48.64 102.831 48.7071C102.844 48.7743 102.837 48.8439 102.811 48.9071C102.785 48.9704 102.74 49.0244 102.683 49.0625C102.626 49.1005 102.559 49.1208 102.491 49.1209L102.491 49.1209Z" fill="#CCCCCC"/>
<path d="M141.746 87.897C141.7 87.8971 141.655 87.8881 141.613 87.8707C141.571 87.8533 141.533 87.8278 141.501 87.7956L108.352 54.6463C108.287 54.5814 108.25 54.4934 108.25 54.4015C108.25 54.3097 108.287 54.2217 108.352 54.1568C108.417 54.0918 108.505 54.0554 108.596 54.0554C108.688 54.0554 108.776 54.0918 108.841 54.1568L141.99 87.306C142.039 87.3544 142.072 87.4161 142.085 87.4832C142.098 87.5504 142.092 87.62 142.065 87.6832C142.039 87.7465 141.995 87.8006 141.938 87.8386C141.881 87.8766 141.814 87.897 141.746 87.897L141.746 87.897Z" fill="#CCCCCC"/>
<path d="M69.3418 87.897C69.2733 87.897 69.2064 87.8766 69.1494 87.8386C69.0925 87.8006 69.0482 87.7465 69.022 87.6832C68.9958 87.62 68.9889 87.5504 69.0023 87.4832C69.0156 87.4161 69.0486 87.3544 69.097 87.306L102.246 54.1568C102.278 54.1246 102.317 54.0991 102.359 54.0817C102.401 54.0643 102.446 54.0554 102.491 54.0554C102.536 54.0554 102.581 54.0643 102.623 54.0817C102.665 54.0991 102.704 54.1246 102.736 54.1568C102.768 54.1889 102.793 54.2271 102.811 54.2691C102.828 54.3111 102.837 54.3561 102.837 54.4015C102.837 54.447 102.828 54.492 102.811 54.534C102.793 54.576 102.768 54.6142 102.736 54.6463L69.5866 87.7956C69.5545 87.8278 69.5163 87.8533 69.4743 87.8707C69.4323 87.8881 69.3872 87.8971 69.3418 87.897Z" fill="#CCCCCC"/>
<path d="M105.544 87.0765C98.5247 87.0765 91.6634 84.9952 85.8273 81.0956C79.9913 77.1961 75.4426 71.6536 72.7566 65.1689C70.0706 58.6843 69.3678 51.5487 70.7371 44.6646C72.1064 37.7805 75.4864 31.4571 80.4495 26.494C85.4127 21.5308 91.7361 18.1509 98.6202 16.7815C105.504 15.4122 112.64 16.115 119.124 18.801C125.609 21.4871 131.152 26.0357 135.051 31.8717C138.951 37.7078 141.032 44.5691 141.032 51.5881C141.021 60.9969 137.279 70.0174 130.626 76.6705C123.973 83.3235 114.953 87.0659 105.544 87.0765ZM105.544 16.7921C98.6617 16.7921 91.9342 18.8328 86.212 22.6563C80.4899 26.4797 76.03 31.9141 73.3963 38.2722C70.7627 44.6304 70.0736 51.6267 71.4162 58.3764C72.7589 65.1262 76.0729 71.3263 80.9392 76.1926C85.8055 81.0589 92.0055 84.3729 98.7553 85.7155C105.505 87.0581 112.501 86.369 118.859 83.7354C125.218 81.1018 130.652 76.6419 134.475 70.9197C138.299 65.1975 140.34 58.4701 140.34 51.5881C140.329 42.3628 136.66 33.5184 130.137 26.9951C123.613 20.4719 114.769 16.8025 105.544 16.7921Z" fill="#CCCCCC"/>
<path d="M105.544 55.7428C107.838 55.7428 109.698 53.8827 109.698 51.5881C109.698 49.2935 107.838 47.4333 105.544 47.4333C103.249 47.4333 101.389 49.2935 101.389 51.5881C101.389 53.8827 103.249 55.7428 105.544 55.7428Z" fill="#3F3D56"/>
<path d="M89.4589 121.767L85.8086 121.873L103.624 49.9625L106.936 50.9728L89.4589 121.767Z" fill="#3F3D56"/>
<path d="M121.628 121.767L125.279 121.873L107.463 49.9625L104.151 50.9728L121.628 121.767Z" fill="#3F3D56"/>
<path d="M111.083 10.7331H99.6577V16.9652H111.083V10.7331Z" fill="#CCCCCC"/>
<path d="M104.851 12.118H100.35V16.9652H104.851V12.118Z" fill="white"/>
<path d="M110.391 12.118H105.89V16.9652H110.391V12.118Z" fill="white"/>
<path d="M105.371 23.7167C103.627 23.7147 101.954 23.021 100.721 21.7877C99.4879 20.5545 98.7942 18.8824 98.7922 17.1383V16.9652C98.7927 16.5521 98.957 16.1561 99.2491 15.864C99.5412 15.5719 99.9372 15.4076 100.35 15.4072H110.391C110.804 15.4076 111.2 15.5719 111.492 15.864C111.784 16.1561 111.948 16.5521 111.949 16.9652V17.1383C111.947 18.8824 111.253 20.5545 110.02 21.7877C108.787 23.021 107.115 23.7147 105.371 23.7167Z" fill="#CCCCCC"/>
<path d="M110.655 12.2911H100.086C99.9383 12.2911 99.7932 12.2534 99.6643 12.1816C99.5354 12.1097 99.4271 12.0061 99.3495 11.8806C99.2719 11.7551 99.2277 11.6118 99.2211 11.4644C99.2145 11.317 99.2456 11.1704 99.3116 11.0384L101.389 6.88365C101.46 6.73952 101.571 6.61831 101.708 6.53374C101.845 6.44918 102.002 6.40465 102.163 6.40522H108.578C108.739 6.40465 108.897 6.44918 109.034 6.53374C109.17 6.61831 109.281 6.73952 109.352 6.88365L111.43 11.0384C111.496 11.1704 111.527 11.317 111.52 11.4644C111.514 11.6118 111.469 11.7551 111.392 11.8806C111.314 12.0061 111.206 12.1097 111.077 12.1816C110.948 12.2534 110.803 12.2911 110.655 12.2911Z" fill="#131529"/>
<path d="M141.898 24.5823H130.472V30.8144H141.898V24.5823Z" fill="#CCCCCC"/>
<path d="M135.666 25.9672H131.165V30.8144H135.666V25.9672Z" fill="white"/>
<path d="M141.205 25.9672H136.704V30.8144H141.205V25.9672Z" fill="white"/>
<path d="M136.185 37.5658C134.441 37.5639 132.769 36.8701 131.536 35.6369C130.302 34.4036 129.609 32.7316 129.607 30.9875V30.8144C129.607 30.4013 129.771 30.0053 130.064 29.7132C130.356 29.4211 130.752 29.2568 131.165 29.2563H141.205C141.618 29.2568 142.014 29.4211 142.307 29.7132C142.599 30.0053 142.763 30.4013 142.763 30.8144V30.9875C142.761 32.7316 142.068 34.4036 140.834 35.6369C139.601 36.8701 137.929 37.5639 136.185 37.5658Z" fill="#CCCCCC"/>
<path d="M132.978 20.6006C132.881 20.6003 132.786 20.6271 132.704 20.6778C132.622 20.7285 132.556 20.8013 132.513 20.8877L130.436 25.0425C130.396 25.1216 130.377 25.2096 130.381 25.2981C130.385 25.3865 130.412 25.4725 130.458 25.5478C130.505 25.6231 130.57 25.6853 130.647 25.7284C130.725 25.7715 130.812 25.7941 130.9 25.7941H141.47C141.558 25.7941 141.645 25.7715 141.723 25.7284C141.8 25.6853 141.865 25.6231 141.912 25.5478C141.958 25.4725 141.985 25.3865 141.989 25.2981C141.993 25.2096 141.974 25.1216 141.934 25.0425L139.857 20.8877C139.814 20.8013 139.748 20.7285 139.666 20.6778C139.584 20.6271 139.489 20.6003 139.392 20.6006H132.978Z" fill="#131529"/>
<path d="M154.016 55.7429H142.59V61.975H154.016V55.7429Z" fill="#CCCCCC"/>
<path d="M147.784 57.1277H143.283V61.975H147.784V57.1277Z" fill="white"/>
<path d="M153.323 57.1277H148.822V61.975H153.323V57.1277Z" fill="white"/>
<path d="M148.303 68.7264C146.559 68.7244 144.887 68.0307 143.654 66.7975C142.42 65.5642 141.727 63.8922 141.725 62.1481V61.975C141.725 61.5619 141.889 61.1659 142.181 60.8738C142.474 60.5817 142.87 60.4174 143.283 60.4169H153.323C153.736 60.4174 154.132 60.5817 154.424 60.8738C154.717 61.1659 154.881 61.5619 154.881 61.975V62.1481C154.879 63.8922 154.186 65.5642 152.952 66.7975C151.719 68.0307 150.047 68.7244 148.303 68.7264Z" fill="#CCCCCC"/>
<path d="M153.588 57.3009H143.018C142.87 57.3009 142.725 57.2632 142.596 57.1913C142.468 57.1195 142.359 57.0159 142.282 56.8904C142.204 56.7649 142.16 56.6216 142.153 56.4742C142.147 56.3268 142.178 56.1801 142.244 56.0482L144.321 51.8934C144.393 51.7493 144.503 51.6281 144.64 51.5435C144.777 51.4589 144.934 51.4144 145.095 51.415H151.51C151.671 51.4144 151.829 51.4589 151.966 51.5435C152.103 51.6281 152.213 51.7493 152.284 51.8934L154.362 56.0482C154.428 56.1801 154.459 56.3268 154.452 56.4742C154.446 56.6216 154.401 56.7648 154.324 56.8904C154.246 57.0159 154.138 57.1195 154.009 57.1913C153.88 57.2632 153.735 57.3009 153.588 57.3009Z" fill="#131529"/>
<path d="M141.205 84.826H129.78V91.0582H141.205V84.826Z" fill="#CCCCCC"/>
<path d="M134.973 86.211H130.472V91.0582H134.973V86.211Z" fill="white"/>
<path d="M140.513 86.211H136.012V91.0582H140.513V86.211Z" fill="white"/>
<path d="M135.492 97.8097C133.748 97.8077 132.076 97.114 130.843 95.8807C129.61 94.6475 128.916 92.9754 128.914 91.2313V91.0582C128.915 90.6451 129.079 90.2491 129.371 89.957C129.663 89.6649 130.059 89.5006 130.472 89.5002H140.513C140.926 89.5006 141.322 89.6649 141.614 89.957C141.906 90.2491 142.07 90.6451 142.071 91.0582V91.2313C142.069 92.9754 141.375 94.6475 140.142 95.8807C138.909 97.114 137.236 97.8077 135.492 97.8097Z" fill="#CCCCCC"/>
<path d="M140.777 86.3841H130.208C130.06 86.3841 129.915 86.3464 129.786 86.2745C129.657 86.2027 129.549 86.0991 129.471 85.9736C129.394 85.848 129.35 85.7048 129.343 85.5574C129.336 85.41 129.367 85.2633 129.433 85.1314L131.511 80.9766C131.582 80.8325 131.693 80.7113 131.83 80.6267C131.966 80.5421 132.124 80.4976 132.285 80.4982H138.7C138.861 80.4976 139.019 80.5421 139.155 80.6267C139.292 80.7113 139.403 80.8325 139.474 80.9766L141.551 85.1314C141.617 85.2633 141.649 85.41 141.642 85.5574C141.635 85.7048 141.591 85.848 141.514 85.9736C141.436 86.0991 141.328 86.2027 141.199 86.2745C141.07 86.3464 140.925 86.3841 140.777 86.3841Z" fill="#131529"/>
<path d="M69.1897 30.8144H80.6152V24.5823H69.1897V30.8144Z" fill="#CCCCCC"/>
<path d="M75.4219 30.8144H79.9229V25.9672H75.4219V30.8144Z" fill="white"/>
<path d="M69.8821 30.8144H74.3831V25.9672H69.8821V30.8144Z" fill="white"/>
<path d="M74.9026 37.5658C73.1585 37.5639 71.4864 36.8701 70.2532 35.6369C69.0199 34.4036 68.3262 32.7316 68.3242 30.9875V30.8144C68.3247 30.4013 68.489 30.0053 68.7811 29.7132C69.0732 29.4211 69.4692 29.2568 69.8822 29.2563H79.9229C80.336 29.2568 80.732 29.4211 81.0241 29.7132C81.3161 30.0053 81.4804 30.4013 81.4809 30.8144V30.9875C81.4789 32.7316 80.7852 34.4036 79.552 35.6369C78.3187 36.8701 76.6466 37.5639 74.9026 37.5658Z" fill="#CCCCCC"/>
<path d="M80.1872 26.1403H69.6176C69.47 26.1403 69.3249 26.1026 69.196 26.0308C69.0672 25.9589 68.9588 25.8553 68.8812 25.7298C68.8036 25.6043 68.7594 25.461 68.7528 25.3136C68.7462 25.1662 68.7774 25.0195 68.8434 24.8876L70.9207 20.7328C70.9922 20.5887 71.1026 20.4675 71.2394 20.3829C71.3763 20.2984 71.5341 20.2538 71.6949 20.2544H78.1098C78.2707 20.2538 78.4285 20.2984 78.5653 20.3829C78.7022 20.4675 78.8126 20.5887 78.884 20.7328L80.9614 24.8876C81.0274 25.0195 81.0585 25.1662 81.0519 25.3136C81.0453 25.461 81.0011 25.6043 80.9235 25.7298C80.846 25.8553 80.7376 25.9589 80.6087 26.0308C80.4798 26.1026 80.3347 26.1403 80.1872 26.1403Z" fill="#131529"/>
<path d="M57.0715 61.975H68.4971V55.7429H57.0715V61.975Z" fill="#CCCCCC"/>
<path d="M63.3037 61.975H67.8047V57.1278H63.3037V61.975Z" fill="white"/>
<path d="M57.7639 61.975H62.2649V57.1278H57.7639V61.975Z" fill="white"/>
<path d="M62.7844 68.7264C61.0403 68.7244 59.3682 68.0307 58.135 66.7975C56.9017 65.5642 56.208 63.8922 56.2061 62.1481V61.975C56.2065 61.5619 56.3708 61.1659 56.6629 60.8738C56.955 60.5817 57.351 60.4174 57.7641 60.4169H67.8047C68.2178 60.4174 68.6138 60.5817 68.9059 60.8738C69.198 61.1659 69.3623 61.5619 69.3628 61.975V62.1481C69.3608 63.8922 68.6671 65.5642 67.4338 66.7975C66.2006 68.0307 64.5285 68.7244 62.7844 68.7264Z" fill="#CCCCCC"/>
<path d="M68.069 57.3009H57.4994C57.3519 57.3009 57.2068 57.2632 57.0779 57.1913C56.949 57.1195 56.8406 57.0159 56.763 56.8904C56.6855 56.7649 56.6413 56.6216 56.6347 56.4742C56.628 56.3268 56.6592 56.1801 56.7252 56.0482L58.8026 51.8934C58.874 51.7493 58.9844 51.6281 59.1213 51.5435C59.2581 51.4589 59.4159 51.4144 59.5768 51.415H65.9917C66.1525 51.4144 66.3103 51.4589 66.4472 51.5435C66.584 51.6281 66.6944 51.7493 66.7658 51.8934L68.8432 56.0482C68.9092 56.1801 68.9404 56.3268 68.9338 56.4742C68.9271 56.6216 68.8829 56.7648 68.8054 56.8904C68.7278 57.0159 68.6194 57.1195 68.4906 57.1913C68.3617 57.2632 68.2166 57.3009 68.069 57.3009Z" fill="#131529"/>
<path d="M69.8821 91.0582H81.3076V84.826H69.8821V91.0582Z" fill="#CCCCCC"/>
<path d="M76.1143 91.0582H80.6152V86.211H76.1143V91.0582Z" fill="white"/>
<path d="M70.5745 91.0582H75.0754V86.211H70.5745V91.0582Z" fill="white"/>
<path d="M75.5947 97.8097C73.8506 97.8077 72.1785 97.114 70.9453 95.8807C69.712 94.6475 69.0183 92.9754 69.0164 91.2313V91.0582C69.0168 90.6451 69.1811 90.2491 69.4732 89.957C69.7653 89.6649 70.1613 89.5006 70.5744 89.5002H80.615C81.0281 89.5006 81.4241 89.6649 81.7162 89.957C82.0083 90.2491 82.1726 90.6451 82.1731 91.0582V91.2313C82.1711 92.9754 81.4774 94.6475 80.2441 95.8807C79.0109 97.114 77.3388 97.8077 75.5947 97.8097Z" fill="#CCCCCC"/>
<path d="M80.8796 86.3841H70.31C70.1624 86.3841 70.0173 86.3464 69.8884 86.2745C69.7595 86.2027 69.6512 86.0991 69.5736 85.9736C69.496 85.848 69.4518 85.7048 69.4452 85.5574C69.4386 85.41 69.4698 85.2633 69.5358 85.1314L71.6131 80.9766C71.6846 80.8325 71.795 80.7113 71.9318 80.6267C72.0687 80.5421 72.2265 80.4976 72.3873 80.4982H78.8022C78.9631 80.4976 79.1209 80.5421 79.2577 80.6267C79.3945 80.7113 79.5049 80.8325 79.5764 80.9766L81.6538 85.1314C81.7198 85.2633 81.7509 85.41 81.7443 85.5574C81.7377 85.7048 81.6935 85.848 81.6159 85.9736C81.5384 86.0991 81.43 86.2027 81.3011 86.2745C81.1722 86.3464 81.0271 86.3841 80.8796 86.3841Z" fill="#131529"/>
<path d="M111.083 97.9828H99.6577V104.215H111.083V97.9828Z" fill="#CCCCCC"/>
<path d="M104.851 99.3677H100.35V104.215H104.851V99.3677Z" fill="white"/>
<path d="M110.391 99.3677H105.89V104.215H110.391V99.3677Z" fill="white"/>
<path d="M100.35 103.003C100.029 103.003 99.7212 103.131 99.494 103.358C99.2668 103.586 99.139 103.894 99.1387 104.215V104.388C99.1387 106.041 99.7953 107.626 100.964 108.795C102.133 109.963 103.718 110.62 105.371 110.62C107.024 110.62 108.609 109.963 109.778 108.795C110.946 107.626 111.603 106.041 111.603 104.388V104.215C111.603 103.894 111.475 103.586 111.248 103.358C111.02 103.131 110.712 103.003 110.391 103.003H100.35Z" fill="#CCCCCC"/>
<path d="M102.163 94.0012C102.067 94.0008 101.972 94.0276 101.89 94.0783C101.808 94.129 101.742 94.2018 101.699 94.2882L99.6213 98.443C99.5817 98.5221 99.563 98.6101 99.5669 98.6986C99.5709 98.787 99.5974 98.873 99.6439 98.9483C99.6905 99.0236 99.7555 99.0858 99.8328 99.1289C99.9102 99.172 99.9972 99.1946 100.086 99.1946H110.655C110.744 99.1946 110.831 99.172 110.908 99.1289C110.986 99.0858 111.051 99.0236 111.097 98.9483C111.144 98.873 111.17 98.787 111.174 98.6986C111.178 98.6101 111.159 98.5221 111.12 98.443L109.042 94.2882C109 94.2018 108.933 94.129 108.851 94.0783C108.769 94.0276 108.675 94.0008 108.578 94.0012H102.163Z" fill="#131529"/>
<path d="M183.171 111.486C183.263 111.486 183.351 111.449 183.416 111.384C183.481 111.319 183.518 111.231 183.518 111.139C183.518 111.048 183.481 110.96 183.416 110.895C183.351 110.83 183.263 110.793 183.171 110.793H179.882V109.408H183.171C183.263 109.408 183.351 109.372 183.416 109.307C183.481 109.242 183.518 109.154 183.518 109.062C183.518 108.97 183.481 108.882 183.416 108.817C183.351 108.752 183.263 108.716 183.171 108.716H155.127C155.035 108.716 154.947 108.752 154.882 108.817C154.817 108.882 154.781 108.97 154.781 109.062C154.781 109.154 154.817 109.242 154.882 109.307C154.947 109.372 155.035 109.408 155.127 109.408H158.416V110.793H155.127C155.035 110.793 154.947 110.83 154.882 110.895C154.817 110.96 154.781 111.048 154.781 111.139C154.781 111.231 154.817 111.319 154.882 111.384C154.947 111.449 155.035 111.486 155.127 111.486H158.416V112.871H155.127C155.035 112.871 154.947 112.907 154.882 112.972C154.817 113.037 154.781 113.125 154.781 113.217C154.781 113.309 154.817 113.397 154.882 113.462C154.947 113.527 155.035 113.563 155.127 113.563H158.416V114.948H155.473C155.289 114.948 155.113 115.021 154.983 115.151C154.853 115.281 154.781 115.457 154.781 115.64C154.781 115.824 154.853 116 154.983 116.13C155.113 116.26 155.289 116.333 155.473 116.333H158.275C158.254 116.388 158.243 116.447 158.243 116.506V121.353C158.243 121.491 158.298 121.623 158.395 121.72C158.492 121.818 158.624 121.873 158.762 121.873C158.9 121.873 159.032 121.818 159.129 121.72C159.227 121.623 159.281 121.491 159.281 121.353V116.506C159.281 116.447 159.27 116.388 159.25 116.333H179.048C179.028 116.388 179.017 116.447 179.017 116.506V121.353C179.017 121.491 179.071 121.623 179.169 121.72C179.266 121.818 179.398 121.873 179.536 121.873C179.674 121.873 179.806 121.818 179.903 121.72C180.001 121.623 180.055 121.491 180.055 121.353V116.506C180.055 116.447 180.044 116.388 180.023 116.333H182.825C183.009 116.333 183.185 116.26 183.315 116.13C183.445 116 183.518 115.824 183.518 115.64C183.518 115.457 183.445 115.281 183.315 115.151C183.185 115.021 183.009 114.948 182.825 114.948H179.882V113.563H183.171C183.263 113.563 183.351 113.527 183.416 113.462C183.481 113.397 183.518 113.309 183.518 113.217C183.518 113.125 183.481 113.037 183.416 112.972C183.351 112.907 183.263 112.871 183.171 112.871H179.882V111.486H183.171ZM159.108 109.408H179.19V110.793H159.108V109.408ZM179.19 114.948H159.108V113.563H179.19V114.948ZM179.19 112.871H159.108V111.486H179.19V112.871Z" fill="#3F3D56"/>
<path d="M65.4535 111.486C65.5453 111.486 65.6334 111.449 65.6983 111.384C65.7633 111.319 65.7997 111.231 65.7997 111.139C65.7997 111.048 65.7633 110.96 65.6983 110.895C65.6334 110.83 65.5453 110.793 65.4535 110.793H62.1643V109.408H65.4535C65.5453 109.408 65.6334 109.372 65.6983 109.307C65.7633 109.242 65.7997 109.154 65.7997 109.062C65.7997 108.97 65.7633 108.882 65.6983 108.817C65.6334 108.752 65.5453 108.716 65.4535 108.716H37.409C37.3171 108.716 37.2291 108.752 37.1642 108.817C37.0992 108.882 37.0627 108.97 37.0627 109.062C37.0627 109.154 37.0992 109.242 37.1642 109.307C37.2291 109.372 37.3171 109.408 37.409 109.408H40.6981V110.793H37.409C37.3171 110.793 37.2291 110.83 37.1642 110.895C37.0992 110.96 37.0627 111.048 37.0627 111.139C37.0627 111.231 37.0992 111.319 37.1642 111.384C37.2291 111.449 37.3171 111.486 37.409 111.486H40.6981V112.871H37.409C37.3171 112.871 37.2291 112.907 37.1642 112.972C37.0992 113.037 37.0627 113.125 37.0627 113.217C37.0627 113.309 37.0992 113.397 37.1642 113.462C37.2291 113.527 37.3171 113.563 37.409 113.563H40.6981V114.948H37.7552C37.5716 114.948 37.3954 115.021 37.2656 115.151C37.1357 115.281 37.0627 115.457 37.0627 115.64C37.0627 115.824 37.1357 116 37.2656 116.13C37.3954 116.26 37.5716 116.333 37.7552 116.333H40.5568C40.5364 116.388 40.5256 116.447 40.525 116.506V121.353C40.525 121.491 40.5798 121.623 40.6772 121.72C40.7745 121.818 40.9066 121.873 41.0444 121.873C41.1821 121.873 41.3142 121.818 41.4116 121.72C41.509 121.623 41.5637 121.491 41.5637 121.353V116.506C41.5631 116.447 41.5524 116.388 41.5319 116.333H61.3305C61.3101 116.388 61.2994 116.447 61.2988 116.506V121.353C61.2988 121.491 61.3535 121.623 61.4509 121.72C61.5483 121.818 61.6804 121.873 61.8181 121.873C61.9559 121.873 62.0879 121.818 62.1853 121.72C62.2827 121.623 62.3375 121.491 62.3375 121.353V116.506C62.3369 116.447 62.3261 116.388 62.3057 116.333H65.1073C65.2909 116.333 65.4671 116.26 65.5969 116.13C65.7268 116 65.7997 115.824 65.7997 115.64C65.7997 115.457 65.7268 115.281 65.5969 115.151C65.4671 115.021 65.2909 114.948 65.1073 114.948H62.1643V113.563H65.4535C65.5453 113.563 65.6334 113.527 65.6983 113.462C65.7633 113.397 65.7997 113.309 65.7997 113.217C65.7997 113.125 65.7633 113.037 65.6983 112.972C65.6334 112.907 65.5453 112.871 65.4535 112.871H62.1643V111.486H65.4535ZM41.3906 109.408H61.4719V110.793H41.3906V109.408ZM61.4719 114.948H41.3906V113.563H61.4719V114.948ZM61.4719 112.871H41.3906V111.486H61.4719V112.871Z" fill="#3F3D56"/>
<path d="M174.515 109.581H173.477C173.339 109.581 173.207 109.526 173.11 109.429C173.012 109.332 172.957 109.2 172.957 109.062V108.023C172.957 107.886 173.012 107.754 173.11 107.656C173.207 107.559 173.339 107.504 173.477 107.504H174.515C174.653 107.504 174.785 107.559 174.882 107.656C174.98 107.754 175.034 107.886 175.035 108.023V109.062C175.034 109.2 174.98 109.332 174.882 109.429C174.785 109.526 174.653 109.581 174.515 109.581Z" fill="#CCCCCC"/>
<path d="M174.016 108.437C173.996 108.437 173.976 108.435 173.957 108.432C173.912 108.424 173.869 108.408 173.83 108.383C173.792 108.359 173.759 108.328 173.732 108.29C173.706 108.253 173.688 108.211 173.677 108.167C173.667 108.123 173.666 108.077 173.674 108.032L177.098 88.1078C177.114 88.0174 177.165 87.937 177.24 87.8842C177.315 87.8313 177.407 87.8104 177.498 87.8259C177.588 87.8415 177.669 87.8922 177.722 87.9671C177.775 88.0419 177.796 88.1347 177.781 88.2251L174.356 108.149C174.343 108.23 174.301 108.303 174.238 108.355C174.176 108.408 174.097 108.437 174.016 108.437Z" fill="#CCCCCC"/>
<path d="M174.015 108.437C173.933 108.437 173.854 108.408 173.792 108.355C173.73 108.303 173.688 108.23 173.674 108.149L170.25 88.2251C170.234 88.1346 170.255 88.0416 170.308 87.9666C170.361 87.8916 170.442 87.8408 170.532 87.8252C170.623 87.8096 170.716 87.8307 170.791 87.8837C170.866 87.9366 170.917 88.0173 170.932 88.1078L174.356 108.032C174.364 108.077 174.363 108.123 174.353 108.167C174.343 108.211 174.324 108.253 174.298 108.29C174.272 108.328 174.238 108.359 174.2 108.383C174.161 108.408 174.119 108.424 174.074 108.432C174.054 108.435 174.035 108.437 174.015 108.437Z" fill="#CCCCCC"/>
<path d="M181.387 84.6973C181.72 82.3328 180.458 80.1996 178.566 79.9326C176.674 79.6655 174.87 81.3659 174.537 83.7303C174.255 85.7245 175.111 87.5495 176.521 88.2339L176.44 88.8023L178.153 89.0441L178.233 88.4756C179.777 88.2081 181.105 86.6915 181.387 84.6973Z" fill="#FF6584"/>
<path d="M173.435 83.6213C173.025 81.2688 171.167 79.6275 169.285 79.9553C167.403 80.2831 166.21 82.4559 166.619 84.8084C166.965 86.7925 168.341 88.2655 169.893 88.4832L169.991 89.0488L171.695 88.752L171.597 88.1864C172.983 87.457 173.78 85.6054 173.435 83.6213Z" fill="#CCCCCC"/>
<path d="M173.996 108.023C173.904 108.023 173.816 107.987 173.751 107.922C173.686 107.857 173.65 107.769 173.65 107.677V87.195C173.65 87.1032 173.686 87.0152 173.751 86.9502C173.816 86.8853 173.904 86.8488 173.996 86.8488C174.088 86.8488 174.176 86.8853 174.241 86.9502C174.306 87.0152 174.342 87.1032 174.342 87.195V107.677C174.342 107.769 174.306 107.857 174.241 107.922C174.176 107.987 174.088 108.023 173.996 108.023Z" fill="#CCCCCC"/>
<path d="M177.241 83.2608C177.241 80.8729 175.692 78.9371 173.782 78.9371C171.871 78.9371 170.323 80.8729 170.323 83.2608C170.323 85.2747 171.426 86.9621 172.917 87.4428V88.0168H174.646V87.4428C176.138 86.9621 177.241 85.2747 177.241 83.2608Z" fill="#131529"/>
<path d="M245.99 122.405H0.412246C0.302911 122.405 0.198055 122.361 0.120744 122.284C0.0434323 122.207 0 122.102 0 121.993C0 121.883 0.0434323 121.778 0.120744 121.701C0.198055 121.624 0.302911 121.58 0.412246 121.58H245.99C246.1 121.58 246.204 121.624 246.282 121.701C246.359 121.778 246.403 121.883 246.403 121.993C246.403 122.102 246.359 122.207 246.282 122.284C246.204 122.361 246.1 122.405 245.99 122.405Z" fill="#CCCCCC"/>
<path d="M191.629 121.667L190.841 121.667L190.467 118.629H191.629V121.667Z" fill="#A0616A"/>
<path d="M190.167 121.442H191.798V122.398H189.323V122.286C189.323 122.175 189.344 122.065 189.387 121.963C189.429 121.861 189.491 121.768 189.57 121.689C189.648 121.611 189.741 121.549 189.844 121.506C189.946 121.464 190.056 121.442 190.167 121.442Z" fill="#2F2E41"/>
<path d="M197.343 120.775L196.626 121.102L195.024 118.495L196.081 118.012L197.343 120.775Z" fill="#A0616A"/>
<path d="M195.919 121.178L197.403 120.5L197.8 121.37L195.549 122.398L195.502 122.296C195.456 122.195 195.43 122.087 195.426 121.976C195.422 121.865 195.44 121.755 195.479 121.651C195.518 121.547 195.576 121.452 195.652 121.37C195.728 121.289 195.818 121.224 195.919 121.178Z" fill="#2F2E41"/>
<path d="M191.579 120.866H190.827C190.754 120.866 190.683 120.838 190.63 120.788C190.577 120.739 190.544 120.671 190.538 120.598L190.128 109.642C190.125 109.6 190.131 109.558 190.146 109.519C190.161 109.479 190.184 109.444 190.214 109.414C190.245 109.385 190.281 109.363 190.32 109.349C190.36 109.335 190.402 109.33 190.444 109.334L194.795 109.796C194.866 109.803 194.931 109.835 194.979 109.887C195.027 109.939 195.055 110.007 195.056 110.078L195.147 114.911C195.148 114.937 195.153 114.963 195.162 114.987L196.947 119.616C196.961 119.651 196.967 119.689 196.966 119.728C196.965 119.766 196.957 119.804 196.941 119.839C196.925 119.874 196.902 119.905 196.874 119.931C196.846 119.957 196.813 119.978 196.777 119.991L196.015 120.272C195.949 120.296 195.876 120.295 195.81 120.27C195.744 120.244 195.69 120.195 195.658 120.133L193.466 115.869C193.454 115.846 193.445 115.822 193.44 115.796L193.065 113.991C193.054 113.939 193.025 113.892 192.983 113.86C192.941 113.827 192.888 113.81 192.835 113.813C192.781 113.815 192.731 113.836 192.692 113.873C192.652 113.909 192.628 113.958 192.622 114.012L191.866 120.61C191.858 120.681 191.824 120.746 191.771 120.793C191.718 120.84 191.65 120.866 191.579 120.866Z" fill="#2F2E41"/>
<path d="M191.953 101.076C192.824 101.076 193.531 100.37 193.531 99.4983C193.531 98.6269 192.824 97.9206 191.953 97.9206C191.082 97.9206 190.375 98.6269 190.375 99.4983C190.375 100.37 191.082 101.076 191.953 101.076Z" fill="#A0616A"/>
<path d="M193.041 110.642C192.024 110.629 191.028 110.345 190.157 109.818C190.112 109.79 190.076 109.751 190.052 109.704C190.028 109.657 190.017 109.605 190.021 109.552L190.405 104.068C190.43 103.698 190.54 103.339 190.729 103.019C190.917 102.7 191.177 102.429 191.489 102.228C191.787 102.031 192.127 101.906 192.482 101.864C192.836 101.821 193.196 101.863 193.532 101.984C193.68 102.035 193.82 102.108 193.947 102.2C194.356 102.491 194.677 102.889 194.875 103.35C195.073 103.811 195.141 104.318 195.071 104.815C194.789 106.948 195.108 109.827 195.145 110.148L195.148 110.171L195.127 110.181C194.474 110.485 193.762 110.642 193.041 110.642Z" fill="#131529"/>
<path d="M195.05 111.425C195.125 111.369 195.187 111.296 195.232 111.213C195.276 111.129 195.301 111.037 195.306 110.943C195.311 110.848 195.295 110.754 195.26 110.667C195.224 110.579 195.17 110.501 195.101 110.436L196.027 108.336L194.851 108.535L194.152 110.499C194.052 110.622 194 110.778 194.007 110.937C194.014 111.096 194.079 111.247 194.189 111.361C194.3 111.475 194.449 111.545 194.607 111.557C194.766 111.568 194.923 111.522 195.05 111.425Z" fill="#A0616A"/>
<path d="M195.138 110.128C195.098 110.128 195.058 110.119 195.022 110.103C194.985 110.087 194.952 110.064 194.925 110.034L194.58 109.658C194.547 109.621 194.523 109.576 194.512 109.527C194.501 109.479 194.502 109.428 194.516 109.38L195.306 106.705L194.104 104.18C194.051 104.069 194.038 103.943 194.067 103.823C194.093 103.719 194.15 103.624 194.23 103.552C194.311 103.48 194.411 103.434 194.518 103.421C194.625 103.407 194.734 103.426 194.83 103.476C194.926 103.525 195.004 103.602 195.056 103.697L196.681 106.335C196.745 106.438 196.782 106.554 196.789 106.674C196.797 106.794 196.775 106.915 196.726 107.024L195.402 109.958C195.382 110.001 195.352 110.039 195.314 110.068C195.276 110.097 195.231 110.117 195.184 110.124C195.169 110.127 195.153 110.128 195.138 110.128Z" fill="#131529"/>
<path d="M193.253 100.889C193.089 100.917 192.955 100.69 192.934 100.529C192.936 100.371 192.951 100.213 192.979 100.057C192.988 99.9738 192.97 99.8901 192.928 99.8181C192.886 99.746 192.822 99.6896 192.745 99.657C192.572 99.6075 192.411 99.7465 192.234 99.7298C191.986 99.7065 191.862 99.4172 191.832 99.1832C191.802 98.9493 191.779 98.6722 191.565 98.5387C191.352 98.4057 191.088 98.5025 190.842 98.5066C190.633 98.5043 190.429 98.4353 190.261 98.3096C190.094 98.1839 189.97 98.0081 189.909 97.8076C189.959 97.8221 190.013 97.8194 190.062 97.7999C190.11 97.7805 190.151 97.7454 190.177 97.7002C190.198 97.652 190.202 97.5983 190.189 97.5474C190.176 97.4965 190.147 97.4514 190.106 97.419L190.576 97.649C190.564 97.6165 190.559 97.582 190.561 97.5475C190.563 97.513 190.572 97.4793 190.587 97.4484C190.603 97.4176 190.625 97.3903 190.651 97.3682C190.678 97.3461 190.709 97.3297 190.742 97.32C190.884 97.2823 191.034 97.2808 191.178 97.3156C191.913 97.4299 192.765 97.3736 193.253 97.9344C193.621 98.3893 193.825 98.9551 193.831 99.5403C193.714 100.019 193.519 100.475 193.253 100.889Z" fill="#2F2E41"/>
<path d="M184.888 103.579C184.97 103.532 185.061 103.504 185.155 103.496C185.249 103.489 185.344 103.502 185.432 103.535C185.521 103.567 185.601 103.619 185.667 103.687C185.734 103.754 185.784 103.835 185.816 103.924L188.111 103.907L187.462 104.908L185.382 104.77C185.229 104.813 185.065 104.799 184.922 104.73C184.779 104.66 184.666 104.541 184.605 104.394C184.545 104.247 184.54 104.083 184.592 103.933C184.644 103.782 184.749 103.657 184.888 103.579Z" fill="#A0616A"/>
<path d="M186.082 104.669C186.074 104.63 186.074 104.59 186.082 104.55C186.091 104.511 186.107 104.474 186.13 104.442L186.429 104.027C186.458 103.987 186.497 103.955 186.542 103.934C186.587 103.913 186.637 103.904 186.687 103.908L189.372 103.795L191.694 102.444C191.792 102.37 191.913 102.331 192.036 102.335C192.143 102.339 192.248 102.375 192.334 102.44C192.421 102.504 192.486 102.593 192.522 102.695C192.557 102.797 192.56 102.907 192.532 103.011C192.503 103.115 192.443 103.208 192.361 103.277L190.11 105.407C190.022 105.49 189.916 105.55 189.8 105.582C189.684 105.614 189.562 105.617 189.444 105.591L186.302 104.893C186.256 104.882 186.212 104.861 186.176 104.829C186.14 104.798 186.112 104.758 186.095 104.714C186.089 104.699 186.085 104.684 186.082 104.669Z" fill="#131529"/>
<path d="M146.612 120.373C146.644 120.282 146.656 120.184 146.647 120.087C146.638 119.991 146.607 119.897 146.558 119.813C146.509 119.73 146.441 119.658 146.361 119.603C146.281 119.548 146.19 119.511 146.094 119.495L145.695 117.165L144.799 118.005L145.315 120.088C145.299 120.251 145.343 120.414 145.439 120.547C145.535 120.679 145.677 120.772 145.837 120.807C145.996 120.842 146.164 120.817 146.307 120.738C146.449 120.658 146.558 120.528 146.612 120.373Z" fill="#FFB8B8"/>
<path d="M146.016 119.259L145.136 119.49C145.094 119.501 145.049 119.495 145.012 119.473C144.974 119.452 144.947 119.417 144.935 119.375L143.353 113.771L142.875 112.342C142.829 112.204 142.819 112.057 142.845 111.914C142.871 111.771 142.933 111.637 143.025 111.524C143.116 111.412 143.235 111.324 143.37 111.27C143.505 111.216 143.651 111.196 143.795 111.214C143.962 111.234 144.119 111.302 144.248 111.411C144.376 111.519 144.47 111.663 144.518 111.824L145.781 116.096L146.138 119.079C146.142 119.113 146.136 119.146 146.12 119.176C146.105 119.205 146.081 119.23 146.051 119.245C146.04 119.251 146.028 119.256 146.016 119.259Z" fill="#131529"/>
<path d="M142.799 110.269C143.696 110.269 144.424 109.541 144.424 108.644C144.424 107.747 143.696 107.02 142.799 107.02C141.902 107.02 141.175 107.747 141.175 108.644C141.175 109.541 141.902 110.269 142.799 110.269Z" fill="#FFB8B8"/>
<path d="M138.016 130.866L137.239 130.635L137.761 127.527L138.908 127.869L138.016 130.866Z" fill="#FFB8B8"/>
<path d="M137.99 131.678L135.485 130.933L135.494 130.901C135.532 130.773 135.595 130.654 135.679 130.55C135.764 130.446 135.867 130.36 135.985 130.296C136.102 130.233 136.231 130.193 136.364 130.179C136.497 130.165 136.631 130.178 136.76 130.216H136.76L138.29 130.671L137.99 131.678Z" fill="#2F2E41"/>
<path d="M146.531 130.826L145.72 130.826L145.334 127.699L146.134 127.699L146.531 130.826Z" fill="#FFB8B8"/>
<path d="M146.737 131.612L144.123 131.612V131.579C144.123 131.445 144.149 131.313 144.201 131.19C144.252 131.066 144.327 130.954 144.421 130.859C144.516 130.765 144.628 130.69 144.751 130.639C144.875 130.588 145.007 130.561 145.141 130.561H145.141L146.738 130.561L146.737 131.612Z" fill="#2F2E41"/>
<path d="M138.315 129.947H137.501C137.458 129.947 137.414 129.937 137.375 129.918C137.335 129.9 137.3 129.873 137.272 129.839C137.245 129.806 137.224 129.767 137.213 129.724C137.202 129.682 137.201 129.638 137.208 129.595C136.689 129.364 139.485 115.959 140.145 116.219L140.167 116.187L143.493 116.459C144.982 119.44 145.925 124.373 146.808 129.524C146.819 129.566 146.82 129.611 146.811 129.654C146.803 129.698 146.785 129.738 146.758 129.774C146.732 129.809 146.698 129.838 146.66 129.859C146.621 129.88 146.578 129.892 146.534 129.894L145.619 129.938C145.557 129.942 145.496 129.925 145.443 129.892C145.391 129.858 145.351 129.809 145.328 129.752L141.824 120.991C141.817 120.972 141.804 120.955 141.787 120.944C141.77 120.933 141.75 120.927 141.729 120.928C141.709 120.929 141.689 120.935 141.673 120.947C141.656 120.959 141.644 120.976 141.638 120.995L138.596 129.747C138.576 129.805 138.538 129.856 138.488 129.891C138.437 129.927 138.377 129.947 138.315 129.947Z" fill="#2F2E41"/>
<path d="M143.562 116.721L143.537 116.719L139.996 116.452L140.617 112.501C140.685 112.06 140.894 111.653 141.213 111.341C141.531 111.028 141.942 110.827 142.384 110.768C142.411 110.764 142.439 110.76 142.466 110.756C142.814 110.711 143.167 110.755 143.492 110.885C143.818 111.016 144.104 111.227 144.324 111.5C144.549 111.774 144.7 112.102 144.762 112.451C144.824 112.801 144.795 113.16 144.678 113.495L143.562 116.721Z" fill="#131529"/>
<path d="M145.954 110.502C144.837 111.013 143.321 110.922 141.589 110.502C141.828 109.845 142.015 109.211 141.803 108.746C141.718 108.57 141.669 108.378 141.661 108.183C141.653 107.987 141.686 107.793 141.757 107.61C141.923 107.213 142.203 106.874 142.561 106.635C142.92 106.397 143.341 106.269 143.771 106.269C144.35 106.269 144.905 106.499 145.314 106.909C145.724 107.318 145.954 107.873 145.954 108.452L145.954 110.502Z" fill="#2F2E41"/>
<path d="M142.371 106.418H143.573V108.126H140.663C140.663 107.902 140.707 107.679 140.793 107.472C140.878 107.265 141.004 107.077 141.163 106.918C141.321 106.76 141.51 106.634 141.717 106.548C141.924 106.462 142.146 106.418 142.371 106.418Z" fill="#2F2E41"/>
<path d="M139.92 120.741C139.991 120.675 140.048 120.595 140.085 120.505C140.122 120.415 140.139 120.318 140.135 120.221C140.13 120.124 140.105 120.029 140.06 119.943C140.014 119.856 139.951 119.781 139.874 119.722L140.613 117.477L139.428 117.799L138.907 119.881C138.817 120.018 138.78 120.182 138.802 120.344C138.825 120.507 138.907 120.655 139.032 120.761C139.156 120.867 139.316 120.923 139.479 120.919C139.643 120.916 139.8 120.852 139.92 120.741Z" fill="#FFB8B8"/>
<path d="M139.916 119.477L139.03 119.269C138.988 119.259 138.951 119.233 138.928 119.196C138.905 119.159 138.897 119.115 138.906 119.073L140.135 113.381L140.383 111.895C140.407 111.751 140.467 111.616 140.557 111.502C140.647 111.388 140.764 111.299 140.898 111.243C141.032 111.186 141.178 111.165 141.322 111.18C141.466 111.195 141.605 111.246 141.724 111.329C141.862 111.425 141.969 111.56 142.031 111.716C142.094 111.872 142.11 112.042 142.076 112.207L141.191 116.573L140.108 119.376C140.096 119.407 140.074 119.434 140.047 119.453C140.019 119.471 139.987 119.482 139.953 119.482C139.941 119.482 139.928 119.48 139.916 119.477Z" fill="#131529"/>
<path d="M167.29 107.107C167.256 107.116 167.223 107.127 167.19 107.141L164.529 105.425L164.566 104.656L163.413 104.449L163.216 105.803C163.2 105.913 163.22 106.024 163.273 106.121C163.326 106.218 163.409 106.296 163.509 106.342L166.787 107.838C166.803 107.973 166.86 108.1 166.951 108.202C167.041 108.304 167.16 108.376 167.292 108.408C167.424 108.441 167.563 108.433 167.691 108.384C167.818 108.336 167.927 108.25 168.005 108.138C168.082 108.026 168.123 107.893 168.123 107.757C168.123 107.621 168.081 107.488 168.004 107.376C167.926 107.264 167.816 107.178 167.689 107.13C167.562 107.082 167.423 107.074 167.29 107.107H167.29Z" fill="#FFB8B8"/>
<path d="M164.42 105.377L162.993 105.114C162.953 105.106 162.914 105.09 162.88 105.067C162.847 105.043 162.818 105.012 162.797 104.976C162.777 104.941 162.764 104.901 162.759 104.86C162.755 104.819 162.76 104.777 162.774 104.738L163.242 103.369C163.281 103.161 163.401 102.977 163.576 102.858C163.75 102.738 163.965 102.693 164.173 102.732C164.381 102.771 164.565 102.891 164.685 103.066C164.804 103.241 164.85 103.456 164.811 103.664L164.76 105.105C164.758 105.146 164.748 105.187 164.729 105.224C164.711 105.261 164.685 105.293 164.653 105.319C164.62 105.345 164.583 105.363 164.543 105.373C164.503 105.383 164.461 105.385 164.42 105.377Z" fill="#3F3D56"/>
<path d="M169.383 101.664C169.375 101.698 169.37 101.734 169.368 101.769L166.625 103.351L165.958 102.967L165.247 103.898L166.362 104.692C166.452 104.756 166.56 104.79 166.671 104.787C166.781 104.784 166.888 104.746 166.975 104.677L169.803 102.446C169.931 102.493 170.07 102.5 170.202 102.467C170.334 102.433 170.452 102.36 170.542 102.257C170.631 102.155 170.687 102.027 170.702 101.892C170.717 101.757 170.691 101.62 170.626 101.5C170.562 101.38 170.463 101.283 170.342 101.22C170.22 101.158 170.083 101.135 169.948 101.153C169.813 101.17 169.687 101.229 169.586 101.32C169.485 101.412 169.414 101.532 169.383 101.664L169.383 101.664Z" fill="#FFB8B8"/>
<path d="M166.533 103.426L165.647 104.575C165.621 104.608 165.589 104.635 165.553 104.654C165.516 104.673 165.476 104.684 165.435 104.687C165.393 104.689 165.352 104.682 165.314 104.667C165.275 104.652 165.241 104.629 165.212 104.599L164.208 103.557C164.041 103.427 163.932 103.236 163.906 103.026C163.879 102.816 163.938 102.604 164.067 102.437C164.197 102.27 164.388 102.161 164.598 102.135C164.808 102.108 165.02 102.166 165.187 102.296L166.446 103C166.482 103.02 166.513 103.048 166.538 103.081C166.562 103.114 166.579 103.153 166.587 103.193C166.595 103.234 166.595 103.275 166.586 103.316C166.576 103.356 166.558 103.394 166.533 103.426V103.426Z" fill="#CCCCCC"/>
<path d="M162.902 100.683C163.769 100.683 164.471 99.9804 164.471 99.1142C164.471 98.248 163.769 97.5458 162.902 97.5458C162.036 97.5458 161.334 98.248 161.334 99.1142C161.334 99.9804 162.036 100.683 162.902 100.683Z" fill="#FFB8B8"/>
<path d="M164.383 121.571H165.166L165.538 118.552H164.383L164.383 121.571Z" fill="#FFB8B8"/>
<path d="M164.183 121.316L165.725 121.316H165.725C165.854 121.316 165.982 121.341 166.101 121.39C166.22 121.44 166.329 121.512 166.42 121.603C166.511 121.695 166.584 121.803 166.633 121.922C166.682 122.041 166.708 122.169 166.708 122.298V122.33L164.183 122.33L164.183 121.316Z" fill="#2F2E41"/>
<path d="M161.701 121.571H162.484L162.856 118.552H161.701V121.571Z" fill="#FFB8B8"/>
<path d="M161.501 121.316L163.043 121.316H163.043C163.172 121.316 163.3 121.341 163.419 121.39C163.538 121.44 163.647 121.512 163.738 121.603C163.829 121.695 163.901 121.803 163.951 121.922C164 122.041 164.026 122.169 164.026 122.298V122.33L161.501 122.33L161.501 121.316Z" fill="#2F2E41"/>
<path d="M164.148 120.425L163.349 114.247C163.349 114.238 163.345 114.231 163.339 114.225C163.333 114.22 163.325 114.217 163.317 114.217C163.313 114.217 163.309 114.217 163.305 114.219C163.301 114.22 163.298 114.223 163.295 114.226C163.292 114.228 163.29 114.232 163.288 114.236C163.286 114.239 163.286 114.243 163.286 114.248L163.056 120.336C163.054 120.411 163.022 120.481 162.969 120.533C162.915 120.585 162.843 120.613 162.769 120.613H161.821C161.746 120.613 161.673 120.584 161.62 120.532C161.566 120.479 161.535 120.408 161.534 120.333L161.287 110.188L165.531 110.23L165.637 120.408C165.636 120.448 165.627 120.488 165.609 120.524C165.592 120.561 165.567 120.593 165.536 120.62C165.506 120.646 165.471 120.665 165.433 120.676C165.395 120.688 165.355 120.691 165.315 120.686L164.396 120.689C164.331 120.68 164.27 120.649 164.225 120.601C164.18 120.553 164.153 120.491 164.148 120.425Z" fill="#2F2E41"/>
<path d="M161.225 110.465C161.177 110.447 161.135 110.417 161.103 110.377C161.072 110.337 161.051 110.29 161.043 110.24L161.001 104.664C160.813 103.423 160.591 102.207 161.677 101.578L161.772 101.291C161.783 101.26 161.803 101.233 161.829 101.213C161.855 101.194 161.887 101.183 161.919 101.182L163.978 101.123C164.01 101.122 164.042 101.13 164.069 101.148C164.096 101.165 164.117 101.19 164.13 101.219L164.283 101.577L164.337 101.608C164.854 101.903 165.273 102.343 165.541 102.875C165.809 103.407 165.915 104.006 165.844 104.597L165.726 105.591L165.643 110.236C165.642 110.287 165.627 110.337 165.601 110.38C165.574 110.424 165.537 110.46 165.492 110.484C164.91 110.787 164.26 110.938 163.604 110.924C162.79 110.909 161.985 110.754 161.225 110.465Z" fill="#CCCCCC"/>
<path d="M162.851 100.741C162.615 100.746 162.381 100.701 162.163 100.609C161.946 100.517 161.75 100.38 161.59 100.207C161.429 100.034 161.307 99.8292 161.231 99.6056C161.155 99.382 161.127 99.1449 161.149 98.9099C161.172 98.6748 161.243 98.4471 161.36 98.2418C161.476 98.0364 161.635 97.8581 161.825 97.7184C162.016 97.5788 162.234 97.481 162.464 97.4315C162.695 97.382 162.934 97.3819 163.165 97.4313C163.505 97.2077 163.907 97.0976 164.313 97.1168C164.515 97.1295 164.71 97.1965 164.877 97.3107C165.044 97.4249 165.177 97.5821 165.263 97.7657C165.338 97.953 165.341 98.162 165.27 98.3511C165.198 98.5402 165.058 98.6955 164.878 98.786C164.628 98.8581 164.363 98.8619 164.112 98.7969C163.859 98.7321 163.592 98.7557 163.355 98.8638C163.132 98.9957 163.032 99.3494 163.231 99.5144C163.337 99.6053 163.412 99.7262 163.448 99.8611C163.483 99.9959 163.476 100.138 163.428 100.269C163.382 100.391 163.304 100.499 163.203 100.582C163.101 100.664 162.98 100.719 162.851 100.741Z" fill="#2F2E41"/>
<path d="M71.8995 130.797H72.6626L73.0255 127.854H71.8992L71.8995 130.797Z" fill="#FFB8B8"/>
<path d="M71.5631 131.678L71.563 130.406L73.2076 130.406C73.4991 130.406 73.7786 130.522 73.9847 130.728C74.1909 130.934 74.3068 131.214 74.3072 131.505V131.678L71.5631 131.678Z" fill="#2F2E41"/>
<path d="M67.7872 130.797H68.55L68.9128 127.854H67.7869L67.7872 130.797Z" fill="#FFB8B8"/>
<path d="M67.4505 131.678L67.4504 130.406L69.095 130.406C69.3865 130.406 69.666 130.522 69.8722 130.728C70.0783 130.934 70.1943 131.214 70.1946 131.505V131.678L67.4505 131.678Z" fill="#2F2E41"/>
<path d="M70.0215 109.875C70.9268 109.875 71.6607 109.142 71.6607 108.236C71.6607 107.331 70.9268 106.597 70.0215 106.597C69.1162 106.597 68.3823 107.331 68.3823 108.236C68.3823 109.142 69.1162 109.875 70.0215 109.875Z" fill="#FFB8B8"/>
<path d="M75.6266 118.926C75.6151 118.836 75.5839 118.749 75.5352 118.671C75.4864 118.594 75.4212 118.528 75.3443 118.478C75.2673 118.429 75.1805 118.397 75.0898 118.385C74.9992 118.372 74.9069 118.38 74.8196 118.407L73.9035 117.309L73.1003 117.703L74.4158 119.236C74.4712 119.379 74.5775 119.498 74.7144 119.568C74.8513 119.639 75.0093 119.657 75.1586 119.619C75.3078 119.581 75.4379 119.489 75.5241 119.362C75.6104 119.234 75.6469 119.079 75.6266 118.926Z" fill="#FFB8B8"/>
<path d="M67.7424 120.037C67.7814 119.954 67.8019 119.864 67.8022 119.773C67.8026 119.681 67.7829 119.591 67.7445 119.508C67.7061 119.425 67.65 119.351 67.5801 119.292C67.5102 119.233 67.4282 119.19 67.3399 119.166L67.156 117.748L66.2668 117.649L66.5547 119.649C66.5244 119.8 66.5505 119.956 66.6282 120.09C66.7058 120.223 66.8295 120.322 66.9759 120.37C67.1223 120.418 67.2812 120.411 67.4225 120.349C67.5637 120.288 67.6776 120.177 67.7424 120.037H67.7424Z" fill="#FFB8B8"/>
<path d="M68.6516 111.332C68.5644 111.22 68.4492 111.133 68.3177 111.08C68.1862 111.027 68.043 111.01 67.9025 111.029C67.7621 111.049 67.6293 111.106 67.5177 111.193C67.406 111.281 67.3195 111.396 67.2667 111.528L65.9231 114.881C65.7858 115.224 65.7421 115.597 65.7963 115.962L66.2339 118.909C66.2396 118.947 66.2533 118.983 66.2743 119.015C66.2953 119.048 66.323 119.075 66.3556 119.095C66.3881 119.116 66.4246 119.129 66.4627 119.134C66.5008 119.139 66.5396 119.136 66.5763 119.125L67.1529 118.948C67.2126 118.929 67.264 118.891 67.2981 118.838C67.3323 118.786 67.347 118.723 67.3397 118.661C67.1362 116.926 67.4051 115.169 68.1181 113.574L68.7515 112.157C68.8112 112.023 68.8335 111.876 68.8159 111.731C68.7983 111.586 68.7415 111.448 68.6516 111.332Z" fill="#CCCCCC"/>
<path d="M69.6224 109.875C69.3757 109.881 69.1306 109.834 68.9034 109.738C68.6761 109.642 68.4717 109.498 68.3037 109.318C68.1357 109.137 68.0078 108.923 67.9285 108.689C67.8492 108.455 67.8202 108.208 67.8435 107.962C67.8668 107.716 67.9418 107.478 68.0636 107.264C68.1853 107.049 68.3512 106.863 68.5501 106.717C68.7491 106.571 68.9767 106.469 69.218 106.417C69.4593 106.365 69.7088 106.365 69.9501 106.417C70.3052 106.183 70.7251 106.068 71.1497 106.088C71.3609 106.101 71.5645 106.171 71.7392 106.291C71.9139 106.41 72.0531 106.574 72.1423 106.766C72.2216 106.962 72.2243 107.18 72.1497 107.378C72.0752 107.576 71.9289 107.738 71.74 107.832C71.4791 107.908 71.2026 107.912 70.9396 107.844C70.6756 107.776 70.3964 107.801 70.1483 107.914C69.9158 108.052 69.8112 108.421 70.0195 108.594C70.1299 108.689 70.2088 108.815 70.2455 108.956C70.2823 109.097 70.2753 109.246 70.2254 109.383C70.1765 109.51 70.0951 109.623 69.9894 109.709C69.8836 109.796 69.7571 109.853 69.6224 109.875Z" fill="#2F2E41"/>
<path d="M67.5887 118.862L67.2979 129.896C67.297 129.933 67.3036 129.97 67.3175 130.004C67.3313 130.038 67.352 130.069 67.3784 130.095C67.4047 130.12 67.4361 130.14 67.4705 130.153C67.5049 130.166 67.5417 130.172 67.5784 130.17L68.5363 130.121C68.5974 130.118 68.6556 130.094 68.7011 130.053C68.7466 130.012 68.7767 129.957 68.7863 129.896L69.9256 122.729C69.9305 122.699 69.9459 122.671 69.9692 122.65C69.9925 122.63 70.0223 122.618 70.0533 122.617C70.0844 122.616 70.1148 122.626 70.1393 122.645C70.1638 122.664 70.181 122.691 70.1877 122.721L71.7299 129.622C71.7382 129.659 71.7541 129.693 71.7768 129.724C71.7995 129.754 71.8283 129.779 71.8614 129.797C71.8945 129.816 71.931 129.827 71.9687 129.83C72.0064 129.833 72.0443 129.828 72.0799 129.815L73.0305 129.757C73.0855 129.738 73.1326 129.701 73.1645 129.652C73.1965 129.603 73.2115 129.545 73.2074 129.487L72.3775 118.757L67.5887 118.862Z" fill="#2F2E41"/>
<path d="M67.122 113.621C67.0814 113.223 67.1204 112.821 67.237 112.438C67.3535 112.056 67.5452 111.7 67.8008 111.392C68.0563 111.085 68.3707 110.831 68.7255 110.647C69.0802 110.462 69.4682 110.35 69.8668 110.317C70.5888 110.266 71.7096 110.247 72.0791 111.194C73.1922 114.044 71.2437 113.975 71.915 116.445C72.5863 118.915 73.1792 119.056 72.2581 119.235C71.337 119.413 67.1948 120.466 67.3649 118.727C67.4694 117.659 67.282 115.289 67.122 113.621Z" fill="#CCCCCC"/>
<path d="M71.882 110.904C71.7497 110.852 71.6062 110.837 71.4661 110.859C71.3259 110.881 71.194 110.94 71.0837 111.029C70.9734 111.118 70.8886 111.235 70.8378 111.367C70.7871 111.5 70.7721 111.643 70.7946 111.783L71.3177 115.053C71.4072 115.612 71.6436 116.137 72.0028 116.575L73.702 118.645C73.7264 118.675 73.7569 118.699 73.7915 118.716C73.826 118.733 73.8638 118.742 73.9022 118.743C73.9407 118.744 73.9788 118.736 74.0141 118.721C74.0494 118.706 74.081 118.683 74.1067 118.655L74.5103 118.207C74.5521 118.16 74.5763 118.101 74.5787 118.038C74.5811 117.976 74.5615 117.914 74.5234 117.865L74.4045 117.711C73.416 116.428 72.7924 114.902 72.5996 113.294L72.3916 111.56C72.3742 111.414 72.3175 111.277 72.2278 111.161C72.138 111.045 72.0185 110.957 71.882 110.904Z" fill="#CCCCCC"/>
<path d="M75.7046 119.686C75.7887 119.644 75.8627 119.585 75.9212 119.511C75.9797 119.438 76.0214 119.352 76.0433 119.261C76.0652 119.169 76.0668 119.074 76.048 118.982C76.0292 118.89 75.9905 118.803 75.9345 118.728L76.4151 114.028H75.3763L74.9943 118.617C74.8738 118.72 74.795 118.863 74.7729 119.019C74.7508 119.176 74.787 119.335 74.8746 119.467C74.9621 119.599 75.095 119.694 75.2479 119.734C75.4009 119.775 75.5634 119.758 75.7046 119.686V119.686Z" fill="#A0616A"/>
<path d="M76.6584 111.434C77.4701 111.434 78.1281 110.776 78.1281 109.965C78.1281 109.153 77.4701 108.495 76.6584 108.495C75.8467 108.495 75.1887 109.153 75.1887 109.965C75.1887 110.776 75.8467 111.434 76.6584 111.434Z" fill="#A0616A"/>
<path d="M76.9352 116.765C76.8764 116.765 76.8192 116.746 76.7724 116.71C76.7256 116.674 76.6918 116.624 76.6762 116.568C76.4295 115.828 76.125 115.109 75.7656 114.418C75.6559 114.192 75.5951 113.945 75.5873 113.694C75.5795 113.444 75.6248 113.194 75.7203 112.962C75.8158 112.729 75.9593 112.52 76.1414 112.347C76.3235 112.174 76.5401 112.042 76.777 111.959C77.0014 111.88 77.2395 111.846 77.4771 111.861C77.7147 111.875 77.947 111.937 78.1603 112.043C78.3736 112.148 78.5635 112.296 78.7188 112.476C78.874 112.656 78.9916 112.866 79.0644 113.093C79.3403 114.046 79.453 115.04 79.3979 116.031C79.3948 116.089 79.3724 116.146 79.3342 116.191C79.296 116.236 79.2441 116.267 79.1864 116.28L76.993 116.759C76.974 116.763 76.9546 116.765 76.9352 116.765Z" fill="#131529"/>
<path d="M79.0594 130.721H79.7931L80.1421 127.891H79.0591L79.0594 130.721Z" fill="#A0616A"/>
<path d="M81.3807 131.575H78.7288L78.7288 130.338H80.3171C80.4567 130.338 80.5951 130.366 80.7241 130.419C80.8532 130.473 80.9705 130.551 81.0692 130.65C81.168 130.749 81.2463 130.866 81.2998 130.995C81.3532 131.124 81.3807 131.263 81.3807 131.402L81.3807 131.575Z" fill="#2F2E41"/>
<path d="M71.7234 129.77L72.3663 130.124L74.0355 127.812L73.0868 127.291L71.7234 129.77Z" fill="#A0616A"/>
<path d="M73.3462 131.637L71.0225 130.36L71.6184 129.276L73.0099 130.041C73.2571 130.177 73.4403 130.405 73.519 130.676C73.5977 130.947 73.5656 131.238 73.4297 131.486L73.3462 131.637Z" fill="#2F2E41"/>
<path d="M79.0249 129.151C78.9595 129.15 78.8964 129.127 78.8473 129.083C78.7982 129.04 78.7665 128.981 78.7581 128.916L77.8406 121.846C77.8366 121.815 77.8227 121.786 77.8011 121.763C77.7795 121.74 77.7511 121.724 77.7202 121.718C77.6892 121.712 77.6571 121.717 77.6286 121.73C77.6001 121.743 77.5765 121.765 77.5613 121.793L73.7377 128.73C73.7061 128.787 73.6553 128.83 73.5944 128.853C73.5336 128.875 73.4667 128.875 73.406 128.852L72.5726 128.534C72.5391 128.522 72.5084 128.502 72.4825 128.478C72.4565 128.453 72.4358 128.423 72.4215 128.39C72.4072 128.357 72.3996 128.322 72.3992 128.286C72.3988 128.25 72.4055 128.214 72.419 128.181L75.0677 121.675C75.0744 121.658 75.079 121.641 75.0813 121.623C75.44 118.846 76.3528 117.434 76.624 117.068C76.6438 117.041 76.6569 117.009 76.662 116.976C76.6672 116.943 76.6643 116.909 76.6537 116.878L76.6164 116.766C76.6015 116.722 76.5984 116.674 76.6075 116.628C76.6166 116.582 76.6375 116.539 76.6682 116.504C77.6455 115.391 79.3487 115.998 79.3658 116.005L79.3744 116.008L79.3797 116.015C81.2896 118.634 80.5835 127.142 80.4225 128.82C80.4165 128.884 80.3884 128.943 80.3431 128.987C80.2978 129.031 80.2383 129.058 80.1751 129.063L79.0458 129.15C79.0388 129.15 79.0318 129.151 79.0249 129.151Z" fill="#2F2E41"/>
<path d="M82.372 111.672C82.3647 111.704 82.3599 111.737 82.3577 111.77L79.7872 113.253L79.1624 112.893L78.4963 113.765L79.5405 114.509C79.6249 114.57 79.7265 114.601 79.83 114.598C79.9336 114.596 80.0336 114.56 80.1149 114.496L82.7655 112.404C82.8851 112.449 83.0154 112.455 83.139 112.424C83.2626 112.392 83.3736 112.324 83.4574 112.228C83.5411 112.131 83.5936 112.012 83.6078 111.885C83.622 111.759 83.5973 111.63 83.5369 111.518C83.4766 111.406 83.3834 111.314 83.2699 111.256C83.1564 111.198 83.0278 111.176 82.9014 111.193C82.7749 111.209 82.6565 111.264 82.562 111.35C82.4674 111.435 82.4012 111.548 82.372 111.672Z" fill="#A0616A"/>
<path d="M79.7011 113.323L78.8703 114.4C78.8467 114.431 78.8167 114.456 78.7825 114.474C78.7482 114.492 78.7105 114.502 78.6719 114.504C78.6332 114.506 78.5946 114.5 78.5586 114.486C78.5226 114.472 78.49 114.45 78.4632 114.422L77.5227 113.446C77.3668 113.324 77.2655 113.145 77.2411 112.949C77.2167 112.752 77.2711 112.554 77.3925 112.398C77.5138 112.241 77.6922 112.14 77.8885 112.115C78.0848 112.089 78.2831 112.143 78.4398 112.264L79.6194 112.924C79.6532 112.943 79.6825 112.969 79.7053 113C79.7282 113.031 79.744 113.067 79.7517 113.105C79.7595 113.143 79.759 113.182 79.7503 113.219C79.7415 113.257 79.7248 113.293 79.7011 113.323H79.7011Z" fill="#131529"/>
<path d="M76.4814 115.194L75.1431 114.952C75.105 114.945 75.0688 114.93 75.0371 114.908C75.0053 114.886 74.9787 114.857 74.959 114.824C74.9393 114.791 74.9271 114.754 74.9231 114.715C74.9191 114.677 74.9234 114.638 74.9358 114.601L75.3696 113.316C75.4059 113.122 75.5179 112.95 75.681 112.837C75.8442 112.725 76.0451 112.682 76.2399 112.718C76.4346 112.754 76.6072 112.865 76.7198 113.028C76.8325 113.191 76.8759 113.392 76.8407 113.587L76.7984 114.937C76.7972 114.976 76.7876 115.014 76.7704 115.049C76.7532 115.083 76.7287 115.114 76.6986 115.138C76.6685 115.163 76.6336 115.18 76.5961 115.19C76.5586 115.199 76.5195 115.201 76.4814 115.194Z" fill="#131529"/>
<path d="M76.891 109.627C77.2687 109.885 77.7647 110.151 78.1505 109.876C78.2712 109.784 78.3589 109.655 78.4004 109.509C78.4419 109.363 78.4351 109.208 78.3809 109.066C78.1962 108.538 77.6886 108.305 77.2033 108.127C76.5866 107.849 75.9006 107.762 75.2339 107.877C74.5825 108.043 74.0069 108.674 74.1245 109.335C74.219 109.868 74.7211 110.311 74.6498 110.846C74.5781 111.386 73.9716 111.669 73.4362 111.766C72.9008 111.862 72.3016 111.893 71.9168 112.278C71.426 112.768 71.5486 113.645 72.0104 114.163C72.515 114.647 73.1548 114.965 73.8447 115.076C74.7396 115.287 75.7074 115.398 76.5573 115.047C77.4072 114.696 78.0686 113.752 77.8224 112.866C77.6928 112.498 77.494 112.16 77.2367 111.867C76.9793 111.575 76.7861 111.232 76.6698 110.86C76.6282 110.703 76.6236 110.538 76.6564 110.379C76.6893 110.22 76.7586 110.071 76.859 109.943C76.897 109.902 76.9209 109.85 76.9273 109.794C76.9337 109.738 76.9222 109.682 76.8946 109.633L76.891 109.627Z" fill="#2F2E41"/>
</svg>
