<svg width="207" height="139" viewBox="0 0 207 139" fill="none" xmlns="http://www.w3.org/2000/svg">
<g opacity="0.8">
<path d="M201.662 61.6792C201.402 59.6037 200.365 57.9952 198.704 56.7758C197.407 55.79 195.902 55.3489 194.268 55.3489C192.089 55.3489 189.883 55.3489 187.704 55.3489C187.419 55.3489 187.133 55.3489 186.848 55.3489C189.935 55.8159 192.607 57.1131 194.787 59.3702C197.174 61.8349 198.393 64.8444 198.549 68.2689C198.574 68.6581 198.367 68.6581 198.082 68.6581C195.383 68.6581 192.685 68.6581 189.987 68.6581C189.027 68.6581 188.093 68.6581 187.133 68.7359C187.704 68.8916 188.275 69.0472 188.82 69.2548C192.997 70.7336 195.85 74.7808 195.85 79.2172C195.85 89.0758 195.85 98.9345 195.85 108.793C195.85 108.949 195.85 109.13 195.85 109.286C195.799 109.286 195.747 109.286 195.669 109.286C195.669 109.104 195.695 108.923 195.695 108.741C195.695 100.439 195.695 92.1113 195.695 83.8092C195.695 81.4484 193.749 79.4248 191.388 79.321C191.284 79.321 191.206 79.321 191.103 79.295C190.921 79.1653 190.714 79.1913 190.532 79.1913C189.546 79.1913 188.534 79.1653 187.548 79.1913C187.107 79.1913 186.64 79.1134 186.199 79.2691C186.121 79.2691 186.044 79.2691 185.992 79.2691C185.836 79.1913 185.706 79.1653 185.551 79.2691C185.473 79.2691 185.395 79.2691 185.343 79.2691C185.162 79.1394 184.954 79.1913 184.772 79.1913C183.345 79.1913 181.893 79.1913 180.466 79.1913C180.232 79.1913 179.999 79.1134 179.765 79.2691C179.558 79.2691 179.324 79.2691 179.117 79.2691C179.039 79.1913 179.013 79.2431 179.013 79.321C179.013 79.4248 179.013 79.5285 179.013 79.6323C178.987 79.6323 178.961 79.6323 178.909 79.6323C178.909 79.5545 178.909 79.4766 178.909 79.3988C178.935 79.321 178.961 79.2172 178.805 79.2432C178.702 79.2432 178.572 79.2432 178.468 79.2432C177.327 79.1134 176.159 79.1394 175.018 79.2432C174.213 79.295 174.706 78.7243 174.628 78.4389C174.628 78.387 174.628 78.3611 174.628 78.3092C174.862 75.3516 176.159 72.9648 178.39 71.0709C179.765 69.9034 181.374 69.151 183.164 68.7878C183.242 68.7619 183.345 68.7878 183.371 68.6581C183.449 68.6581 183.501 68.6581 183.579 68.6581C183.579 68.6321 183.579 68.6321 183.553 68.6062C183.501 68.6321 183.423 68.6581 183.371 68.6581C181.088 68.6321 178.805 68.3987 176.574 68.7878C174.265 69.2029 172.423 71.2525 172.112 73.4577C172.06 73.4577 172.008 73.4836 171.956 73.4836C171.956 71.6935 171.93 69.8774 171.93 68.0873C171.956 68.0614 171.982 68.0354 171.982 68.0095C172.086 67.8279 172.06 67.6463 172.034 67.4387C172.345 61.9127 176.678 56.8796 182.23 55.6343C182.671 55.5305 183.112 55.4527 183.553 55.323C183.242 55.323 182.956 55.323 182.645 55.323C178.183 55.323 173.72 55.323 169.258 55.323C168.765 55.323 168.635 55.2192 168.635 54.7263C168.765 47.2026 174.577 40.3534 181.996 39.0044C182.23 38.9525 182.463 38.9265 182.723 38.8746C182.489 38.7449 182.282 38.7968 182.1 38.7968C179.324 38.7968 176.522 38.7968 173.746 38.7968C169.44 38.7968 165.548 42.0657 164.77 46.2946C164.744 46.3724 164.77 46.4762 164.744 46.554C164.718 47.021 164.718 47.488 164.692 47.955C164.64 47.955 164.588 47.955 164.536 47.955C164.536 44.0375 164.147 40.0681 164.718 36.1505C165.911 27.8226 170.555 22.0371 178.468 19.2093C189.831 15.1361 202.155 21.7258 205.346 33.3746C205.787 34.9831 206.02 36.6435 206.072 38.3298C206.098 38.7449 205.968 38.8487 205.553 38.8487C199.872 38.8228 194.19 38.8487 188.482 38.8487C188.197 38.8487 187.938 38.8487 187.652 38.8487C189.105 39.1341 190.532 39.5232 191.881 40.1459C197.199 42.6105 200.442 46.6837 201.558 52.4432C201.662 52.9881 201.74 53.5069 201.766 54.0518C201.766 54.0777 201.766 54.1296 201.766 54.1555C201.766 54.2334 201.766 54.2852 201.766 54.3631C201.766 54.415 201.792 54.4669 201.792 54.5187C201.792 54.5706 201.792 54.6225 201.792 54.7003C201.714 55.8419 201.688 56.9834 201.817 58.1249C201.817 58.2546 201.843 58.4103 201.843 58.54C201.74 58.6697 201.766 58.7735 201.843 58.9032C201.843 59.8372 201.843 60.7712 201.843 61.7311C201.792 61.6533 201.74 61.6792 201.662 61.6792Z" fill="#1B4A60"/>
<path d="M164.692 73.5874C165.652 73.7171 166.378 74.1841 166.663 75.144C166.923 76.0002 166.689 76.7785 166.041 77.3752C165.392 77.9719 164.354 78.0757 163.602 77.6865C162.798 77.2714 162.357 76.3893 162.461 75.5072C162.564 74.6252 163.213 73.8728 164.095 73.6652C164.225 73.6393 164.38 73.6134 164.51 73.5874C164.562 73.5874 164.614 73.5874 164.692 73.5874Z" fill="#F7BB4B"/>
<path d="M190.454 133.128C190.895 132.973 191.31 132.739 191.803 132.739C192.789 132.765 193.619 133.362 193.878 134.27C194.164 135.256 193.749 136.268 192.893 136.76C192.036 137.253 190.973 137.098 190.272 136.423C189.598 135.749 189.442 134.659 189.935 133.803C190.065 133.595 190.22 133.414 190.35 133.232C190.402 133.232 190.428 133.18 190.454 133.128Z" fill="#F7BB4B"/>
<path d="M195.721 109.26C195.773 109.26 195.824 109.26 195.902 109.26C197.07 109.364 197.874 110.064 198.004 111.102C198.133 112.14 197.615 113.074 196.629 113.437C195.669 113.8 194.631 113.463 194.034 112.607C193.126 111.232 194.008 109.468 195.721 109.26Z" fill="#F7BB4B"/>
<path d="M184.772 115.564C185.161 116.031 185.551 116.524 185.551 117.199C185.577 118.185 185.032 119.041 184.124 119.352C183.19 119.689 182.152 119.352 181.607 118.548C181.062 117.744 181.114 116.68 181.711 115.954C182.334 115.201 183.371 114.942 184.279 115.331C184.383 115.383 184.513 115.435 184.617 115.487C184.669 115.513 184.72 115.538 184.772 115.564Z" fill="#F7BB4B"/>
<path d="M201.869 83.8352C203.556 84.0946 204.152 85.7291 203.685 86.8187C203.27 87.8046 202.284 88.3494 201.195 88.1419C200.235 87.9603 199.508 87.0782 199.508 86.0664C199.483 85.0286 200.209 84.1206 201.221 83.913C201.35 83.8871 201.506 83.8611 201.662 83.8352C201.714 83.8352 201.792 83.8352 201.869 83.8352Z" fill="#F7BB4B"/>
<path d="M179.895 124.774C181.27 126.098 180.647 127.836 179.506 128.407C178.598 128.848 177.534 128.666 176.885 127.914C176.237 127.161 176.159 126.072 176.73 125.241C177.301 124.437 178.338 124.1 179.298 124.463C179.454 124.515 179.584 124.593 179.739 124.671C179.791 124.723 179.843 124.749 179.895 124.774Z" fill="#F7BB4B"/>
<path d="M172.138 100.024C173.124 100.18 173.824 100.699 174.058 101.71C174.265 102.593 174.006 103.345 173.305 103.89C172.605 104.46 171.619 104.512 170.841 104.045C170.088 103.604 169.699 102.774 169.829 101.866C169.959 101.01 170.581 100.309 171.437 100.076C171.567 100.05 171.671 100.024 171.801 99.9982C171.827 99.9982 171.878 99.9982 171.904 99.9982C171.93 99.9982 171.982 99.9982 172.008 99.9982C172.06 99.9982 172.086 99.9982 172.138 100.024Z" fill="#F7BB4B"/>
<path d="M190.454 133.128C190.428 133.18 190.376 133.206 190.35 133.258C189.338 132.168 188.897 130.923 189.286 129.444C189.416 128.951 189.702 128.536 190.013 128.121C191.206 126.539 191.206 125.112 190.039 123.529C188.819 121.869 188.819 120.39 190.065 118.73C191.206 117.199 191.206 115.772 190.065 114.241C188.819 112.555 188.819 111.076 190.065 109.416C191.206 107.911 191.18 106.458 190.039 104.927C188.794 103.267 188.794 101.736 190.065 100.102C191.154 98.675 191.18 97.1444 190.091 95.6915C188.794 93.9533 188.794 92.5004 190.065 90.7622C191.154 89.2834 191.154 87.8305 190.065 86.3517C188.768 84.5876 188.768 83.1607 190.065 81.4224C190.454 80.9036 190.739 80.3587 190.843 79.7101C190.895 79.3469 190.817 79.2691 190.48 79.2691C189.157 79.295 187.86 79.2691 186.536 79.2691C186.433 79.2691 186.329 79.2432 186.225 79.2432C186.666 79.0875 187.133 79.1913 187.574 79.1653C188.56 79.1394 189.572 79.1653 190.558 79.1653C190.765 79.1653 190.947 79.1394 191.128 79.2691C190.999 80.3847 190.428 81.2408 189.805 82.1489C189.001 83.3163 189.079 84.7173 189.987 85.9626C190.506 86.6631 190.999 87.3895 191.025 88.3235C191.077 89.3353 190.765 90.1914 190.143 90.9438C189.598 91.5924 189.261 92.3188 189.261 93.175C189.235 94.1349 189.65 94.8872 190.22 95.6137C190.999 96.5736 191.206 97.6632 190.921 98.8566C190.791 99.4015 190.48 99.8425 190.143 100.284C188.949 101.84 188.949 103.267 190.143 104.824C191.362 106.458 191.362 107.963 190.143 109.623C188.975 111.18 188.923 112.581 190.143 114.112C191.336 115.616 191.31 117.536 190.143 118.963C188.923 120.494 188.923 121.895 190.143 123.425C191.388 125.008 191.18 126.85 190.35 127.966C188.897 130.015 188.923 131.053 190.454 133.128Z" fill="#4E4B47"/>
<path d="M179.895 124.774C179.843 124.749 179.791 124.697 179.739 124.671C180.284 123.996 180.595 123.218 180.699 122.388C180.777 121.843 180.543 121.246 180.284 120.753C180.102 120.39 179.869 120.079 179.635 119.741C178.598 118.263 178.598 116.654 179.661 115.175C180.051 114.656 180.414 114.112 180.569 113.437C180.803 112.321 180.569 111.336 179.869 110.454C178.987 109.364 178.701 108.17 179.039 106.821C179.168 106.277 179.506 105.836 179.817 105.394C180.959 103.838 181.01 102.333 179.817 100.828C178.65 99.3496 178.598 97.2741 179.817 95.7434C180.985 94.2646 180.985 92.7339 179.791 91.2292C178.598 89.7244 178.624 87.6489 179.765 86.1961C180.985 84.6654 180.907 83.1866 179.765 81.604C179.324 80.9814 178.883 80.3587 178.909 79.5285C178.935 79.5285 178.961 79.5285 179.013 79.5285C179.168 80.3587 179.584 81.0333 180.076 81.7078C181.088 83.0828 181.062 84.7432 180.076 86.1182C179.532 86.8706 179.065 87.623 179.039 88.5829C179.013 89.4909 179.272 90.2952 179.869 90.9438C181.114 92.3707 181.036 94.55 179.869 96.0028C178.701 97.4297 178.727 98.9864 179.869 100.465C180.673 101.529 181.01 102.67 180.699 103.994C180.569 104.564 180.258 105.031 179.921 105.472C178.753 107.081 178.753 108.534 179.921 110.142C181.14 111.803 181.14 113.333 179.921 115.02C178.727 116.68 178.727 118.107 179.947 119.767C180.284 120.234 180.621 120.727 180.699 121.324C180.725 121.531 180.881 121.739 180.621 121.895C180.569 121.921 180.569 122.102 180.595 122.206C180.959 123.088 180.492 123.737 180.051 124.411C179.999 124.593 179.947 124.697 179.895 124.774Z" fill="#4E4B47"/>
<path d="M184.772 115.564C184.72 115.538 184.668 115.513 184.617 115.487C184.772 115.305 184.928 115.123 185.058 114.942C185.992 113.774 185.992 112.425 185.058 111.232C184.565 110.609 184.046 110.012 184.02 109.13C183.968 108.222 184.227 107.47 184.798 106.769C186.095 105.213 186.095 104.019 184.824 102.489C183.683 101.088 183.657 99.6868 184.824 98.2859C185.499 97.4816 185.888 96.5995 185.654 95.5358C185.551 94.991 185.265 94.55 184.902 94.1608C183.631 92.8636 183.709 90.9697 184.928 89.6466C186.044 88.4272 186.018 87.0003 184.954 85.755C184.124 84.7951 183.786 83.7574 184.124 82.538C184.253 82.071 184.539 81.7078 184.85 81.3446C185.239 80.8776 185.628 80.3847 185.706 79.7361C185.732 79.5545 185.784 79.3729 185.577 79.2691C185.732 79.1653 185.862 79.1913 186.018 79.2691C185.888 80.3068 185.317 81.0852 184.694 81.8894C183.916 82.9012 183.994 84.1465 184.746 85.1843C184.902 85.3918 185.084 85.5994 185.265 85.8329C186.173 87.0003 186.173 88.4532 185.265 89.6207C185.058 89.8801 184.85 90.1136 184.668 90.399C183.994 91.3848 183.994 92.5782 184.694 93.5641C184.85 93.7976 185.058 94.0311 185.239 94.2386C186.225 95.5099 186.199 96.9627 185.187 98.1821C184.824 98.6231 184.461 99.0382 184.305 99.609C184.02 100.647 184.253 101.555 184.954 102.359C185.499 102.982 185.914 103.63 185.94 104.486C185.966 105.42 185.628 106.199 185.032 106.873C184.305 107.678 184.02 108.586 184.279 109.649C184.383 110.064 184.591 110.454 184.876 110.739C186.277 112.088 186.381 113.982 184.772 115.564Z" fill="#4E4B47"/>
<path d="M164.692 73.5874C164.64 73.5874 164.562 73.5874 164.51 73.5874C164.51 65.0519 164.51 56.5164 164.51 48.0069C164.562 48.0069 164.614 48.0069 164.666 48.0069C164.666 48.2144 164.692 48.4479 164.692 48.6554C164.692 56.5424 164.692 64.4552 164.692 72.3421C164.692 72.7313 164.692 73.0945 164.718 73.4836C164.692 73.5096 164.692 73.5615 164.692 73.5874Z" fill="#4E4B47"/>
<path d="M172.138 100.024C172.086 100.024 172.06 99.9982 172.008 99.9982C171.982 99.9463 171.956 99.8944 171.93 99.8425C171.93 99.7647 171.93 99.6868 171.93 99.635C171.93 91.0476 171.93 82.4861 171.93 73.8987C171.93 73.769 171.956 73.6393 171.956 73.5096C172.008 73.5096 172.06 73.4836 172.112 73.4836C172.112 73.8987 172.138 74.3138 172.138 74.7289C172.138 83.1607 172.138 91.5924 172.138 100.024Z" fill="#4E4B47"/>
<path d="M201.869 83.8352C201.791 83.8352 201.714 83.8352 201.636 83.8352C201.636 76.5709 201.636 69.3067 201.636 62.0424C201.636 61.9127 201.662 61.783 201.662 61.6533C201.714 61.6533 201.791 61.6533 201.843 61.6533C201.843 62.4056 201.843 63.1321 201.843 63.8844C201.869 70.552 201.869 77.1936 201.869 83.8352Z" fill="#CF514A"/>
<path d="M171.956 73.5096C171.956 73.6393 171.93 73.769 171.93 73.8987C171.93 82.4861 171.93 91.0476 171.93 99.635C171.93 99.7128 171.93 99.7906 171.93 99.8425C171.93 99.8944 171.904 99.9463 171.904 99.9982C171.878 99.9982 171.826 99.9982 171.8 99.9982C171.8 89.6207 171.8 79.2432 171.8 68.8397C171.8 68.6062 171.697 68.3208 171.93 68.1133C171.93 69.9293 171.956 71.7195 171.956 73.5096Z" fill="#FFFEF7"/>
<path d="M164.718 73.4836C164.718 73.0945 164.692 72.7313 164.692 72.3421C164.692 64.4552 164.692 56.5424 164.692 48.6554C164.692 48.4479 164.666 48.2144 164.666 48.0069C164.692 47.5399 164.692 47.0729 164.718 46.6059C164.874 46.7616 164.822 46.995 164.822 47.1767C164.822 55.764 164.822 64.3514 164.822 72.9388C164.796 73.0945 164.874 73.302 164.718 73.4836Z" fill="#FFFEF7"/>
<path d="M179.791 79.2432C179.999 79.1134 180.258 79.1653 180.491 79.1653C181.918 79.1653 183.371 79.1653 184.798 79.1653C184.98 79.1653 185.187 79.1134 185.369 79.2432C183.501 79.295 181.659 79.295 179.791 79.2432Z" fill="#4E4B47"/>
<path d="M201.843 58.073C201.713 56.9315 201.765 55.79 201.817 54.6485C201.921 55.79 201.869 56.9315 201.843 58.073Z" fill="#CF514A"/>
<path d="M175.018 79.2432C176.159 79.1394 177.327 79.1134 178.468 79.2432C177.327 79.295 176.185 79.295 175.018 79.2432Z" fill="#4E4B47"/>
<path d="M172.008 67.4647C172.034 67.6463 172.086 67.8538 171.956 68.0354C171.93 67.8279 171.93 67.6463 172.008 67.4647Z" fill="#CF514A"/>
<path d="M201.869 58.8513C201.791 58.7216 201.765 58.6179 201.869 58.4881C201.895 58.6179 201.895 58.7216 201.869 58.8513Z" fill="#CF514A"/>
<path d="M178.805 79.2432C178.961 79.1913 178.935 79.295 178.909 79.3988C178.883 79.3469 178.857 79.295 178.805 79.2432Z" fill="#4E4B47"/>
<path d="M201.792 54.1296C201.792 54.1036 201.792 54.0518 201.792 54.0258C201.792 54.0518 201.817 54.0777 201.817 54.1036L201.792 54.1296Z" fill="#CF514A"/>
<path d="M201.817 54.4669C201.817 54.415 201.792 54.3631 201.792 54.3112C201.843 54.389 201.869 54.415 201.817 54.4669Z" fill="#CF514A"/>
<path d="M174.654 78.3092C174.654 78.3611 174.654 78.387 174.654 78.4389C174.654 78.413 174.628 78.387 174.628 78.3611C174.628 78.3351 174.628 78.3092 174.654 78.3092Z" fill="#4E4B47"/>
<path d="M179.039 79.295C179.039 79.2172 179.065 79.1653 179.143 79.2432C179.091 79.2691 179.065 79.2691 179.039 79.295Z" fill="#4E4B47"/>
<path d="M183.397 68.6581C183.449 68.6321 183.527 68.6062 183.579 68.6062C183.579 68.6321 183.579 68.6321 183.605 68.6581C183.527 68.6581 183.449 68.6581 183.397 68.6581C183.371 68.6581 183.397 68.6581 183.397 68.6581Z" fill="#F2EEE3"/>
<path d="M171.904 99.9982C171.904 99.9463 171.93 99.8944 171.93 99.8425C171.956 99.8944 171.982 99.9463 172.008 99.9982C171.982 99.9982 171.956 99.9982 171.904 99.9982Z" fill="#CF514A"/>
<path d="M143.922 72.8736C143.715 71.2165 142.886 69.9323 141.561 68.9587C140.525 68.1716 139.324 67.8195 138.019 67.8195C136.279 67.8195 134.518 67.8195 132.778 67.8195C132.55 67.8195 132.322 67.8195 132.095 67.8195C134.559 68.1923 136.693 69.228 138.433 71.0301C140.339 72.9979 141.312 75.4007 141.436 78.1348C141.457 78.4455 141.291 78.4455 141.064 78.4455C138.909 78.4455 136.755 78.4455 134.601 78.4455C133.835 78.4455 133.089 78.4455 132.322 78.5077C132.778 78.632 133.234 78.7562 133.669 78.922C137.004 80.1026 139.282 83.3339 139.282 86.876C139.282 94.7471 139.282 102.618 139.282 110.489C139.282 110.614 139.282 110.759 139.282 110.883C139.241 110.883 139.199 110.883 139.137 110.883C139.137 110.738 139.158 110.593 139.158 110.448C139.158 103.82 139.158 97.1706 139.158 90.5423C139.158 88.6573 137.604 87.0417 135.719 86.9588C135.637 86.9588 135.574 86.9588 135.492 86.9381C135.347 86.8345 135.181 86.8553 135.036 86.8553C134.249 86.8553 133.441 86.8345 132.654 86.8553C132.302 86.8553 131.929 86.7931 131.577 86.9174C131.515 86.9174 131.452 86.9174 131.411 86.9174C131.287 86.8553 131.183 86.8345 131.059 86.9174C130.997 86.9174 130.935 86.9174 130.893 86.9174C130.748 86.8138 130.582 86.8553 130.437 86.8553C129.298 86.8553 128.138 86.8553 126.999 86.8553C126.813 86.8553 126.626 86.7931 126.44 86.9174C126.274 86.9174 126.088 86.9174 125.922 86.9174C125.86 86.8553 125.839 86.8967 125.839 86.9588C125.839 87.0417 125.839 87.1245 125.839 87.2074C125.818 87.2074 125.798 87.2074 125.756 87.2074C125.756 87.1452 125.756 87.0831 125.756 87.021C125.777 86.9588 125.798 86.876 125.673 86.8967C125.591 86.8967 125.487 86.8967 125.404 86.8967C124.493 86.7931 123.561 86.8138 122.649 86.8967C122.007 86.9381 122.401 86.4824 122.338 86.2546C122.338 86.2131 122.338 86.1924 122.338 86.151C122.525 83.7896 123.561 81.884 125.342 80.3719C126.44 79.4398 127.724 78.8391 129.153 78.5491C129.215 78.5284 129.298 78.5491 129.319 78.4455C129.381 78.4455 129.423 78.4455 129.485 78.4455C129.485 78.4248 129.485 78.4248 129.464 78.4041C129.423 78.4248 129.36 78.4455 129.319 78.4455C127.496 78.4248 125.673 78.2384 123.892 78.5491C122.048 78.8805 120.578 80.5169 120.329 82.2776C120.288 82.2776 120.246 82.2983 120.205 82.2983C120.205 80.869 120.184 79.4191 120.184 77.9898C120.205 77.9691 120.226 77.9484 120.226 77.9277C120.309 77.7827 120.288 77.6377 120.267 77.472C120.516 73.06 123.975 69.0416 128.408 68.0473C128.76 67.9645 129.112 67.9023 129.464 67.7988C129.215 67.7988 128.988 67.7988 128.739 67.7988C125.176 67.7988 121.614 67.7988 118.051 67.7988C117.657 67.7988 117.554 67.7159 117.554 67.3224C117.657 61.3154 122.297 55.847 128.221 54.7699C128.408 54.7285 128.594 54.7078 128.801 54.6664C128.615 54.5628 128.449 54.6042 128.304 54.6042C126.088 54.6042 123.851 54.6042 121.634 54.6042C118.196 54.6042 115.089 57.2141 114.467 60.5904C114.447 60.6526 114.467 60.7354 114.447 60.7976C114.426 61.1704 114.426 61.5433 114.405 61.9161C114.364 61.9161 114.322 61.9161 114.281 61.9161C114.281 58.7884 113.97 55.6192 114.426 52.4914C115.379 45.8424 119.086 41.2233 125.404 38.9655C134.477 35.7135 144.316 40.9747 146.863 50.2751C147.215 51.5593 147.402 52.885 147.443 54.2314C147.464 54.5628 147.36 54.6457 147.029 54.6457C142.493 54.6249 137.957 54.6457 133.4 54.6457C133.172 54.6457 132.965 54.6457 132.737 54.6457C133.897 54.8735 135.036 55.1842 136.113 55.6813C140.359 57.6491 142.948 60.9012 143.839 65.4996C143.922 65.9345 143.984 66.3488 144.005 66.7838C144.005 66.8045 144.005 66.8459 144.005 66.8667C144.005 66.9288 144.005 66.9702 144.005 67.0324C144.005 67.0738 144.026 67.1152 144.026 67.1567C144.026 67.1981 144.026 67.2395 144.026 67.3016C143.963 68.213 143.943 69.1244 144.046 70.0358C144.046 70.1394 144.067 70.2637 144.067 70.3673C143.984 70.4708 144.005 70.5537 144.067 70.6572C144.067 71.4029 144.067 72.1486 144.067 72.915C144.026 72.8529 143.984 72.8736 143.922 72.8736Z" fill="#1B4A60"/>
<path d="M114.405 82.3811C115.171 82.4847 115.751 82.8575 115.979 83.6239C116.186 84.3075 116 84.9289 115.482 85.4053C114.964 85.8817 114.136 85.9646 113.535 85.6539C112.893 85.3224 112.541 84.6182 112.624 83.9139C112.706 83.2097 113.224 82.609 113.928 82.4433C114.032 82.4225 114.156 82.4018 114.26 82.3811C114.301 82.3811 114.343 82.3811 114.405 82.3811Z" fill="#F7BB4B"/>
<path d="M134.973 129.919C135.326 129.794 135.657 129.608 136.051 129.608C136.838 129.629 137.501 130.105 137.708 130.83C137.936 131.617 137.604 132.425 136.921 132.819C136.237 133.212 135.388 133.088 134.828 132.549C134.29 132.011 134.166 131.141 134.559 130.457C134.663 130.292 134.787 130.147 134.891 130.002C134.932 130.002 134.953 129.96 134.973 129.919Z" fill="#F7BB4B"/>
<path d="M139.178 110.862C139.22 110.862 139.261 110.862 139.323 110.862C140.256 110.945 140.898 111.504 141.001 112.333C141.105 113.161 140.69 113.907 139.903 114.197C139.137 114.487 138.308 114.218 137.832 113.534C137.107 112.437 137.811 111.028 139.178 110.862Z" fill="#F7BB4B"/>
<path d="M130.437 115.896C130.748 116.269 131.059 116.662 131.059 117.201C131.08 117.988 130.645 118.671 129.92 118.92C129.174 119.189 128.345 118.92 127.91 118.278C127.475 117.636 127.517 116.786 127.993 116.206C128.49 115.606 129.319 115.399 130.044 115.709C130.127 115.751 130.23 115.792 130.313 115.834C130.355 115.854 130.396 115.875 130.437 115.896Z" fill="#F7BB4B"/>
<path d="M144.088 90.563C145.434 90.7701 145.91 92.0751 145.538 92.945C145.206 93.7322 144.419 94.1671 143.549 94.0014C142.783 93.8564 142.203 93.1522 142.203 92.3443C142.182 91.5158 142.762 90.7908 143.57 90.6251C143.673 90.6044 143.798 90.5837 143.922 90.563C143.963 90.563 144.025 90.563 144.088 90.563Z" fill="#F7BB4B"/>
<path d="M126.543 123.249C127.641 124.305 127.144 125.693 126.233 126.149C125.508 126.501 124.658 126.356 124.141 125.755C123.623 125.155 123.561 124.285 124.016 123.622C124.472 122.98 125.3 122.71 126.067 123C126.191 123.042 126.295 123.104 126.419 123.166C126.46 123.208 126.502 123.228 126.543 123.249Z" fill="#F7BB4B"/>
<path d="M120.35 103.488C121.137 103.613 121.696 104.027 121.883 104.835C122.049 105.539 121.841 106.14 121.282 106.575C120.723 107.03 119.936 107.072 119.314 106.699C118.714 106.347 118.403 105.684 118.506 104.959C118.61 104.275 119.107 103.716 119.791 103.53C119.894 103.509 119.977 103.488 120.081 103.468C120.101 103.468 120.143 103.468 120.164 103.468C120.184 103.468 120.226 103.468 120.246 103.468C120.288 103.468 120.309 103.468 120.35 103.488Z" fill="#F7BB4B"/>
<path d="M134.973 129.919C134.953 129.96 134.911 129.981 134.891 130.022C134.083 129.152 133.731 128.158 134.041 126.977C134.145 126.584 134.373 126.252 134.621 125.921C135.574 124.658 135.574 123.518 134.642 122.255C133.669 120.929 133.669 119.748 134.663 118.423C135.574 117.201 135.574 116.061 134.663 114.839C133.669 113.493 133.669 112.312 134.663 110.987C135.574 109.785 135.553 108.625 134.642 107.403C133.648 106.077 133.648 104.855 134.663 103.55C135.533 102.411 135.553 101.189 134.683 100.029C133.648 98.6413 133.648 97.4813 134.663 96.0935C135.533 94.9128 135.533 93.7529 134.663 92.5722C133.627 91.1637 133.627 90.0244 134.663 88.6366C134.973 88.2223 135.201 87.7874 135.284 87.2695C135.326 86.9795 135.263 86.9174 134.994 86.9174C133.938 86.9381 132.902 86.9174 131.846 86.9174C131.763 86.9174 131.68 86.8967 131.597 86.8967C131.949 86.7724 132.322 86.8552 132.674 86.8345C133.461 86.8138 134.269 86.8345 135.056 86.8345C135.222 86.8345 135.367 86.8138 135.512 86.9174C135.408 87.8081 134.953 88.4916 134.456 89.2166C133.814 90.1487 133.876 91.2672 134.601 92.2615C135.015 92.8208 135.408 93.4007 135.429 94.1464C135.471 94.9543 135.222 95.6378 134.725 96.2385C134.29 96.7563 134.021 97.3363 134.021 98.0199C134 98.7863 134.331 99.387 134.787 99.9669C135.408 100.733 135.574 101.603 135.346 102.556C135.243 102.991 134.994 103.343 134.725 103.695C133.772 104.938 133.772 106.077 134.725 107.32C135.698 108.625 135.698 109.827 134.725 111.152C133.793 112.395 133.751 113.514 134.725 114.736C135.678 115.937 135.657 117.47 134.725 118.609C133.751 119.831 133.751 120.95 134.725 122.172C135.719 123.435 135.553 124.906 134.891 125.797C133.731 127.433 133.751 128.262 134.973 129.919Z" fill="#4E4B47"/>
<path d="M126.543 123.249C126.502 123.228 126.46 123.187 126.419 123.166C126.854 122.628 127.103 122.006 127.185 121.343C127.248 120.908 127.061 120.432 126.854 120.038C126.709 119.748 126.523 119.5 126.336 119.231C125.508 118.05 125.508 116.766 126.357 115.585C126.668 115.171 126.958 114.736 127.082 114.197C127.268 113.306 127.082 112.519 126.523 111.815C125.818 110.945 125.59 109.992 125.86 108.915C125.963 108.48 126.233 108.128 126.481 107.776C127.393 106.533 127.434 105.332 126.481 104.13C125.549 102.95 125.508 101.293 126.481 100.071C127.413 98.8898 127.413 97.6677 126.46 96.4663C125.508 95.265 125.528 93.6079 126.44 92.4479C127.413 91.2258 127.351 90.0451 126.44 88.7816C126.088 88.2845 125.735 87.7874 125.756 87.1245C125.777 87.1245 125.798 87.1245 125.839 87.1245C125.963 87.7874 126.295 88.3259 126.688 88.8645C127.496 89.9623 127.475 91.288 126.688 92.3858C126.253 92.9865 125.88 93.5872 125.86 94.3536C125.839 95.0785 126.046 95.7207 126.523 96.2385C127.517 97.3777 127.455 99.1177 126.523 100.278C125.59 101.417 125.611 102.66 126.523 103.84C127.165 104.69 127.434 105.601 127.185 106.657C127.082 107.113 126.833 107.486 126.564 107.838C125.632 109.122 125.632 110.282 126.564 111.567C127.538 112.892 127.538 114.114 126.564 115.461C125.611 116.786 125.611 117.926 126.585 119.251C126.854 119.624 127.123 120.018 127.185 120.494C127.206 120.66 127.33 120.825 127.123 120.95C127.082 120.97 127.082 121.115 127.103 121.198C127.393 121.903 127.02 122.42 126.668 122.959C126.626 123.104 126.585 123.187 126.543 123.249Z" fill="#4E4B47"/>
<path d="M130.437 115.896C130.396 115.875 130.354 115.854 130.313 115.834C130.437 115.689 130.562 115.544 130.665 115.399C131.411 114.466 131.411 113.389 130.665 112.437C130.272 111.939 129.857 111.463 129.837 110.759C129.795 110.034 130.002 109.433 130.458 108.874C131.494 107.631 131.494 106.678 130.479 105.456C129.567 104.338 129.547 103.219 130.479 102.1C131.017 101.458 131.328 100.754 131.142 99.9048C131.059 99.4698 130.831 99.1177 130.541 98.807C129.526 97.7713 129.588 96.2592 130.562 95.2028C131.452 94.2293 131.432 93.09 130.582 92.0958C129.919 91.3294 129.65 90.5008 129.919 89.5273C130.023 89.1545 130.251 88.8645 130.499 88.5745C130.81 88.2016 131.121 87.8081 131.183 87.2902C131.204 87.1452 131.245 87.0002 131.079 86.9174C131.204 86.8345 131.307 86.8553 131.432 86.9174C131.328 87.7459 130.872 88.3673 130.375 89.0095C129.754 89.8173 129.816 90.8115 130.417 91.6401C130.541 91.8058 130.686 91.9715 130.831 92.1579C131.556 93.09 131.556 94.25 130.831 95.1821C130.665 95.3892 130.499 95.5757 130.354 95.8035C129.816 96.5906 129.816 97.5434 130.375 98.3306C130.499 98.517 130.665 98.7034 130.81 98.8691C131.597 99.8841 131.577 101.044 130.769 102.018C130.479 102.37 130.189 102.701 130.064 103.157C129.837 103.985 130.023 104.71 130.582 105.352C131.017 105.85 131.349 106.367 131.369 107.051C131.39 107.797 131.121 108.418 130.644 108.957C130.064 109.599 129.837 110.324 130.044 111.173C130.127 111.504 130.292 111.815 130.52 112.043C131.639 113.12 131.722 114.632 130.437 115.896Z" fill="#4E4B47"/>
<path d="M114.405 82.3811C114.364 82.3811 114.301 82.3811 114.26 82.3811C114.26 75.5664 114.26 68.7516 114.26 61.9575C114.301 61.9575 114.343 61.9575 114.384 61.9575C114.384 62.1232 114.405 62.3097 114.405 62.4754C114.405 68.7723 114.405 75.0899 114.405 81.3869C114.405 81.6976 114.405 81.9876 114.426 82.2983C114.405 82.319 114.405 82.3604 114.405 82.3811Z" fill="#4E4B47"/>
<path d="M120.35 103.488C120.308 103.488 120.288 103.468 120.246 103.468C120.226 103.426 120.205 103.385 120.184 103.343C120.184 103.281 120.184 103.219 120.184 103.178C120.184 96.3214 120.184 89.4859 120.184 82.6297C120.184 82.5261 120.205 82.4225 120.205 82.319C120.246 82.319 120.288 82.2983 120.329 82.2983C120.329 82.6297 120.35 82.9611 120.35 83.2925C120.35 90.0244 120.35 96.7563 120.35 103.488Z" fill="#4E4B47"/>
<path d="M144.088 90.563C144.025 90.563 143.963 90.563 143.901 90.563C143.901 84.7632 143.901 78.9634 143.901 73.1636C143.901 73.06 143.922 72.9564 143.922 72.8529C143.963 72.8529 144.025 72.8529 144.067 72.8529C144.067 73.4536 144.067 74.0336 144.067 74.6342C144.088 79.9576 144.088 85.2603 144.088 90.563Z" fill="#CF514A"/>
<path d="M120.205 82.319C120.205 82.4225 120.184 82.5261 120.184 82.6297C120.184 89.4859 120.184 96.3214 120.184 103.178C120.184 103.24 120.184 103.302 120.184 103.343C120.184 103.385 120.163 103.426 120.163 103.468C120.143 103.468 120.101 103.468 120.08 103.468C120.08 95.1821 120.08 86.8967 120.08 78.5905C120.08 78.4041 119.998 78.1763 120.184 78.0106C120.184 79.4605 120.205 80.8897 120.205 82.319Z" fill="#FFFEF7"/>
<path d="M114.426 82.2983C114.426 81.9876 114.405 81.6976 114.405 81.3869C114.405 75.0899 114.405 68.7723 114.405 62.4754C114.405 62.3097 114.384 62.1233 114.384 61.9575C114.405 61.5847 114.405 61.2119 114.426 60.839C114.55 60.9633 114.509 61.1497 114.509 61.2947C114.509 68.1509 114.509 75.0071 114.509 81.8633C114.488 81.9876 114.55 82.1533 114.426 82.2983Z" fill="#FFFEF7"/>
<path d="M126.46 86.8967C126.626 86.7931 126.833 86.8345 127.019 86.8345C128.159 86.8345 129.319 86.8345 130.458 86.8345C130.603 86.8345 130.769 86.7931 130.914 86.8967C129.422 86.9381 127.952 86.9381 126.46 86.8967Z" fill="#4E4B47"/>
<path d="M144.067 69.9944C143.963 69.083 144.005 68.1716 144.046 67.2602C144.129 68.1716 144.087 69.083 144.067 69.9944Z" fill="#CF514A"/>
<path d="M122.649 86.8967C123.561 86.8138 124.493 86.7931 125.404 86.8967C124.493 86.9381 123.581 86.9381 122.649 86.8967Z" fill="#4E4B47"/>
<path d="M120.246 77.4927C120.267 77.6377 120.308 77.8034 120.205 77.9484C120.184 77.7827 120.184 77.6377 120.246 77.4927Z" fill="#CF514A"/>
<path d="M144.088 70.6158C144.025 70.5122 144.005 70.4294 144.088 70.3258C144.108 70.4294 144.108 70.5122 144.088 70.6158Z" fill="#CF514A"/>
<path d="M125.673 86.8967C125.798 86.8553 125.777 86.9381 125.756 87.021C125.735 86.9795 125.715 86.9381 125.673 86.8967Z" fill="#4E4B47"/>
<path d="M144.025 66.8459C144.025 66.8252 144.025 66.7838 144.025 66.7631C144.025 66.7838 144.046 66.8045 144.046 66.8252L144.025 66.8459Z" fill="#CF514A"/>
<path d="M144.046 67.1152C144.046 67.0738 144.025 67.0324 144.025 66.9909C144.067 67.0531 144.088 67.0738 144.046 67.1152Z" fill="#CF514A"/>
<path d="M122.359 86.151C122.359 86.1924 122.359 86.2131 122.359 86.2546C122.359 86.2338 122.338 86.2131 122.338 86.1924C122.338 86.1717 122.338 86.151 122.359 86.151Z" fill="#4E4B47"/>
<path d="M125.86 86.9381C125.86 86.876 125.88 86.8345 125.942 86.8967C125.901 86.9174 125.88 86.9174 125.86 86.9381Z" fill="#4E4B47"/>
<path d="M129.34 78.4455C129.381 78.4248 129.443 78.4041 129.485 78.4041C129.485 78.4248 129.485 78.4248 129.505 78.4455C129.443 78.4455 129.381 78.4455 129.34 78.4455C129.319 78.4455 129.34 78.4455 129.34 78.4455Z" fill="#F2EEE3"/>
<path d="M120.163 103.468C120.163 103.426 120.184 103.385 120.184 103.343C120.205 103.385 120.225 103.426 120.246 103.468C120.225 103.468 120.205 103.468 120.163 103.468Z" fill="#CF514A"/>
<path d="M92.4693 50.8917C92.167 48.4735 90.9579 46.5994 89.0233 45.1787C87.5119 44.03 85.7587 43.5162 83.8544 43.5162C81.3152 43.5162 78.7459 43.5162 76.2068 43.5162C75.8743 43.5162 75.5418 43.5162 75.2092 43.5162C78.8063 44.0603 81.9198 45.5716 84.4589 48.2015C87.2399 51.0731 88.6606 54.5795 88.8419 58.5696C88.8722 59.023 88.6303 59.023 88.2978 59.023C85.1542 59.023 82.0105 59.023 78.8668 59.023C77.7484 59.023 76.6602 59.023 75.5418 59.1137C76.2068 59.295 76.8718 59.4764 77.5066 59.7182C82.3732 61.4412 85.6983 66.1567 85.6983 71.3257C85.6983 82.8122 85.6983 94.2987 85.6983 105.785C85.6983 105.967 85.6983 106.178 85.6983 106.36C85.6378 106.36 85.5774 106.36 85.4867 106.36C85.4867 106.148 85.5169 105.936 85.5169 105.725C85.5169 96.0519 85.5169 86.3488 85.5169 76.676C85.5169 73.9252 83.2498 71.5675 80.4991 71.4466C80.3782 71.4466 80.2875 71.4466 80.1666 71.4163C79.955 71.2652 79.7132 71.2954 79.5016 71.2954C78.3529 71.2954 77.174 71.2652 76.0254 71.2954C75.5115 71.2954 74.9674 71.2047 74.4536 71.3861C74.3629 71.3861 74.2722 71.3861 74.2117 71.3861C74.0304 71.2954 73.8792 71.2652 73.6979 71.3861C73.6072 71.3861 73.5165 71.3861 73.456 71.3861C73.2444 71.235 73.0026 71.2954 72.791 71.2954C71.1285 71.2954 69.4358 71.2954 67.7732 71.2954C67.5012 71.2954 67.2291 71.2047 66.9571 71.3861C66.7153 71.3861 66.4432 71.3861 66.2014 71.3861C66.1107 71.2954 66.0805 71.3559 66.0805 71.4466C66.0805 71.5675 66.0805 71.6884 66.0805 71.8093C66.0503 71.8093 66.02 71.8093 65.9596 71.8093C65.9596 71.7186 65.9596 71.6279 65.9596 71.5372C65.9898 71.4466 66.02 71.3257 65.8387 71.3559C65.7177 71.3559 65.5666 71.3559 65.4457 71.3559C64.1157 71.2047 62.7554 71.235 61.4254 71.3559C60.4884 71.4163 61.0627 70.7513 60.972 70.4188C60.972 70.3584 60.972 70.3281 60.972 70.2677C61.244 66.8217 62.7554 64.0408 65.355 61.8342C66.9571 60.4739 68.8312 59.5973 70.9169 59.1741C71.0076 59.1439 71.1285 59.1741 71.1587 59.023C71.2494 59.023 71.3099 59.023 71.4006 59.023C71.4006 58.9927 71.4006 58.9927 71.3703 58.9625C71.3099 58.9927 71.2192 59.023 71.1587 59.023C68.4987 58.9927 65.8387 58.7207 63.2391 59.1741C60.5488 59.6578 58.4026 62.0457 58.0399 64.6151C57.9795 64.6151 57.919 64.6453 57.8585 64.6453C57.8585 62.5596 57.8283 60.4437 57.8283 58.358C57.8585 58.3277 57.8888 58.2975 57.8888 58.2673C58.0097 58.0557 57.9795 57.8441 57.9492 57.6023C58.312 51.1638 63.36 45.2996 69.8287 43.8487C70.3426 43.7278 70.8565 43.6371 71.3703 43.4859C71.0076 43.4859 70.6751 43.4859 70.3124 43.4859C65.1132 43.4859 59.914 43.4859 54.7149 43.4859C54.1405 43.4859 53.9894 43.365 53.9894 42.7907C54.1405 34.0247 60.9115 26.0445 69.5567 24.4727C69.8287 24.4122 70.1008 24.382 70.403 24.3216C70.131 24.1704 69.8892 24.2309 69.6776 24.2309C66.4432 24.2309 63.1786 24.2309 59.9443 24.2309C54.9265 24.2309 50.3923 28.0396 49.4855 32.9667C49.4552 33.0574 49.4855 33.1783 49.4552 33.269C49.425 33.8131 49.425 34.3572 49.3948 34.9013C49.3343 34.9013 49.2739 34.9013 49.2134 34.9013C49.2134 30.3369 48.76 25.712 49.425 21.1476C50.8155 11.4445 56.2262 4.70377 65.4457 1.40895C78.6854 -3.3368 93.0436 4.34104 96.7616 17.9133C97.2755 19.7874 97.5475 21.722 97.608 23.6868C97.6382 24.1704 97.4871 24.2913 97.0034 24.2913C90.3836 24.2611 83.7637 24.2913 77.1136 24.2913C76.7811 24.2913 76.4788 24.2913 76.1463 24.2913C77.8391 24.6238 79.5016 25.0772 81.0734 25.8027C87.2701 28.6743 91.0486 33.4201 92.3484 40.1307C92.4693 40.7654 92.56 41.37 92.5902 42.0048C92.5902 42.035 92.5902 42.0955 92.5902 42.1257C92.5902 42.2164 92.5902 42.2768 92.5902 42.3675C92.5902 42.428 92.6204 42.4884 92.6204 42.5489C92.6204 42.6093 92.6204 42.6698 92.6204 42.7605C92.5297 44.0905 92.4995 45.4205 92.6506 46.7505C92.6506 46.9017 92.6809 47.083 92.6809 47.2342C92.56 47.3853 92.5902 47.5062 92.6809 47.6574C92.6809 48.7456 92.6809 49.8338 92.6809 50.9522C92.6204 50.8615 92.56 50.8917 92.4693 50.8917Z" fill="#1B4A60"/>
<path d="M49.3941 64.7662C50.5126 64.9174 51.3589 65.4615 51.6914 66.5799C51.9937 67.5774 51.7217 68.4842 50.966 69.1795C50.2103 69.8747 49.0012 69.9956 48.1246 69.5422C47.1875 69.0586 46.6736 68.0308 46.7946 67.0031C46.9155 65.9753 47.6712 65.0987 48.6989 64.8569C48.85 64.8267 49.0314 64.7965 49.1825 64.7662C49.243 64.7662 49.3035 64.7662 49.3941 64.7662Z" fill="#F7BB4B"/>
<path d="M79.4105 134.139C79.9243 133.957 80.408 133.685 80.9823 133.685C82.1309 133.716 83.0982 134.411 83.4005 135.469C83.733 136.618 83.2494 137.796 82.2519 138.371C81.2543 138.945 80.015 138.764 79.1989 137.978C78.4129 137.192 78.2316 135.922 78.8059 134.925C78.957 134.683 79.1384 134.471 79.2895 134.26C79.35 134.26 79.3802 134.199 79.4105 134.139Z" fill="#F7BB4B"/>
<path d="M85.5466 106.329C85.6071 106.329 85.6675 106.329 85.7582 106.329C87.1185 106.45 88.0555 107.266 88.2067 108.476C88.3578 109.685 87.7533 110.773 86.6046 111.196C85.4862 111.619 84.2771 111.226 83.5818 110.229C82.5239 108.627 83.5516 106.571 85.5466 106.329Z" fill="#F7BB4B"/>
<path d="M72.7908 113.675C73.2442 114.219 73.6976 114.793 73.6976 115.579C73.7278 116.728 73.093 117.725 72.0351 118.088C70.9469 118.481 69.7378 118.088 69.103 117.151C68.4682 116.214 68.5286 114.974 69.2239 114.128C69.9493 113.251 71.1585 112.949 72.2164 113.403C72.3373 113.463 72.4885 113.524 72.6094 113.584C72.6698 113.614 72.7303 113.644 72.7908 113.675Z" fill="#F7BB4B"/>
<path d="M92.7107 76.7062C94.6755 77.0085 95.3708 78.9128 94.8267 80.1824C94.343 81.331 93.1944 81.9658 91.9248 81.724C90.8064 81.5124 89.96 80.4847 89.96 79.3058C89.9298 78.0967 90.7762 77.0387 91.955 76.7969C92.1062 76.7666 92.2875 76.7364 92.4689 76.7062C92.5294 76.7062 92.6201 76.7062 92.7107 76.7062Z" fill="#F7BB4B"/>
<path d="M67.1079 124.406C68.7099 125.947 67.9845 127.972 66.6545 128.637C65.5965 129.151 64.3572 128.94 63.6015 128.063C62.8458 127.186 62.7551 125.917 63.4201 124.95C64.0851 124.013 65.2942 123.62 66.4126 124.043C66.594 124.103 66.7451 124.194 66.9265 124.285C66.987 124.345 67.0474 124.375 67.1079 124.406Z" fill="#F7BB4B"/>
<path d="M58.0698 95.5683C59.2185 95.7496 60.0346 96.3542 60.3067 97.5331C60.5485 98.5608 60.2462 99.4374 59.43 100.072C58.6139 100.737 57.4652 100.798 56.5584 100.254C55.6818 99.7397 55.2284 98.7724 55.3795 97.7144C55.5307 96.7169 56.2561 95.9008 57.2537 95.6287C57.4048 95.5985 57.5257 95.5683 57.6768 95.538C57.7071 95.538 57.7675 95.538 57.7977 95.538C57.828 95.538 57.8884 95.538 57.9187 95.538C57.9791 95.538 58.0093 95.538 58.0698 95.5683Z" fill="#F7BB4B"/>
<path d="M79.4103 134.139C79.38 134.199 79.3196 134.23 79.2894 134.29C78.1105 133.02 77.5966 131.569 78.05 129.846C78.2012 129.272 78.5337 128.789 78.8964 128.305C80.2869 126.461 80.2869 124.798 78.9266 122.955C77.5059 121.02 77.5059 119.297 78.9569 117.362C80.2869 115.579 80.2869 113.916 78.9569 112.133C77.5059 110.168 77.5059 108.445 78.9569 106.511C80.2869 104.757 80.2566 103.065 78.9266 101.281C77.4757 99.3467 77.4757 97.5633 78.9569 95.659C80.2264 93.9964 80.2566 92.213 78.9871 90.5202C77.4757 88.495 77.4757 86.8022 78.9569 84.777C80.2264 83.054 80.2264 81.3612 78.9569 79.6383C77.4455 77.5828 77.4455 75.9203 78.9569 73.895C79.4103 73.2904 79.7428 72.6557 79.8637 71.9C79.9241 71.4768 79.8335 71.3861 79.4405 71.3861C77.8989 71.4163 76.3875 71.3861 74.8459 71.3861C74.725 71.3861 74.6041 71.3559 74.4832 71.3559C74.997 71.1745 75.5411 71.2954 76.055 71.2652C77.2036 71.235 78.3825 71.2652 79.5312 71.2652C79.773 71.2652 79.9846 71.235 80.1962 71.3861C80.0451 72.6859 79.38 73.6834 78.6546 74.7414C77.7175 76.1016 77.8082 77.7339 78.8662 79.1848C79.4707 80.001 80.0451 80.8474 80.0753 81.9356C80.1357 83.1145 79.773 84.112 79.0475 84.9886C78.4128 85.7443 78.0198 86.5906 78.0198 87.5882C77.9896 88.7066 78.4732 89.5832 79.1382 90.4296C80.0451 91.548 80.2869 92.8175 79.9544 94.208C79.8032 94.8428 79.4405 95.3567 79.0475 95.8705C77.6571 97.6842 77.6571 99.3467 79.0475 101.16C80.4682 103.065 80.4682 104.818 79.0475 106.753C77.6873 108.566 77.6268 110.198 79.0475 111.982C80.438 113.735 80.4078 115.972 79.0475 117.635C77.6268 119.418 77.6268 121.05 79.0475 122.834C80.4985 124.678 80.2566 126.824 79.2894 128.124C77.5966 130.512 77.6268 131.721 79.4103 134.139Z" fill="#4E4B47"/>
<path d="M67.108 124.406C67.0475 124.375 66.987 124.315 66.9266 124.285C67.5614 123.499 67.9241 122.592 68.045 121.625C68.1357 120.99 67.8636 120.295 67.5614 119.72C67.3498 119.297 67.0777 118.934 66.8057 118.541C65.5966 116.818 65.5966 114.944 66.8359 113.221C67.2893 112.617 67.7125 111.982 67.8939 111.196C68.1659 109.896 67.8939 108.748 67.0777 107.72C66.05 106.45 65.7175 105.06 66.1104 103.488C66.2616 102.853 66.6545 102.339 67.0173 101.825C68.3473 100.012 68.4077 98.2585 67.0173 96.5053C65.657 94.7823 65.5966 92.3641 67.0173 90.5807C68.3775 88.8577 68.3775 87.0743 66.987 85.3211C65.5966 83.5679 65.6268 81.1496 66.9568 79.4569C68.3775 77.6735 68.2868 75.9505 66.9568 74.1066C66.4429 73.3811 65.9291 72.6557 65.9593 71.6884C65.9895 71.6884 66.0198 71.6884 66.0802 71.6884C66.2616 72.6557 66.7452 73.4416 67.3195 74.2275C68.4984 75.8296 68.4682 77.7641 67.3195 79.3662C66.6848 80.2428 66.1407 81.1194 66.1104 82.2379C66.0802 83.2958 66.3825 84.2329 67.0777 84.9886C68.5287 86.6511 68.438 89.1902 67.0777 90.883C65.7175 92.5455 65.7477 94.3592 67.0777 96.0821C68.0148 97.3215 68.4077 98.6515 68.045 100.193C67.8939 100.858 67.5311 101.402 67.1382 101.916C65.7779 103.79 65.7779 105.483 67.1382 107.357C68.5589 109.292 68.5589 111.075 67.1382 113.04C65.7477 114.974 65.7477 116.637 67.1684 118.572C67.5614 119.116 67.9543 119.69 68.045 120.385C68.0752 120.627 68.2566 120.869 67.9543 121.05C67.8939 121.08 67.8939 121.292 67.9241 121.413C68.3473 122.441 67.8032 123.196 67.2893 123.982C67.2289 124.194 67.1684 124.315 67.108 124.406Z" fill="#4E4B47"/>
<path d="M72.7907 113.675C72.7303 113.644 72.6698 113.614 72.6093 113.584C72.7907 113.372 72.9721 113.161 73.1232 112.949C74.2114 111.589 74.2114 110.017 73.1232 108.627C72.5489 107.901 71.9443 107.206 71.9141 106.178C71.8537 105.12 72.1559 104.244 72.8209 103.427C74.3323 101.614 74.3323 100.223 72.8512 98.4399C71.5211 96.8076 71.4909 95.1753 72.8512 93.543C73.6371 92.606 74.0905 91.5782 73.8185 90.3389C73.6975 89.7041 73.365 89.1902 72.9418 88.7368C71.4607 87.2254 71.5514 85.0188 72.9721 83.4772C74.2719 82.0565 74.2416 80.394 73.0023 78.943C72.035 77.8246 71.6421 76.6155 72.035 75.1948C72.1862 74.6507 72.5187 74.2275 72.8814 73.8043C73.3348 73.2602 73.7882 72.6859 73.8789 71.9302C73.9091 71.7186 73.9696 71.507 73.7278 71.3861C73.9091 71.2652 74.0603 71.2954 74.2416 71.3861C74.0905 72.5952 73.4255 73.502 72.7 74.4391C71.7932 75.618 71.8839 77.0689 72.7605 78.278C72.9418 78.5198 73.1534 78.7617 73.365 79.0337C74.423 80.394 74.423 82.0867 73.365 83.447C73.1232 83.7492 72.8814 84.0213 72.6698 84.3538C71.8839 85.5024 71.8839 86.8929 72.7 88.0416C72.8814 88.3136 73.1232 88.5857 73.3348 88.8275C74.4835 90.3086 74.4532 92.0014 73.2744 93.4221C72.8512 93.936 72.428 94.4196 72.2466 95.0846C71.9141 96.2937 72.1862 97.3517 73.0023 98.2888C73.6371 99.0142 74.1207 99.7699 74.151 100.767C74.1812 101.856 73.7882 102.762 73.093 103.548C72.2466 104.485 71.9141 105.543 72.2164 106.783C72.3373 107.266 72.5791 107.72 72.9116 108.052C74.5439 109.624 74.6648 111.831 72.7907 113.675Z" fill="#4E4B47"/>
<path d="M49.3942 64.7662C49.3338 64.7662 49.2431 64.7662 49.1826 64.7662C49.1826 54.8213 49.1826 44.8764 49.1826 34.9617C49.2431 34.9617 49.3035 34.9617 49.364 34.9617C49.364 35.2035 49.3942 35.4756 49.3942 35.7174C49.3942 44.9066 49.3942 54.1261 49.3942 63.3153C49.3942 63.7687 49.3942 64.1919 49.4244 64.6453C49.3942 64.6755 49.3942 64.736 49.3942 64.7662Z" fill="#4E4B47"/>
<path d="M58.0697 95.5683C58.0092 95.5683 57.979 95.538 57.9186 95.538C57.8883 95.4776 57.8581 95.4171 57.8279 95.3567C57.8279 95.266 57.8279 95.1753 57.8279 95.1149C57.8279 85.1095 57.8279 75.1343 57.8279 65.129C57.8279 64.9778 57.8581 64.8267 57.8581 64.6756C57.9186 64.6756 57.979 64.6453 58.0395 64.6453C58.0395 65.129 58.0697 65.6126 58.0697 66.0963C58.0697 75.9203 58.0697 85.7443 58.0697 95.5683Z" fill="#4E4B47"/>
<path d="M92.7108 76.7062C92.6201 76.7062 92.5294 76.7062 92.4387 76.7062C92.4387 68.2424 92.4387 59.7787 92.4387 51.3149C92.4387 51.1638 92.469 51.0126 92.469 50.8615C92.5294 50.8615 92.6201 50.8615 92.6805 50.8615C92.6805 51.7381 92.6805 52.5845 92.6805 53.4611C92.7108 61.2296 92.7108 68.9679 92.7108 76.7062Z" fill="#CF514A"/>
<path d="M57.8578 64.6755C57.8578 64.8267 57.8276 64.9778 57.8276 65.129C57.8276 75.1343 57.8276 85.1095 57.8276 95.1149C57.8276 95.2055 57.8276 95.2962 57.8276 95.3567C57.8276 95.4171 57.7973 95.4776 57.7973 95.538C57.7671 95.538 57.7067 95.538 57.6764 95.538C57.6764 83.447 57.6764 71.3559 57.6764 59.2346C57.6764 58.9625 57.5555 58.63 57.8276 58.3882C57.8276 60.5041 57.8578 62.5898 57.8578 64.6755Z" fill="#FFFEF7"/>
<path d="M49.4245 64.6453C49.4245 64.1919 49.3942 63.7687 49.3942 63.3153C49.3942 54.1261 49.3942 44.9066 49.3942 35.7174C49.3942 35.4756 49.364 35.2035 49.364 34.9617C49.3942 34.4176 49.3942 33.8735 49.4245 33.3294C49.6058 33.5108 49.5454 33.7828 49.5454 33.9944C49.5454 43.9998 49.5454 54.0052 49.5454 64.0105C49.5152 64.1919 49.6058 64.4337 49.4245 64.6453Z" fill="#FFFEF7"/>
<path d="M66.9868 71.3559C67.2286 71.2047 67.5309 71.2652 67.803 71.2652C69.4655 71.2652 71.1582 71.2652 72.8208 71.2652C73.0324 71.2652 73.2742 71.2047 73.4858 71.3559C71.3094 71.4163 69.1632 71.4163 66.9868 71.3559Z" fill="#4E4B47"/>
<path d="M92.6801 46.6901C92.5289 45.36 92.5894 44.03 92.6498 42.7C92.7707 44.03 92.7103 45.36 92.6801 46.6901Z" fill="#CF514A"/>
<path d="M61.425 71.3559C62.7551 71.235 64.1153 71.2047 65.4453 71.3559C64.1153 71.4163 62.7853 71.4163 61.425 71.3559Z" fill="#4E4B47"/>
<path d="M57.9186 57.6325C57.9488 57.8441 58.0093 58.0859 57.8582 58.2975C57.8279 58.0557 57.8279 57.8441 57.9186 57.6325Z" fill="#CF514A"/>
<path d="M92.7109 47.5969C92.6202 47.4458 92.5899 47.3248 92.7109 47.1737C92.7411 47.3248 92.7411 47.4458 92.7109 47.5969Z" fill="#CF514A"/>
<path d="M65.8386 71.3559C66.02 71.2954 65.9898 71.4163 65.9595 71.5372C65.9293 71.4768 65.8991 71.4163 65.8386 71.3559Z" fill="#4E4B47"/>
<path d="M92.6199 42.0955C92.6199 42.0652 92.6199 42.0048 92.6199 41.9745C92.6199 42.0048 92.6501 42.035 92.6501 42.0652L92.6199 42.0955Z" fill="#CF514A"/>
<path d="M92.6501 42.4884C92.6501 42.428 92.6199 42.3675 92.6199 42.307C92.6803 42.3977 92.7106 42.428 92.6501 42.4884Z" fill="#CF514A"/>
<path d="M61.0019 70.2677C61.0019 70.3281 61.0019 70.3584 61.0019 70.4188C61.0019 70.3886 60.9717 70.3584 60.9717 70.3281C60.9717 70.2979 60.9717 70.2677 61.0019 70.2677Z" fill="#4E4B47"/>
<path d="M66.1101 71.4163C66.1101 71.3256 66.1403 71.2652 66.231 71.3559C66.1706 71.3861 66.1403 71.3861 66.1101 71.4163Z" fill="#4E4B47"/>
<path d="M71.1887 59.023C71.2492 58.9927 71.3399 58.9625 71.4003 58.9625C71.4003 58.9927 71.4003 58.9927 71.4305 59.023C71.3399 59.023 71.2492 59.023 71.1887 59.023C71.1585 59.023 71.1887 59.023 71.1887 59.023Z" fill="#F2EEE3"/>
<path d="M57.7976 95.538C57.7976 95.4776 57.8278 95.4171 57.8278 95.3567C57.8581 95.4171 57.8883 95.4776 57.9185 95.538C57.8883 95.538 57.8581 95.538 57.7976 95.538Z" fill="#CF514A"/>
<path d="M28.5627 56.8129C28.3737 55.3012 27.6179 54.1297 26.4086 53.2416C25.4638 52.5236 24.3678 52.2023 23.1774 52.2023C21.5902 52.2023 19.9841 52.2023 18.3968 52.2023C18.189 52.2023 17.9811 52.2023 17.7733 52.2023C20.0218 52.5424 21.9681 53.4872 23.5553 55.1311C25.2937 56.9262 26.1818 59.1181 26.2952 61.6123C26.3141 61.8958 26.1629 61.8958 25.9551 61.8958C23.9899 61.8958 22.0248 61.8958 20.0596 61.8958C19.3605 61.8958 18.6803 61.8958 17.9811 61.9525C18.3968 62.0658 18.8125 62.1792 19.2093 62.3304C22.2515 63.4074 24.33 66.3551 24.33 69.5863C24.33 76.7666 24.33 83.947 24.33 91.1273C24.33 91.2407 24.33 91.3729 24.33 91.4863C24.2923 91.4863 24.2545 91.4863 24.1978 91.4863C24.1978 91.354 24.2167 91.2218 24.2167 91.0895C24.2167 85.0429 24.2167 78.9774 24.2167 72.9308C24.2167 71.2113 22.7995 69.7375 21.08 69.6619C21.0044 69.6619 20.9477 69.6619 20.8721 69.643C20.7399 69.5485 20.5887 69.5674 20.4564 69.5674C19.7384 69.5674 19.0015 69.5485 18.2835 69.5674C17.9622 69.5674 17.6221 69.5107 17.3009 69.6241C17.2442 69.6241 17.1875 69.6241 17.1497 69.6241C17.0363 69.5674 16.9419 69.5485 16.8285 69.6241C16.7718 69.6241 16.7151 69.6241 16.6773 69.6241C16.5451 69.5296 16.3939 69.5674 16.2616 69.5674C15.2224 69.5674 14.1642 69.5674 13.125 69.5674C12.9549 69.5674 12.7848 69.5107 12.6148 69.6241C12.4636 69.6241 12.2935 69.6241 12.1424 69.6241C12.0857 69.5674 12.0668 69.6052 12.0668 69.6619C12.0668 69.7375 12.0668 69.813 12.0668 69.8886C12.0479 69.8886 12.029 69.8886 11.9912 69.8886C11.9912 69.8319 11.9912 69.7752 11.9912 69.7186C12.0101 69.6619 12.029 69.5863 11.9156 69.6052C11.84 69.6052 11.7456 69.6052 11.67 69.6052C10.8386 69.5107 9.98828 69.5296 9.15687 69.6052C8.57111 69.643 8.93013 69.2273 8.87344 69.0194C8.87344 68.9816 8.87344 68.9627 8.87344 68.9249C9.0435 66.7708 9.98828 65.0324 11.6133 63.6531C12.6148 62.8028 13.7863 62.2548 15.0901 61.9903C15.1468 61.9714 15.2224 61.9903 15.2413 61.8958C15.2979 61.8958 15.3357 61.8958 15.3924 61.8958C15.3924 61.8769 15.3924 61.8769 15.3735 61.858C15.3357 61.8769 15.2791 61.8958 15.2413 61.8958C13.5784 61.8769 11.9156 61.7068 10.2906 61.9903C8.6089 62.2926 7.26731 63.7853 7.04057 65.3915C7.00278 65.3915 6.96498 65.4104 6.92719 65.4104C6.92719 64.1066 6.9083 62.7839 6.9083 61.4801C6.92719 61.4612 6.94609 61.4423 6.94609 61.4234C7.02167 61.2911 7.00277 61.1588 6.98388 61.0077C7.21063 56.9829 10.3662 53.3172 14.4099 52.4102C14.7311 52.3346 15.0523 52.2779 15.3735 52.1834C15.1468 52.1834 14.9389 52.1834 14.7122 52.1834C11.4621 52.1834 8.21209 52.1834 4.96205 52.1834C4.60303 52.1834 4.50855 52.1079 4.50855 51.7488C4.60303 46.2691 8.83565 41.2807 14.2398 40.2981C14.4099 40.2603 14.5799 40.2414 14.7689 40.2036C14.5988 40.1091 14.4476 40.1469 14.3154 40.1469C12.2935 40.1469 10.2528 40.1469 8.23099 40.1469C5.09432 40.1469 2.25998 42.5278 1.69311 45.6078C1.67421 45.6644 1.69311 45.74 1.67421 45.7967C1.65532 46.1368 1.65532 46.477 1.63642 46.8171C1.59863 46.8171 1.56084 46.8171 1.52305 46.8171C1.52305 43.9638 1.23962 41.0728 1.65532 38.2196C2.52452 32.1541 5.90683 27.9404 11.67 25.8807C19.9463 22.9141 28.9217 27.7136 31.2458 36.1977C31.5671 37.3693 31.7371 38.5786 31.7749 39.8068C31.7938 40.1091 31.6993 40.1847 31.397 40.1847C27.2589 40.1658 23.1207 40.1847 18.9637 40.1847C18.7558 40.1847 18.5669 40.1847 18.359 40.1847C19.4172 40.3926 20.4564 40.676 21.439 41.1295C25.3126 42.9246 27.6746 45.8912 28.4871 50.086C28.5627 50.4828 28.6193 50.8607 28.6382 51.2575C28.6382 51.2764 28.6382 51.3142 28.6382 51.3331C28.6382 51.3898 28.6382 51.4276 28.6382 51.4843C28.6382 51.5221 28.6571 51.5599 28.6571 51.5977C28.6571 51.6355 28.6571 51.6733 28.6571 51.7299C28.6005 52.5613 28.5816 53.3928 28.676 54.2242C28.676 54.3186 28.6949 54.432 28.6949 54.5265C28.6193 54.621 28.6382 54.6965 28.6949 54.791C28.6949 55.4713 28.6949 56.1515 28.6949 56.8507C28.6571 56.794 28.6193 56.8129 28.5627 56.8129Z" fill="#1B4A60"/>
<path d="M1.63594 65.4859C2.33507 65.5804 2.86415 65.9205 3.072 66.6197C3.26096 67.2432 3.0909 67.8101 2.61851 68.2447C2.14612 68.6793 1.39029 68.7549 0.842321 68.4714C0.256557 68.1691 -0.0646679 67.5267 0.0109146 66.8842C0.086497 66.2418 0.558887 65.6938 1.20134 65.5426C1.29582 65.5237 1.40919 65.5048 1.50367 65.4859C1.54146 65.4859 1.57925 65.4859 1.63594 65.4859Z" fill="#F7BB4B"/>
<path d="M20.3993 108.851C20.7206 108.738 21.0229 108.568 21.3819 108.568C22.0999 108.587 22.7046 109.021 22.8936 109.683C23.1014 110.401 22.7991 111.138 22.1755 111.497C21.552 111.856 20.7772 111.742 20.2671 111.251C19.7758 110.76 19.6624 109.966 20.0214 109.343C20.1159 109.191 20.2293 109.059 20.3238 108.927C20.3615 108.927 20.3804 108.889 20.3993 108.851Z" fill="#F7BB4B"/>
<path d="M24.2352 91.4674C24.273 91.4674 24.3108 91.4674 24.3675 91.4674C25.2178 91.543 25.8036 92.0532 25.8981 92.809C25.9925 93.5648 25.6146 94.2451 24.8966 94.5096C24.1975 94.7741 23.4416 94.5285 23.007 93.9049C22.3457 92.9035 22.9881 91.6186 24.2352 91.4674Z" fill="#F7BB4B"/>
<path d="M16.2614 96.059C16.5448 96.3992 16.8282 96.7582 16.8282 97.2495C16.8471 97.9675 16.4503 98.591 15.789 98.8178C15.1087 99.0634 14.3529 98.8178 13.9561 98.232C13.5593 97.6463 13.5971 96.8715 14.0317 96.3425C14.4852 95.7945 15.241 95.6055 15.9023 95.889C15.9779 95.9268 16.0724 95.9645 16.148 96.0023C16.1858 96.0212 16.2236 96.0401 16.2614 96.059Z" fill="#F7BB4B"/>
<path d="M28.7134 72.9497C29.9416 73.1387 30.3762 74.3291 30.0361 75.1227C29.7338 75.8407 29.0157 76.2375 28.2221 76.0864C27.523 75.9541 26.9939 75.3117 26.9939 74.5747C26.975 73.8189 27.5041 73.1576 28.241 73.0064C28.3355 72.9875 28.4489 72.9686 28.5622 72.9497C28.6 72.9497 28.6567 72.9497 28.7134 72.9497Z" fill="#F7BB4B"/>
<path d="M12.7089 102.767C13.7104 103.731 13.2569 104.997 12.4255 105.412C11.7641 105.734 10.9894 105.601 10.517 105.053C10.0446 104.505 9.98796 103.712 10.4037 103.107C10.8194 102.521 11.5752 102.276 12.2743 102.54C12.3877 102.578 12.4822 102.635 12.5956 102.691C12.6333 102.729 12.6711 102.748 12.7089 102.767Z" fill="#F7BB4B"/>
<path d="M7.05927 84.7406C7.7773 84.8539 8.28749 85.2318 8.45755 85.9688C8.60871 86.6112 8.41975 87.1592 7.90957 87.556C7.39939 87.9717 6.68136 88.0095 6.11449 87.6694C5.56652 87.3482 5.28308 86.7435 5.37756 86.0821C5.47204 85.4586 5.92553 84.9484 6.54909 84.7783C6.64357 84.7594 6.71915 84.7406 6.81363 84.7217C6.83252 84.7217 6.87031 84.7217 6.88921 84.7217C6.90811 84.7217 6.9459 84.7217 6.96479 84.7217C7.00258 84.7217 7.02148 84.7217 7.05927 84.7406Z" fill="#F7BB4B"/>
<path d="M20.3993 108.851C20.3804 108.889 20.3426 108.908 20.3237 108.946C19.5868 108.152 19.2656 107.245 19.549 106.168C19.6435 105.809 19.8513 105.507 20.0781 105.205C20.9473 104.052 20.9473 103.013 20.097 101.86C19.2089 100.651 19.2089 99.5736 20.1159 98.3643C20.9473 97.2494 20.9473 96.2102 20.1159 95.0954C19.2089 93.8671 19.2089 92.7901 20.1159 91.5808C20.9473 90.4848 20.9284 89.4267 20.097 88.3118C19.19 87.1025 19.19 85.9877 20.1159 84.7972C20.9095 83.758 20.9284 82.6431 20.1348 81.585C19.19 80.319 19.19 79.2608 20.1159 77.9948C20.9095 76.9178 20.9095 75.8596 20.1159 74.7826C19.1711 73.4977 19.1711 72.4584 20.1159 71.1924C20.3993 70.8145 20.6072 70.4177 20.6828 69.9453C20.7205 69.6808 20.6639 69.6241 20.4182 69.6241C19.4545 69.643 18.5098 69.6241 17.5461 69.6241C17.4705 69.6241 17.3949 69.6052 17.3193 69.6052C17.6406 69.4918 17.9807 69.5674 18.3019 69.5485C19.0199 69.5296 19.7569 69.5485 20.4749 69.5485C20.6261 69.5485 20.7583 69.5296 20.8906 69.6241C20.7961 70.4366 20.3804 71.0601 19.9269 71.7215C19.3412 72.5718 19.3979 73.5921 20.0592 74.4991C20.4371 75.0093 20.7961 75.5384 20.815 76.2186C20.8528 76.9556 20.6261 77.5791 20.1726 78.1271C19.7758 78.5995 19.5301 79.1286 19.5301 79.7521C19.5112 80.4513 19.8136 80.9992 20.2293 81.5283C20.7961 82.2274 20.9473 83.0211 20.7394 83.8903C20.645 84.2871 20.4182 84.6083 20.1726 84.9295C19.3034 86.0633 19.3034 87.1025 20.1726 88.2362C21.0607 89.4267 21.0607 90.5226 20.1726 91.7319C19.3223 92.8657 19.2845 93.886 20.1726 95.0009C21.0418 96.0968 21.0229 97.4951 20.1726 98.5344C19.2845 99.6492 19.2845 100.67 20.1726 101.784C21.0796 102.937 20.9284 104.279 20.3237 105.091C19.2656 106.584 19.2845 107.34 20.3993 108.851Z" fill="#4E4B47"/>
<path d="M12.7091 102.767C12.6713 102.748 12.6335 102.71 12.5957 102.691C12.9925 102.2 13.2192 101.633 13.2948 101.029C13.3515 100.632 13.1814 100.197 12.9925 99.8381C12.8602 99.5736 12.6902 99.3469 12.5201 99.1012C11.7643 98.0242 11.7643 96.8526 12.539 95.7756C12.8224 95.3977 13.087 95.0009 13.2003 94.5096C13.3704 93.6971 13.2003 92.979 12.6902 92.3366C12.0477 91.543 11.8399 90.6738 12.0855 89.6912C12.18 89.2944 12.4256 88.9732 12.6524 88.6519C13.4838 87.5182 13.5216 86.4223 12.6524 85.3263C11.8021 84.2493 11.7643 82.7376 12.6524 81.6228C13.5027 80.5457 13.5027 79.4309 12.6335 78.3349C11.7643 77.239 11.7832 75.7274 12.6146 74.6692C13.5027 73.5544 13.446 72.4773 12.6146 71.3247C12.2933 70.8712 11.9721 70.4177 11.991 69.813C12.0099 69.813 12.0288 69.813 12.0666 69.813C12.18 70.4177 12.4823 70.909 12.8413 71.4003C13.5782 72.4017 13.5594 73.611 12.8413 74.6125C12.4445 75.1605 12.1044 75.7085 12.0855 76.4076C12.0666 77.0689 12.2556 77.6547 12.6902 78.1271C13.5971 79.1664 13.5405 80.7536 12.6902 81.8117C11.8399 82.851 11.8587 83.9847 12.6902 85.0618C13.2759 85.8365 13.5216 86.6679 13.2948 87.6316C13.2003 88.0473 12.9736 88.3874 12.7279 88.7086C11.8776 89.8802 11.8776 90.9383 12.7279 92.1098C13.616 93.3192 13.616 94.434 12.7279 95.6622C11.8587 96.8715 11.8587 97.9108 12.7468 99.1201C12.9925 99.4602 13.2381 99.8193 13.2948 100.254C13.3137 100.405 13.4271 100.556 13.2381 100.67C13.2003 100.688 13.2003 100.821 13.2192 100.896C13.4838 101.539 13.1436 102.011 12.8224 102.502C12.7846 102.635 12.7468 102.71 12.7091 102.767Z" fill="#4E4B47"/>
<path d="M16.2613 96.059C16.2235 96.0401 16.1857 96.0212 16.148 96.0023C16.2613 95.8701 16.3747 95.7378 16.4692 95.6055C17.1494 94.7552 17.1494 93.7727 16.4692 92.9035C16.1102 92.45 15.7322 92.0154 15.7134 91.3729C15.6756 90.7116 15.8645 90.1636 16.2802 89.6534C17.225 88.5197 17.225 87.6505 16.2991 86.5356C15.4677 85.5153 15.4488 84.4949 16.2991 83.4746C16.7904 82.8888 17.0738 82.2463 16.9038 81.4716C16.8282 81.0748 16.6203 80.7536 16.3558 80.4702C15.4299 79.5254 15.4866 78.146 16.3747 77.1823C17.1872 76.2942 17.1683 75.255 16.3936 74.348C15.7889 73.6488 15.5433 72.893 15.7889 72.0049C15.8834 71.6648 16.0913 71.4003 16.318 71.1357C16.6014 70.7956 16.8849 70.4366 16.9416 69.9642C16.9605 69.8319 16.9983 69.6997 16.8471 69.6241C16.9605 69.5485 17.0549 69.5674 17.1683 69.6241C17.0738 70.3799 16.6581 70.9468 16.2046 71.5325C15.6378 72.2695 15.6945 73.1764 16.2424 73.9323C16.3558 74.0834 16.4881 74.2346 16.6203 74.4047C17.2817 75.255 17.2817 76.3131 16.6203 77.1634C16.4692 77.3524 16.318 77.5224 16.1857 77.7303C15.6945 78.4483 15.6945 79.3175 16.2046 80.0356C16.318 80.2056 16.4692 80.3757 16.6014 80.5268C17.3195 81.4527 17.3006 82.5109 16.5637 83.399C16.2991 83.7202 16.0346 84.0225 15.9212 84.4382C15.7134 85.1941 15.8834 85.8554 16.3936 86.4412C16.7904 86.8947 17.0927 87.367 17.1116 87.9906C17.1305 88.6708 16.8849 89.2377 16.4503 89.729C15.9212 90.3148 15.7134 90.9761 15.9023 91.7508C15.9779 92.0532 16.1291 92.3366 16.3369 92.5444C17.3573 93.527 17.4329 94.9064 16.2613 96.059Z" fill="#4E4B47"/>
<path d="M1.63593 65.4859C1.59814 65.4859 1.54145 65.4859 1.50366 65.4859C1.50366 59.2693 1.50366 53.0526 1.50366 46.8549C1.54145 46.8549 1.57924 46.8549 1.61704 46.8549C1.61704 47.006 1.63593 47.1761 1.63593 47.3273C1.63593 53.0715 1.63593 58.8347 1.63593 64.5789C1.63593 64.8624 1.63593 65.1269 1.65483 65.4104C1.63593 65.4292 1.63593 65.467 1.63593 65.4859Z" fill="#4E4B47"/>
<path d="M7.05912 84.7406C7.02133 84.7406 7.00244 84.7217 6.96465 84.7217C6.94575 84.6839 6.92685 84.6461 6.90796 84.6083C6.90796 84.5516 6.90796 84.4949 6.90796 84.4571C6.90796 78.2027 6.90796 71.9671 6.90796 65.7127C6.90796 65.6182 6.92685 65.5237 6.92685 65.4293C6.96465 65.4293 7.00244 65.4104 7.04023 65.4104C7.04023 65.7127 7.05912 66.015 7.05912 66.3173C7.05912 72.4584 7.05912 78.5995 7.05912 84.7406Z" fill="#4E4B47"/>
<path d="M28.7135 72.9497C28.6568 72.9497 28.6001 72.9497 28.5435 72.9497C28.5435 67.6589 28.5435 62.3682 28.5435 57.0774C28.5435 56.9829 28.5624 56.8884 28.5624 56.794C28.6001 56.794 28.6568 56.794 28.6946 56.794C28.6946 57.3419 28.6946 57.871 28.6946 58.419C28.7135 63.2752 28.7135 68.1124 28.7135 72.9497Z" fill="#CF514A"/>
<path d="M6.92674 65.4292C6.92674 65.5237 6.90785 65.6182 6.90785 65.7127C6.90785 71.9671 6.90785 78.2027 6.90785 84.4571C6.90785 84.5138 6.90785 84.5705 6.90785 84.6083C6.90785 84.6461 6.88895 84.6839 6.88895 84.7217C6.87006 84.7217 6.83226 84.7217 6.81337 84.7217C6.81337 77.1634 6.81337 69.6052 6.81337 62.028C6.81337 61.858 6.73779 61.6501 6.90785 61.499C6.90785 62.8217 6.92674 64.1255 6.92674 65.4292Z" fill="#FFFEF7"/>
<path d="M1.65498 65.4104C1.65498 65.1269 1.63608 64.8624 1.63608 64.5789C1.63608 58.8347 1.63608 53.0715 1.63608 47.3273C1.63608 47.1761 1.61719 47.006 1.61719 46.8549C1.63608 46.5147 1.63608 46.1746 1.65498 45.8345C1.76835 45.9479 1.73056 46.1179 1.73056 46.2502C1.73056 52.5047 1.73056 58.7591 1.73056 65.0135C1.71167 65.1269 1.76835 65.2781 1.65498 65.4104Z" fill="#FFFEF7"/>
<path d="M12.6333 69.6052C12.7845 69.5107 12.9734 69.5485 13.1435 69.5485C14.1827 69.5485 15.2409 69.5485 16.2802 69.5485C16.4124 69.5485 16.5636 69.5107 16.6959 69.6052C15.3354 69.643 13.9938 69.643 12.6333 69.6052Z" fill="#4E4B47"/>
<path d="M28.6943 54.1864C28.5998 53.355 28.6376 52.5236 28.6754 51.6921C28.751 52.5236 28.7132 53.355 28.6943 54.1864Z" fill="#CF514A"/>
<path d="M9.15649 69.6052C9.9879 69.5296 10.8382 69.5107 11.6696 69.6052C10.8382 69.643 10.0068 69.643 9.15649 69.6052Z" fill="#4E4B47"/>
<path d="M6.96462 61.0266C6.98352 61.1588 7.02131 61.31 6.92683 61.4423C6.90793 61.2911 6.90793 61.1588 6.96462 61.0266Z" fill="#CF514A"/>
<path d="M28.7137 54.7532C28.657 54.6588 28.6381 54.5832 28.7137 54.4887C28.7326 54.5832 28.7326 54.6588 28.7137 54.7532Z" fill="#CF514A"/>
<path d="M11.9155 69.6052C12.0289 69.5674 12.01 69.643 11.9911 69.7186C11.9722 69.6808 11.9533 69.643 11.9155 69.6052Z" fill="#4E4B47"/>
<path d="M28.6567 51.3142C28.6567 51.2953 28.6567 51.2575 28.6567 51.2386C28.6567 51.2575 28.6756 51.2764 28.6756 51.2953L28.6567 51.3142Z" fill="#CF514A"/>
<path d="M28.6756 51.5599C28.6756 51.5221 28.6567 51.4843 28.6567 51.4465C28.6945 51.5032 28.7134 51.5221 28.6756 51.5599Z" fill="#CF514A"/>
<path d="M8.89194 68.9249C8.89194 68.9627 8.89194 68.9816 8.89194 69.0194C8.89194 69.0005 8.87305 68.9816 8.87305 68.9627C8.87305 68.9438 8.87305 68.9249 8.89194 68.9249Z" fill="#4E4B47"/>
<path d="M12.0852 69.643C12.0852 69.5863 12.1041 69.5485 12.1608 69.6052C12.123 69.6241 12.1041 69.6241 12.0852 69.643Z" fill="#4E4B47"/>
<path d="M15.2599 61.8958C15.2977 61.8769 15.3543 61.858 15.3921 61.858C15.3921 61.8769 15.3921 61.8769 15.411 61.8958C15.3543 61.8958 15.2977 61.8958 15.2599 61.8958C15.241 61.8958 15.2599 61.8958 15.2599 61.8958Z" fill="#F2EEE3"/>
<path d="M6.88892 84.7217C6.88892 84.6839 6.90781 84.6461 6.90781 84.6083C6.92671 84.6461 6.9456 84.6839 6.9645 84.7217C6.9456 84.7217 6.92671 84.7217 6.88892 84.7217Z" fill="#CF514A"/>
</g>
</svg>
