<svg width="191" height="186" viewBox="0 0 191 186" fill="none" xmlns="http://www.w3.org/2000/svg">
    <g clip-path="url(#clip0)">
        <path d="M120.85 41.788H69.5548C68.3859 41.7894 67.2653 42.2544 66.4387 43.081C65.6122 43.9075 65.1472 45.0282 65.1457 46.1971V160.201L64.5579 160.38L51.9743 164.234C51.378 164.416 50.7338 164.354 50.1833 164.061C49.6328 163.768 49.2209 163.269 49.038 162.673L11.6077 40.4094C11.4256 39.8131 11.4877 39.1688 11.7803 38.6181C12.073 38.0675 12.5723 37.6556 13.1686 37.473L32.5598 31.5354L88.7755 14.3283L108.167 8.3907C108.462 8.29988 108.772 8.26814 109.079 8.2973C109.387 8.32647 109.685 8.41596 109.958 8.56066C110.231 8.70536 110.472 8.90243 110.669 9.14058C110.865 9.37874 111.013 9.65331 111.103 9.94857L120.671 41.2001L120.85 41.788Z" fill="#F2F2F2" />
        <path d="M132.043 41.2001L120.512 3.53482C120.32 2.90724 120.007 2.32362 119.589 1.8173C119.172 1.31099 118.658 0.8919 118.079 0.583987C117.499 0.276074 116.865 0.0853677 116.212 0.0227738C115.558 -0.0398201 114.899 0.0269247 114.272 0.219187L87.0089 8.56411L30.7961 25.7742L3.53333 34.1221C2.26684 34.511 1.2064 35.3865 0.584757 36.5564C-0.0368824 37.7264 -0.168927 39.0952 0.217612 40.3624L39.6289 169.087C39.9429 170.11 40.5765 171.005 41.4367 171.642C42.2969 172.278 43.3384 172.622 44.4085 172.623C44.9037 172.623 45.3961 172.549 45.8692 172.403L64.5579 166.683L65.1458 166.5V165.886L64.5579 166.065L45.6959 171.841C44.578 172.182 43.3705 172.065 42.3384 171.517C41.3063 170.969 40.5338 170.034 40.1904 168.916L0.782094 40.189C0.61193 39.6355 0.552624 39.0538 0.607568 38.4774C0.662513 37.9009 0.830625 37.3409 1.10229 36.8295C1.37395 36.3181 1.74383 35.8653 2.19074 35.4971C2.63764 35.1288 3.15279 34.8524 3.7067 34.6835L30.9695 26.3356L87.1824 9.12847L114.445 0.780616C114.865 0.6524 115.302 0.587025 115.741 0.586615C116.684 0.588732 117.601 0.892652 118.359 1.45386C119.116 2.01507 119.674 2.80407 119.951 3.7053L131.429 41.2001L131.611 41.788H132.223L132.043 41.2001Z" fill="#3F3D56" />
        <path d="M36.0589 37.5691C35.4924 37.5687 34.9409 37.3868 34.4854 37.0499C34.0298 36.7131 33.6942 36.2392 33.5277 35.6977L29.7417 23.3312C29.64 22.999 29.6047 22.65 29.6378 22.3042C29.6709 21.9583 29.7719 21.6224 29.9349 21.3156C30.0979 21.0088 30.3197 20.7371 30.5877 20.5161C30.8557 20.295 31.1646 20.1289 31.4969 20.0272L83.2121 4.19458C83.883 3.98986 84.6077 4.05968 85.2272 4.38872C85.8466 4.71775 86.3102 5.27912 86.5162 5.9496L90.3023 18.3163C90.5068 18.9871 90.437 19.7118 90.1079 20.3312C89.7789 20.9506 89.2177 21.4142 88.5472 21.6203L36.8318 37.453C36.5814 37.5299 36.3209 37.569 36.0589 37.5691Z" fill="#131529" />
        <path d="M55.8917 13.2115C59.1385 13.2115 61.7705 10.5795 61.7705 7.33275C61.7705 4.086 59.1385 1.45398 55.8917 1.45398C52.645 1.45398 50.0129 4.086 50.0129 7.33275C50.0129 10.5795 52.645 13.2115 55.8917 13.2115Z" fill="#131529" />
        <path d="M55.8918 11.0553C57.9478 11.0553 59.6144 9.38868 59.6144 7.33273C59.6144 5.27678 57.9478 3.61011 55.8918 3.61011C53.8359 3.61011 52.1692 5.27678 52.1692 7.33273C52.1692 9.38868 53.8359 11.0553 55.8918 11.0553Z" fill="white" />
        <path d="M177.136 171.121H77.7851C77.1227 171.12 76.4876 170.857 76.0192 170.388C75.5509 169.92 75.2874 169.285 75.2866 168.622V49.5773C75.2874 48.9149 75.5508 48.2799 76.0192 47.8115C76.4876 47.3431 77.1227 47.0796 77.7851 47.0789H177.136C177.799 47.0796 178.434 47.3431 178.902 47.8115C179.371 48.2799 179.634 48.9149 179.635 49.5773V168.622C179.634 169.285 179.371 169.92 178.902 170.388C178.434 170.857 177.799 171.12 177.136 171.121Z" fill="#E6E6E6" />
        <path d="M131.429 41.2001H69.5548C68.2301 41.2019 66.9602 41.729 66.0235 42.6657C65.0868 43.6024 64.5597 44.8723 64.5579 46.197V166.065L65.1457 165.886V46.197C65.1472 45.0281 65.6121 43.9075 66.4387 43.0809C67.2653 42.2544 68.3859 41.7894 69.5548 41.788H131.611L131.429 41.2001ZM185.367 41.2001H69.5548C68.2301 41.2019 66.9602 41.729 66.0235 42.6657C65.0868 43.6024 64.5597 44.8723 64.5579 46.197V180.821C64.5597 182.146 65.0868 183.416 66.0235 184.352C66.9602 185.289 68.2301 185.816 69.5548 185.818H185.367C186.691 185.816 187.961 185.289 188.898 184.352C189.835 183.416 190.362 182.146 190.364 180.821V46.197C190.362 44.8723 189.835 43.6024 188.898 42.6657C187.961 41.729 186.691 41.2019 185.367 41.2001ZM189.776 180.821C189.774 181.99 189.309 183.11 188.483 183.937C187.656 184.764 186.536 185.229 185.367 185.23H69.5548C68.3859 185.229 67.2653 184.764 66.4387 183.937C65.6121 183.11 65.1472 181.99 65.1457 180.821V46.197C65.1472 45.0281 65.6121 43.9075 66.4387 43.0809C67.2653 42.2544 68.3859 41.7894 69.5548 41.788H185.367C186.536 41.7894 187.656 42.2544 188.483 43.0809C189.309 43.9075 189.774 45.0281 189.776 46.197V180.821Z" fill="#3F3D56" />
        <path d="M154.503 54.1334H100.418C99.717 54.1326 99.0446 53.8536 98.5486 53.3577C98.0527 52.8617 97.7737 52.1893 97.7729 51.4879V38.5546C97.7737 37.8533 98.0527 37.1808 98.5487 36.6849C99.0446 36.1889 99.717 35.91 100.418 35.9092H154.503C155.204 35.91 155.877 36.1889 156.373 36.6849C156.869 37.1808 157.148 37.8533 157.149 38.5546V51.4879C157.148 52.1893 156.869 52.8617 156.373 53.3577C155.877 53.8536 155.204 54.1326 154.503 54.1334Z" fill="#131529" />
        <path d="M127.461 36.791C130.708 36.791 133.34 34.159 133.34 30.9122C133.34 27.6655 130.708 25.0334 127.461 25.0334C124.214 25.0334 121.582 27.6655 121.582 30.9122C121.582 34.159 124.214 36.791 127.461 36.791Z" fill="#131529" />
        <path d="M127.461 34.493C129.438 34.493 131.042 32.8898 131.042 30.9123C131.042 28.9347 129.438 27.3315 127.461 27.3315C125.483 27.3315 123.88 28.9347 123.88 30.9123C123.88 32.8898 125.483 34.493 127.461 34.493Z" fill="white" />
    </g>
    <defs>
        <clipPath id="clip0">
            <rect width="190.364" height="185.818" fill="white" />
        </clipPath>
    </defs>
</svg>