<svg width="89" height="122" viewBox="0 0 89 122" fill="none" xmlns="http://www.w3.org/2000/svg">
<g clip-path="url(#clip0)">
<g clip-path="url(#clip1)">
<path d="M95 19.7406C95 23.0859 95 26.4312 95 29.7764C91.5351 32.84 88.4202 36.2557 84.9204 39.8474C87.2653 39.8474 89.1202 39.8474 90.9751 39.8474C86.0053 41.256 81.8055 43.6857 78.6556 47.7352C75.4358 51.8552 74.1408 56.5385 74.4208 61.7501C74.8758 70.5182 80.8605 77.1031 91.8151 80.5188C84.9554 80.5188 78.3056 80.5188 71.6559 80.5188C71.2709 80.4131 70.8859 80.3075 70.5009 80.2371C62.2063 78.7229 55.4516 71.9972 54.0866 63.8629C53.9816 63.3699 53.8416 62.8417 53.7366 62.3487C53.5966 62.9473 53.4566 63.5108 53.7716 64.039C53.7366 64.3207 53.7366 64.5672 53.7016 64.8489C53.7016 69.9196 53.7016 74.9551 53.7016 80.0258C53.4916 80.061 53.2816 80.1314 53.0717 80.1666C50.5868 77.6665 48.1019 75.2016 45.652 72.6662C44.357 71.3633 42.8521 70.2365 41.8721 68.6519C42.0471 68.511 42.2221 68.335 42.3971 68.1941C47.7169 63.7573 48.4868 56.5737 44.217 51.4326C40.0522 46.4323 32.7375 45.7985 27.3477 49.9536C26.4377 50.6579 25.4928 51.327 24.5478 51.996C24.0228 51.4326 23.5328 50.8692 23.0079 50.341C19.543 46.8549 16.0781 43.404 12.6133 39.9179C17.1631 39.8826 21.7129 39.8474 26.2627 39.8474C29.5526 39.8474 32.8425 39.8474 36.1323 39.8474C41.2771 39.8474 46.4219 39.9179 51.5667 39.8474C53.1066 39.8122 53.5266 40.27 53.5266 41.7842C53.4916 45.1646 53.2816 48.5451 53.6316 51.8904C53.6316 52.3481 53.6316 52.7707 53.6316 53.2285C53.3866 53.7567 53.3866 54.3201 53.6316 54.8483C53.6666 55.4821 53.6666 56.116 53.7016 56.7498C53.4916 57.0667 53.4216 57.4189 53.5616 57.8414C53.9116 57.5597 53.9466 57.2076 53.9116 56.8554C54.8916 51.8199 57.3415 47.6648 61.3663 44.4252C64.3412 41.9954 67.8411 40.763 71.5509 39.9883C72.3209 39.9883 73.1259 39.9883 73.6158 39.9883C67.0011 33.2625 60.3864 26.5368 53.7716 19.7759C53.7366 19.7054 53.7716 19.635 53.8066 19.5646C60.6663 19.5646 67.5261 19.5294 74.4208 19.5294C74.4208 26.1495 74.4208 32.7696 74.4208 39.4953C75.1558 39.284 75.4708 38.7558 75.8557 38.3685C81.7355 32.4526 87.6153 26.6424 93.495 20.8322C93.95 20.4097 94.265 19.8111 95 19.7406Z" fill="#F5EBD2"/>
<path d="M71.5859 80.5188C78.2356 80.5188 84.8853 80.5188 91.7451 80.5188C80.7905 77.1031 74.8057 70.5182 74.3508 61.7501C74.0708 56.5385 75.4007 51.8552 78.5856 47.7352C81.7355 43.6857 85.9703 41.256 90.9051 39.8474C89.0502 39.8474 87.1952 39.8474 84.8503 39.8474C88.3502 36.2557 91.5001 32.84 94.9299 29.7764C94.9299 36.5726 94.9299 43.3688 94.9299 50.1649C89.2952 49.8832 84.6054 54.4962 84.5704 60.3768C84.5354 65.7996 89.5052 70.5182 94.9299 70.2013C94.9299 87.2445 94.9299 104.288 94.9299 121.331C81.1755 121.331 67.421 121.296 53.6666 121.296C53.8766 112.528 47.2619 103.971 38.4422 101.647C37.4973 101.4 36.4823 101.506 35.6423 100.907C35.7473 100.837 35.8173 100.731 35.9223 100.731C46.4569 98.7945 53.1766 91.2236 53.7716 80.5892C59.7214 80.554 65.6711 80.554 71.5859 80.5188ZM74.3508 81.2935C73.9308 81.223 73.7208 81.54 73.5108 81.7865C67.281 87.9136 61.1213 94.0759 54.8566 100.133C53.8766 101.083 54.5766 101.435 55.1365 101.999C61.0863 107.88 67.0711 113.76 73.0208 119.641C73.4058 120.028 73.6858 120.627 74.3508 120.627C74.4908 120.556 74.6658 120.486 74.8057 120.38C81.1055 114.183 87.3702 107.95 93.705 101.788C94.6499 100.872 94.02 100.45 93.46 99.8861C88.4202 94.8858 83.3454 89.8855 78.3056 84.9204C76.9757 83.688 75.8557 82.3147 74.3508 81.2935Z" fill="#172842"/>
<path d="M26.2278 39.777C21.678 39.8122 17.1281 39.8474 12.5783 39.8474C12.4733 39.777 12.3683 39.8122 12.2633 39.8826C7.25854 39.8474 2.25374 39.777 -2.75106 39.7418C-1.91109 31.9244 -4.67598 25.6565 -11.2207 21.1844C-16.6455 17.4518 -22.6653 16.9236 -28.965 18.7194C-28.965 12.5571 -28.93 6.43 -29 0.302891C-29 -0.859147 -28.65 -1 -27.6351 -1C-14.3356 -0.964787 -1.07113 -0.964787 12.2283 -0.964787C12.2983 2.83825 12.3683 6.64128 12.4383 10.4443C12.4033 13.2966 12.4033 16.1841 12.2983 19.0364C12.2633 20.0928 12.6483 20.5153 13.6283 20.8322C19.1931 22.5225 24.5128 21.9943 29.6226 19.3533C30.1126 19.1068 30.4976 18.5786 31.1626 18.7194C29.3426 20.9379 27.5927 23.2267 26.5428 25.9382C24.7578 30.5159 24.9328 35.1288 26.2278 39.777ZM2.67372 17.7687C4.70364 17.7335 6.27858 16.2545 6.24358 14.3178C6.24358 12.381 4.45865 10.726 2.46373 10.7964C0.538811 10.8669 -1.07113 12.5571 -1.03613 14.3882C-0.931131 16.3601 0.643805 17.8039 2.67372 17.7687ZM19.893 33.5442C19.893 32.3118 18.7731 31.2202 17.5481 31.2202C16.2882 31.2202 15.2382 32.2766 15.2382 33.5442C15.2382 34.8119 16.2882 35.8683 17.5481 35.8683C18.8081 35.8683 19.893 34.7767 19.893 33.5442Z" fill="#172842"/>
<path d="M-2.75102 39.7418C2.25378 39.777 7.25858 39.8474 12.2634 39.8826V40.0235C9.00851 43.1574 5.75364 46.2914 2.56877 49.4958C1.6938 50.3762 1.16882 50.5874 0.0138702 49.7775C-5.20092 46.1858 -12.3756 46.6083 -17.1354 50.6579C-22.1052 54.8835 -23.5402 61.6444 -20.8453 67.4194C-20.3203 68.5814 -18.7104 69.5322 -19.2004 70.7647C-19.6903 71.9267 -21.0203 72.7718 -22.0352 73.7226C-23.2602 74.8494 -24.3802 76.1171 -25.6751 77.1735C-26.7601 78.0538 -27.6 79.2158 -28.72 80.4835C-14.8605 80.4835 -1.28108 80.4835 12.2984 80.4835C12.3684 80.5187 12.4734 80.554 12.5434 80.5892C17.7582 85.8007 22.9729 91.0123 28.2227 96.1887C29.7277 97.6676 31.0926 99.3226 32.8425 100.555C32.8425 100.661 32.8075 100.802 32.8075 100.907L32.8425 100.872C32.1076 100.872 31.3726 100.872 30.6376 100.907C30.3576 100.837 30.0777 100.696 29.7977 100.661C20.873 98.9705 15.2383 93.7942 12.8584 85.0965C12.7534 84.7443 12.6134 84.3922 12.4734 84.0401C12.3684 84.0401 12.2984 84.0753 12.1934 84.0753C12.1934 86.2937 12.1934 88.5122 12.1934 90.7306C-0.826097 90.7306 -13.8806 90.7306 -26.9 90.7306C-27.6 90.7306 -28.3 90.801 -28.965 90.8714C-28.965 70.7294 -28.965 50.5522 -28.965 30.4102C-28.825 30.4102 -28.65 30.3398 -28.51 30.2694C-25.1151 27.7692 -21.4753 27.2762 -17.7654 29.4595C-14.1256 31.6075 -12.6906 34.8471 -13.4956 39.0023C-13.6706 39.8122 -13.2506 39.8474 -12.6556 39.8474C-9.36575 39.777 -6.04089 39.777 -2.75102 39.7418Z" fill="#F5EBD2"/>
<path d="M12.2284 90.801C12.2284 88.5826 12.2284 86.3642 12.2284 84.1457C12.3334 84.1457 12.4034 84.1105 12.5084 84.1105C12.6484 84.4626 12.7884 84.8148 12.8933 85.1669C15.2733 93.8646 20.908 99.0409 29.8327 100.731C30.1127 100.802 30.3926 100.907 30.6726 100.978C30.4626 101.048 30.2526 101.189 30.0077 101.224C20.0681 103.09 13.7333 109.675 12.3684 119.535C12.3334 117.422 12.2284 115.274 12.3334 113.161C12.4034 111.647 12.0184 111.119 10.3735 111.154C-2.22604 111.225 -14.8255 111.19 -27.425 111.19C-27.95 111.19 -28.44 111.295 -28.965 111.33C-28.965 107.879 -28.965 104.429 -28.965 100.978C-27.46 100.978 -25.9551 100.978 -24.4501 100.978C-12.7606 100.978 -1.10609 100.978 10.5834 100.978C11.5984 100.978 12.3684 101.013 12.2984 99.6044C12.1934 96.6464 12.2284 93.7237 12.2284 90.801Z" fill="#172842"/>
<path d="M12.2283 90.801C12.2633 93.7237 12.1933 96.6817 12.3333 99.6044C12.4033 101.013 11.6333 100.978 10.6184 100.978C-1.07117 100.942 -12.7257 100.978 -24.4152 100.978C-25.9202 100.978 -27.4251 100.978 -28.9301 100.978C-28.9301 97.6324 -28.9301 94.2871 -28.9301 90.9419C-28.2301 90.9067 -27.5301 90.801 -26.8651 90.801C-13.8457 90.801 -0.826181 90.801 12.2283 90.801Z" fill="#D5395E"/>
<path d="M12.3684 121.296C-1.42108 121.331 -15.1755 121.331 -28.965 121.366C-28.965 118.021 -28.965 114.676 -28.965 111.33C-28.44 111.295 -27.95 111.19 -27.425 111.19C-14.8255 111.19 -2.22605 111.225 10.3734 111.154C12.0184 111.154 12.4034 111.647 12.3334 113.161C12.2284 115.274 12.3334 117.422 12.3684 119.535C12.3684 120.134 12.3684 120.697 12.3684 121.296Z" fill="#EAC686"/>
<path d="M31.1626 18.6842C30.4976 18.5434 30.1126 19.0716 29.6226 19.3181C24.4778 21.9591 19.158 22.4873 13.6283 20.797C12.6483 20.4801 12.2633 20.0575 12.2983 19.0011C12.4033 16.1489 12.4033 13.2614 12.4383 10.4091C14.9232 12.3106 17.6881 13.2966 20.838 13.0149C27.8727 12.381 32.7025 5.83138 31.0926 -1C34.1024 -1 37.1473 -1 40.1572 -1C40.6122 5.47924 38.8972 11.1838 34.2424 15.9024C33.6475 17.3109 32.2125 17.8039 31.1626 18.6842Z" fill="#F5EBD2"/>
<path d="M34.2424 15.9376C38.8972 11.219 40.6122 5.47925 40.1572 -0.964783C47.9619 -0.964783 55.7666 -0.964783 63.5362 -0.964783C60.5614 2.13399 57.5515 5.19754 54.5766 8.29631C54.0866 8.7893 53.5967 9.21186 53.6317 10.0218C53.7016 11.5007 53.7016 12.9797 53.7366 14.4586C53.5267 14.4586 53.2817 14.4586 53.0717 14.3882C46.9119 12.1346 40.9622 12.5571 35.2224 15.7615C34.9074 15.9728 34.5924 16.008 34.2424 15.9376ZM48.8718 4.91583C48.8368 3.64816 47.7519 2.66219 46.4569 2.6974C45.127 2.73261 44.217 3.7538 44.287 5.0919C44.357 6.50043 45.232 7.16949 46.5269 7.23991C47.7519 7.31034 48.9068 6.11309 48.8718 4.91583Z" fill="#172842"/>
<path d="M31.0926 -0.964783C32.7026 5.8666 27.8728 12.4515 20.838 13.0501C17.6882 13.3318 14.8883 12.3458 12.4384 10.4443C12.3684 6.64129 12.2984 2.83825 12.2284 -0.964783C18.5281 -0.964783 24.7929 -0.964783 31.0926 -0.964783Z" fill="#D5395E"/>
<path d="M74.0359 -0.964787C80.6856 -0.964787 87.3003 -0.929573 93.9501 -1C94.825 -1 95.035 -0.78872 95.035 0.0563985C95 6.50043 95 12.9445 95 19.4237C94.895 19.4237 94.755 19.3885 94.65 19.3885C94.475 19.1772 94.335 18.8955 94.125 18.7194C87.8603 12.4515 81.5606 6.25394 75.2958 0.0563985C75.0158 -0.225308 74.6659 -0.436587 74.3159 -0.647867C74.2459 -0.647867 74.1759 -0.647867 74.1409 -0.718294C74.1059 -0.823934 74.0709 -0.89436 74.0359 -0.964787Z" fill="#EAC686"/>
<path d="M94.6501 19.3533C94.755 19.3533 94.895 19.3885 95 19.3885C95 19.4941 95 19.635 95 19.7406C94.2651 19.7758 93.9501 20.4097 93.4951 20.8322C87.6153 26.6072 81.7356 32.4174 75.8558 38.2276C75.4708 38.6149 75.1558 39.1431 74.4209 39.3544C74.4209 32.6639 74.4209 26.0438 74.4209 19.3885L74.3859 19.4237C81.1406 19.3885 87.8953 19.3885 94.6501 19.3533Z" fill="#D5395E"/>
<path d="M95 70.2012C89.5752 70.5182 84.6054 65.7996 84.6404 60.3767C84.6754 54.4961 89.3652 49.8832 95 50.1649C95 56.8554 95 63.5107 95 70.2012Z" fill="#D5395E"/>
<path d="M74.0358 -0.964783C74.0708 -0.894356 74.1058 -0.788716 74.1408 -0.71829C73.6159 -0.260517 73.1259 0.197256 72.6359 0.690242C66.3711 6.81735 60.1064 12.9797 53.8416 19.1068C53.8066 17.5574 53.7716 16.008 53.7366 14.4586C53.7016 12.9797 53.7366 11.5007 53.6317 10.0218C53.5967 9.21186 54.0866 8.7893 54.5766 8.29631C57.5515 5.19754 60.5614 2.13399 63.5363 -0.964783C67.0711 -0.964783 70.536 -0.964783 74.0358 -0.964783Z" fill="#F5EBD2"/>
<path d="M12.5433 80.6244C12.4733 80.5892 12.3683 80.554 12.2983 80.5188C12.3333 74.1804 12.3333 67.842 12.3683 61.5036C16.4282 58.2992 20.488 55.13 24.5478 51.9256C25.4928 51.2565 26.4378 50.5875 27.3477 49.8832C32.7025 45.728 40.0172 46.3619 44.217 51.3622C48.4869 56.4681 47.6819 63.6516 42.3971 68.1237C42.2221 68.2646 42.0471 68.4406 41.8721 68.5815C36.8323 72.4901 31.8275 76.3636 26.6128 80.4131C27.1027 80.4836 27.2077 80.554 27.3127 80.554C34.2774 80.554 41.2422 80.554 48.2069 80.5892C48.8019 80.5892 49.4668 80.2723 49.9918 80.8709C42.1871 82.5611 36.8673 87.0332 34.1375 94.4632C33.6125 95.8718 33.3325 97.3859 32.9475 98.8297C31.6876 88.4418 22.6929 80.3779 12.5433 80.6244ZM33.7875 51.8904C29.4476 51.8904 26.1228 55.3061 26.1928 59.6725C26.2278 63.722 29.6926 67.0673 33.8225 67.0673C37.9523 67.0673 41.5222 63.546 41.4872 59.4612C41.4872 55.3765 37.9523 51.8904 33.7875 51.8904Z" fill="#172842"/>
<path d="M53.7367 14.4586C53.7717 16.008 53.8067 17.5574 53.8417 19.1068C53.8417 19.2124 53.8417 19.3181 53.8067 19.4237C53.7717 19.4941 53.7367 19.5645 53.7717 19.635C53.7367 19.811 53.6667 19.9871 53.6317 20.1632C53.2117 21.6069 53.5267 23.0507 53.4217 24.4944C52.7917 24.424 52.4067 23.9662 51.9518 23.6493C45.722 19.4941 37.1474 22.3112 34.7325 29.3538C33.4725 33.016 34.2075 36.4669 36.1324 39.7418C32.8425 39.7418 29.5527 39.7418 26.2628 39.7418C24.9678 35.0936 24.7929 30.4807 26.5428 25.8677C27.5927 23.1211 29.3427 20.8674 31.1626 18.649C32.2126 17.7335 33.6125 17.2405 34.2425 15.8671C34.5925 15.9376 34.9074 15.9024 35.2224 15.7263C40.9622 12.5219 46.912 12.0993 53.0717 14.353C53.2817 14.4586 53.5267 14.4234 53.7367 14.4586Z" fill="#FBFBFA"/>
<path d="M36.1324 39.777C34.2075 36.5022 33.4725 33.0513 34.7325 29.3891C37.1474 22.3112 45.7221 19.5294 51.9518 23.6845C52.4418 24.0014 52.8268 24.4592 53.4217 24.5296C53.4917 24.5649 53.5617 24.6353 53.6317 24.7057C53.6667 29.7412 53.7367 34.7767 53.7717 39.8122C53.7367 43.8265 53.6667 47.8056 53.6317 51.8199C53.2817 48.4395 53.4917 45.0942 53.5267 41.7137C53.5267 40.1996 53.1068 39.7418 51.5668 39.777C46.422 39.8474 41.2772 39.777 36.1324 39.777Z" fill="#EAC686"/>
<path d="M53.8066 19.4237C53.8416 19.3181 53.8416 19.2124 53.8416 19.1068C60.1064 12.9797 66.3711 6.81735 72.6359 0.690239C73.1259 0.197253 73.6508 -0.26052 74.1408 -0.718292C74.1758 -0.683079 74.2458 -0.647866 74.3158 -0.647866C74.3508 6.04266 74.3508 12.7332 74.3858 19.4237L74.4208 19.3885C67.5261 19.4237 60.6664 19.4237 53.8066 19.4237Z" fill="#D5395E"/>
<path d="M53.8067 39.8122C53.7717 34.7767 53.7017 29.7412 53.6667 24.7057C53.6667 23.1915 53.6667 21.7126 53.6317 20.1984C53.6667 20.0223 53.7367 19.8463 53.7717 19.6702C60.3864 26.3959 67.0362 33.1569 73.6159 39.8826C73.1259 39.8826 72.321 39.8826 71.551 39.8826C65.6362 39.8474 59.7215 39.8122 53.8067 39.8122Z" fill="#172842"/>
<path d="M49.9218 80.8709C49.4318 80.2723 48.7318 80.5892 48.1369 80.5892C41.1721 80.554 34.2074 80.554 27.2427 80.554C27.1377 80.554 27.0327 80.5188 26.5427 80.4131C31.7575 76.3636 36.7973 72.4549 41.8021 68.5815C42.7821 70.2013 44.287 71.2929 45.582 72.5958C48.0319 75.1311 50.5168 77.5961 53.0017 80.0962C53.2117 80.061 53.4217 79.9906 53.6316 79.9554C53.6316 74.8847 53.6316 69.8492 53.6316 64.7784C53.6666 65.4123 53.7366 66.0109 53.7366 66.6447C53.7716 71.2929 53.7716 75.9411 53.8066 80.554C53.7016 80.5188 53.6316 80.5188 53.5266 80.5188C52.3367 80.6596 51.1467 80.7653 49.9218 80.8709Z" fill="#EAC686"/>
<path d="M24.5128 51.9256C20.453 55.13 16.3931 58.2992 12.3333 61.5036C12.2983 54.3553 12.2633 47.1718 12.2633 40.0235V39.8826C12.3683 39.8122 12.4733 39.8122 12.5783 39.8474C16.0432 43.3335 19.508 46.7844 22.9729 50.2705C23.5329 50.834 24.0228 51.3974 24.5128 51.9256Z" fill="#EAC686"/>
<path d="M53.8067 39.8122C59.7214 39.8474 65.6362 39.8474 71.5859 39.8826C67.8761 40.6573 64.3762 41.8898 61.4013 44.3195C57.4115 47.5943 54.9266 51.7495 53.9816 56.7498C53.9467 56.6441 53.8767 56.6089 53.7717 56.6794C53.7367 56.0455 53.7367 55.4117 53.7017 54.7778C53.8767 54.2496 53.8417 53.6862 53.7017 53.158C53.7017 52.7003 53.7017 52.2777 53.7017 51.8199C53.7017 47.8056 53.7367 43.7913 53.8067 39.8122Z" fill="#D5395E"/>
<path d="M53.8067 80.5892C53.7717 75.941 53.7717 71.2929 53.7367 66.6799C53.7367 66.0461 53.6667 65.4122 53.6317 64.8136C53.6667 64.5671 53.6667 64.2854 53.7017 64.0389C53.8067 63.9685 53.9117 63.9333 54.0167 63.8629C55.3816 72.0323 62.1364 78.7229 70.431 80.237C70.816 80.3075 71.201 80.4131 71.586 80.5187C65.6712 80.554 59.7215 80.554 53.8067 80.5892Z" fill="#D5395E"/>
<path d="M54.0166 63.8277C53.9117 63.8981 53.8067 63.9333 53.7017 64.0037C53.3867 63.4755 53.5267 62.9121 53.6667 62.3135C53.7717 62.8417 53.9117 63.3347 54.0166 63.8277Z" fill="#EAC686"/>
<path d="M53.6317 53.1228C53.7717 53.651 53.8067 54.2144 53.6317 54.7426C53.3868 54.2144 53.3868 53.6862 53.6317 53.1228Z" fill="#EAC686"/>
<path d="M53.7017 56.6441C53.8067 56.6089 53.8767 56.6089 53.9117 56.7146C53.9117 57.0667 53.8767 57.4188 53.5617 57.7005C53.4217 57.3132 53.4917 56.9611 53.7017 56.6441Z" fill="#EAC686"/>
<path d="M74.3509 120.627C73.6859 120.627 73.4059 120.028 73.0209 119.641C67.0361 113.76 61.0864 107.879 55.1366 101.999C54.5766 101.435 53.9117 101.083 54.8566 100.133C61.1214 94.0407 67.3161 87.9136 73.5109 81.7864C73.7559 81.54 73.9309 81.223 74.3509 81.2935C74.3509 94.3928 74.3509 107.527 74.3509 120.627Z" fill="#F5EBD2"/>
<path d="M74.3508 120.627C74.3508 107.527 74.3508 94.3928 74.3508 81.2935C75.8558 82.3146 76.9757 83.688 78.2357 84.9556C83.3105 89.9207 88.3503 94.921 93.3901 99.9213C93.95 100.485 94.58 100.907 93.635 101.823C87.3003 107.985 81.0356 114.218 74.7358 120.415C74.7008 120.486 74.5258 120.556 74.3508 120.627Z" fill="#D5395E"/>
<path d="M53.7016 121.296C53.6316 121.296 53.5267 121.261 53.4567 121.261C46.9119 114.781 40.3672 108.302 33.8575 101.788C33.5775 101.506 33.2625 101.224 32.8075 101.295C32.8075 101.154 32.8425 101.048 32.8425 100.907L32.8075 100.942C33.7525 100.907 34.7324 100.907 35.6774 100.872C36.5173 101.471 37.5323 101.365 38.4773 101.611C47.2969 104.006 53.9466 112.528 53.7016 121.296Z" fill="#F5EBD2"/>
<path d="M35.6774 100.907C34.7324 100.942 33.7525 100.942 32.8075 100.978C32.8075 100.872 32.8425 100.731 32.8425 100.626L32.8075 100.661C34.1724 100.379 34.8024 99.1466 35.6774 98.3015C41.6621 92.4208 47.5769 86.505 53.4916 80.5892C53.5966 80.5892 53.6666 80.5892 53.7716 80.6244C53.2117 91.2236 46.4569 98.8297 35.9224 100.766C35.8524 100.731 35.7824 100.837 35.6774 100.907Z" fill="#D5395E"/>
<path d="M2.67371 17.7687C0.643793 17.8039 -0.931144 16.3602 -1.00114 14.4234C-1.07114 12.5923 0.573796 10.9021 2.49872 10.8317C4.45864 10.7612 6.24357 12.4163 6.27857 14.353C6.27857 16.2545 4.73863 17.7335 2.67371 17.7687Z" fill="#D5395E"/>
<path d="M19.893 33.5442C19.893 34.7767 18.8081 35.8683 17.5831 35.8683C16.3232 35.8683 15.2732 34.8119 15.2732 33.5442C15.2732 32.2766 16.2882 31.2202 17.5831 31.2202C18.7731 31.2202 19.893 32.3118 19.893 33.5442Z" fill="#EAC686"/>
<path d="M12.2633 40.0235C12.2983 47.1718 12.3333 54.3553 12.3333 61.5036C12.2983 67.842 12.2983 74.1804 12.2633 80.5187C-1.31611 80.5187 -14.8956 80.5187 -28.755 80.5187C-27.635 79.2511 -26.7951 78.089 -25.7101 77.2087C-24.4152 76.1171 -23.2952 74.8846 -22.0703 73.7578C-21.0553 72.807 -19.6904 71.9619 -19.2354 70.7999C-18.7454 69.5674 -20.3553 68.6167 -20.8803 67.4546C-23.5752 61.6796 -22.1053 54.8835 -17.1705 50.6931C-12.4107 46.6436 -5.23595 46.221 -0.0211582 49.8128C1.13379 50.6227 1.65877 50.4114 2.53374 49.5311C5.75361 46.2914 9.04348 43.1927 12.2633 40.0235ZM-8.00084 75.448C-2.08608 75.448 2.98872 72.138 5.26363 66.7856C7.39854 61.7501 6.27859 55.5877 2.46374 51.7143C1.90376 51.1509 1.48378 50.4114 0.538818 51.3974C-5.58594 57.5245 -11.7807 63.6164 -17.9754 69.6731C-18.7104 70.3773 -18.6404 70.8351 -17.9404 71.4689C-15.1056 74.0747 -11.8507 75.4833 -8.00084 75.448Z" fill="#D5395E"/>
<path d="M32.8425 100.942C32.8425 101.083 32.8076 101.189 32.8076 101.33L32.8425 101.295C25.9128 107.809 19.2281 114.605 12.4734 121.296H12.3334C12.3334 120.697 12.3334 120.134 12.3334 119.535C13.6983 109.64 19.9981 103.09 29.9727 101.224C30.1827 101.189 30.3926 101.048 30.6376 100.978C31.3726 100.978 32.1076 100.942 32.8425 100.942Z" fill="#D5395E"/>
<path d="M12.5433 80.6244C22.6929 80.3779 31.6876 88.4418 32.9125 98.8649C32.8775 99.4635 32.8775 100.027 32.8425 100.626L32.8775 100.59C31.1276 99.3579 29.7626 97.7028 28.2577 96.2239C22.9729 91.0475 17.7581 85.836 12.5433 80.6244Z" fill="#D5395E"/>
<path d="M51.0767 121.296C39.1422 121.296 27.1727 121.296 15.2382 121.296C15.3782 121.225 15.5531 121.12 15.6931 121.084C25.0378 119.359 31.3725 112.845 32.8775 103.407C33.4024 103.9 33.2974 104.569 33.4374 105.168C34.9774 111.894 39.0022 116.648 45.267 119.606C47.1219 120.451 49.1168 120.768 51.0767 121.296Z" fill="#172842"/>
<path d="M51.0768 121.296C49.1168 120.768 47.1219 120.451 45.267 119.605C39.0022 116.648 35.0124 111.894 33.4375 105.168C33.2975 104.569 33.4025 103.9 32.8775 103.407C32.8775 102.703 32.8425 101.999 32.8425 101.295L32.8075 101.33C33.2625 101.224 33.5425 101.506 33.8575 101.823C40.4022 108.302 46.9469 114.781 53.4567 121.296C52.6867 121.261 51.8817 121.296 51.0768 121.296Z" fill="#D5395E"/>
<path d="M32.8425 101.295C32.8425 101.999 32.8775 102.703 32.8775 103.407C31.3725 112.845 25.0378 119.359 15.6932 121.084C15.5182 121.12 15.3782 121.225 15.2382 121.296C14.3282 121.296 13.4183 121.296 12.5083 121.296C19.263 114.605 25.9128 107.809 32.8425 101.295Z" fill="#F5EBD2"/>
<path d="M48.8719 4.91582C48.9069 6.11308 47.752 7.31033 46.527 7.2399C45.2321 7.16947 44.3571 6.50042 44.2871 5.09189C44.2171 3.75378 45.1621 2.7326 46.457 2.69739C47.752 2.66217 48.8369 3.64815 48.8719 4.91582Z" fill="#D5395E"/>
<path d="M74.3858 19.4237C74.3508 12.7332 74.3508 6.04267 74.3158 -0.647858C74.6308 -0.401365 74.9808 -0.225298 75.2958 0.056408C81.5955 6.25395 87.8602 12.4867 94.125 18.6842C94.335 18.8955 94.475 19.142 94.65 19.3533C87.8952 19.3885 81.1405 19.3885 74.3858 19.4237Z" fill="#F5EBD2"/>
<path d="M33.7875 51.8904C37.9523 51.8904 41.4872 55.3413 41.4872 59.4612C41.4872 63.5459 37.9523 67.0673 33.8225 67.0673C29.6926 67.0673 26.2278 63.722 26.1928 59.6725C26.1578 55.306 29.4826 51.9256 33.7875 51.8904ZM37.2523 59.0739C37.2173 57.278 35.5374 55.6934 33.7175 55.7638C31.8625 55.8342 30.3576 57.4188 30.3926 59.2499C30.4276 61.081 32.0375 62.5952 33.8925 62.56C35.7474 62.5248 37.3223 60.8697 37.2523 59.0739Z" fill="#D5395E"/>
<path d="M32.8425 100.626C32.8775 100.027 32.8775 99.4635 32.9125 98.8649C33.2975 97.3859 33.5775 95.907 34.1025 94.4984C36.8324 87.0684 42.1522 82.5611 49.9568 80.9061C51.1468 80.8005 52.3717 80.6948 53.5617 80.5892C47.6119 86.505 41.6972 92.4208 35.7474 98.3015C34.8374 99.1114 34.2075 100.344 32.8425 100.626Z" fill="#F5EBD2"/>
<path d="M53.6317 20.1984C53.6317 21.7126 53.6317 23.1915 53.6666 24.7057C53.5967 24.6353 53.5267 24.6001 53.4567 24.5648C53.5267 23.0859 53.2117 21.6069 53.6317 20.1984Z" fill="#F5EBD2"/>
<path d="M-8.00087 75.448C-11.8507 75.4832 -15.1056 74.0395 -17.9055 71.4689C-18.6054 70.8351 -18.6754 70.3773 -17.9405 69.673C-11.7457 63.6164 -5.58597 57.5245 0.573784 51.3974C1.51875 50.4466 1.93873 51.1861 2.4987 51.7143C6.31355 55.5877 7.43351 61.7501 5.29859 66.7856C2.95369 72.1732 -2.12111 75.4832 -8.00087 75.448Z" fill="#172842"/>
<path d="M37.2523 59.0738C37.2873 60.8697 35.7124 62.5248 33.8924 62.56C32.0375 62.5952 30.4276 61.081 30.3926 59.2499C30.3576 57.3836 31.8625 55.799 33.7174 55.7638C35.5374 55.6934 37.2173 57.278 37.2523 59.0738Z" fill="#FBFBFA"/>
</g>
</g>
<defs>
<clipPath id="clip0">
<rect width="89" height="122" rx="5" fill="white"/>
</clipPath>
<clipPath id="clip1">
<rect width="124" height="123" fill="white" transform="translate(-29 -1)"/>
</clipPath>
</defs>
</svg>
