<svg width="89" height="122" viewBox="0 0 89 122" fill="none" xmlns="http://www.w3.org/2000/svg">
<g clip-path="url(#clip0)">
<g clip-path="url(#clip1)">
<path d="M-29.959 60.5C-29.959 54.5854 -29.959 48.6708 -29.959 42.7562C-29.8768 42.7972 -29.7536 42.7972 -29.6715 42.8383C-29.6715 43.0847 -29.6304 43.3312 -29.6304 43.5776C-29.6715 43.9062 -29.5482 44.1937 -29.3429 44.4402C-29.3018 44.6455 -29.3018 44.8509 -29.2607 45.0563V45.0974C-29.1786 45.2617 -29.0964 45.4259 -29.0143 45.5902C-29.0143 45.7135 -29.0143 45.8367 -29.0143 46.001C-29.0143 46.6992 -28.5214 47.2332 -28.316 47.8904C-28.2339 48.0547 -28.1517 48.1779 -28.0696 48.3422C-28.1107 48.794 -27.9053 49.0815 -27.5767 49.369C-27.4535 49.5333 -27.3303 49.7387 -27.2481 49.903C-27.207 49.9851 -27.1249 50.1083 -27.0838 50.1905C-27.0017 50.3548 -26.9195 50.5191 -26.8374 50.6834C-26.7963 50.7245 -26.7552 50.8066 -26.7142 50.8477C-26.632 50.8888 -26.5909 50.9709 -26.5088 51.012C-26.4677 51.0941 -26.3856 51.1763 -26.3445 51.2584C-25.7695 52.2853 -24.9891 53.1478 -24.2087 53.9693C-22.0318 56.2283 -19.5263 57.9124 -16.61 59.0624C-14.1045 60.0482 -11.5169 60.5 -8.80601 60.5822C-8.3542 62.3073 -7.28628 63.6627 -6.13622 64.936C-3.83609 67.4415 -0.919851 69.1255 1.95531 70.8506C4.58403 72.4114 7.25382 73.9311 9.30751 76.2723C10.2933 77.3813 11.238 78.5725 11.6076 80.0922C11.4023 80.1333 11.238 80.01 11.1558 79.8457C9.88254 78.326 8.15745 77.5867 6.3502 76.8884C3.92685 75.9848 1.42135 75.533 -0.960924 74.5883C-5.23259 72.9043 -7.73809 69.7827 -8.43634 65.2646C-8.55956 64.5663 -8.64171 63.8681 -8.76493 63.1698C-8.88816 64.402 -8.92923 65.6342 -8.55957 66.7843C-8.51849 66.9486 -8.47742 67.154 -8.51849 67.3183C-8.84708 68.4683 -8.9703 69.6184 -8.51849 70.8095C-8.43634 70.9738 -8.43634 71.2203 -8.51849 71.3435C-8.84708 72.0007 -8.72386 72.6989 -8.76493 73.3561C-8.80601 74.2597 -8.68279 75.2044 -8.72386 76.108C-8.80601 77.5867 -8.76493 79.0653 -8.72386 80.544C-8.72386 80.9137 -8.64171 81.3244 -8.27205 81.4887C-7.86131 81.6941 -7.98454 80.9958 -7.53272 80.9958C-7.53272 81.5298 -7.16306 81.6119 -6.71125 81.6119C-0.673409 81.5708 5.32336 81.6941 11.3612 81.5298C11.7309 81.5298 12.0595 81.4887 12.1005 80.9958C12.4702 80.6672 12.2237 80.2154 12.3059 79.8457C12.347 79.3529 12.388 78.901 12.388 78.4082C12.388 72.8221 12.388 67.2772 12.388 61.6911C12.388 54.8729 12.388 48.0957 12.388 41.2775C12.4291 41.2775 12.5113 41.3186 12.5523 41.3186C12.5113 42.7151 13.1274 43.9473 13.7435 45.1384C15.6739 48.9172 18.8777 51.3406 22.6975 53.0657C26.3531 54.7086 30.214 55.3247 34.1982 55.3247C35.9233 55.3247 37.6895 55.3658 39.4146 55.489C40.5646 55.5712 40.5646 55.5712 40.4825 56.7212C40.4414 57.5016 40.6879 58.1177 41.4272 58.4874C42.1254 58.816 42.7826 58.7338 43.3576 58.1999C43.9737 57.6659 43.9737 57.132 43.3166 55.8587C44.1791 56.023 45.0006 56.1462 45.8221 56.2694C48.04 56.6801 50.217 57.173 52.2706 58.1177C52.7635 58.3231 53.2564 58.5285 53.5439 59.1035C51.5724 59.391 51.5724 59.4321 51.4081 60.1303C52.9689 59.2678 53.7904 59.3499 54.2833 60.4589C53.7904 60.5 53.2975 60.5 52.8046 60.5411C52.3117 60.5 51.7778 60.5 51.2849 60.4589C51.2027 60.3768 51.1206 60.3768 51.0384 60.4589C50.5866 60.4589 50.1348 60.4589 49.6419 60.4589C49.4776 59.6785 48.9847 59.1446 48.2454 59.1856C47.3418 59.2267 46.3971 59.2267 45.4935 59.1856C44.672 59.1446 44.1791 59.8018 44.2613 60.5C44.1791 61.2393 44.3434 62.0197 44.0559 62.8001C43.9327 62.3894 43.8916 61.9376 43.9737 61.5269C44.0559 60.7465 43.7684 60.4179 42.988 60.4589C42.9469 59.966 43.1934 59.2267 42.3719 59.2267C41.5504 59.2267 41.7968 59.966 41.7558 60.4589C41.304 60.5 40.8932 60.5 40.4414 60.4179C40.6878 60.1714 40.8932 59.8839 40.6879 59.5142C40.5236 59.1856 40.195 59.1446 39.8664 59.1856C39.127 59.2678 38.4288 59.2267 38.1002 58.4052C37.8948 57.9945 37.6484 57.9945 37.4019 58.3642C37.1144 59.0624 37.2787 59.7607 37.2787 60.4589C36.9912 60.4179 36.7037 60.4179 36.4573 60.3768C36.4983 60.0071 36.7448 59.5553 36.334 59.2678C35.9233 58.9803 35.4304 59.0624 34.9786 59.2678C34.5268 59.4732 33.9107 59.7196 34.2803 60.4589C34.116 61.075 34.5679 61.8144 33.9518 62.3483C33.9518 61.8554 33.9928 61.3626 33.9518 60.8697C33.9107 60.5 33.7464 60.4179 33.4999 60.7465C33.1714 60.8286 33.0892 61.1572 32.966 61.4036C32.6374 61.9787 32.3499 62.5537 31.9391 63.293C31.9391 62.3894 31.9802 61.6911 31.9391 61.034C31.9391 60.6232 31.9391 60.1714 31.4873 59.925C31.4463 59.7607 31.3641 59.6375 31.1587 59.5964C31.1177 59.5553 31.0766 59.4732 31.0355 59.4321C29.8855 58.816 28.6532 59.5553 27.4621 59.2267C27.421 59.2267 27.38 59.2678 27.3389 59.3089C27.2157 59.4321 27.2157 59.5964 27.38 59.5964C28.0371 59.5142 28.6943 59.9661 29.3104 59.7196C29.8444 59.5142 30.3783 59.4321 30.9123 59.5553C30.9534 59.5964 31.0355 59.6375 31.0766 59.6785C31.1177 59.8428 31.1998 59.9661 31.4052 60.0071C31.7338 60.8286 31.5284 61.6911 31.5695 62.5126C31.5695 62.8001 31.7338 63.293 31.3641 63.293C30.9534 63.293 31.1587 62.8001 31.1177 62.5126C31.0355 61.9376 31.282 61.3626 30.9123 60.7054C30.7069 61.2393 30.7891 61.609 30.7891 62.0197C30.8301 62.6358 30.5426 63.3341 31.2409 63.827C31.4463 63.9913 31.1587 64.1966 31.0355 64.3609C30.2551 65.3056 29.3515 66.086 28.4068 66.8664C25.9424 68.7969 23.1494 70.2756 20.4796 71.9185C18.0151 73.4793 15.6329 75.1633 13.9899 77.6278C13.3738 78.5725 12.7166 79.5582 12.6345 80.7904C14.4007 77.9563 17.3169 76.9706 20.2742 76.108C22.0404 75.6151 23.8065 75.1633 25.4906 74.5062C28.6943 73.2739 31.1177 71.2203 32.3088 67.8933C32.6785 66.8664 32.9249 65.7574 33.2124 64.6895C33.4999 64.977 33.4178 65.3056 33.4178 65.6753C33.4178 67.1129 33.4178 68.5505 33.4178 70.0291C33.4178 73.2329 33.4178 76.3955 33.4589 79.5993C33.4589 79.6814 33.4589 79.7636 33.4589 79.8457C33.2124 81.078 33.2124 82.2691 33.4589 83.5013C33.4589 83.5835 33.4589 83.6656 33.4589 83.7477C33.4589 83.9942 33.4178 84.2406 33.4178 84.446C33.4178 87.7319 33.4589 90.9767 33.4178 94.2626C33.4178 96.0288 33.541 97.7539 33.3767 99.5611C33.1303 99.3147 33.1714 99.0272 33.0892 98.8218C32.7195 97.9593 32.6374 96.9735 32.3499 96.1109C30.8302 91.9625 28.4068 88.5123 24.8745 85.8836C22.41 84.0353 19.6581 82.7209 16.5776 82.1459C14.606 81.7351 12.5934 81.5708 10.5808 81.7351C7.54134 81.9816 4.70725 82.8852 2.03746 84.3639C-0.960924 86.0068 -3.38428 88.2659 -5.31474 91.0999C-7.24521 93.934 -8.27205 97.0967 -8.80601 100.424C-8.84708 100.711 -9.01138 101.04 -8.76493 101.368C-8.92923 100.875 -8.88816 100.342 -8.88816 99.8076C-8.88816 97.3432 -8.92923 94.8377 -8.92923 92.3732C-8.88815 89.1695 -8.88815 85.9657 -8.84708 82.7209C-8.84708 82.5566 -8.84708 82.3102 -9.01138 82.228C-9.25782 82.1048 -9.42211 82.2691 -9.54534 82.4334C-10.2025 83.0906 -10.9008 83.7477 -11.5579 84.446C-14.1456 87.0747 -16.7332 89.6624 -19.3209 92.2911C-19.5673 92.5375 -19.8138 92.7429 -20.0602 92.9893C-23.0997 96.0288 -26.1391 99.0682 -29.1786 102.108C-29.384 102.313 -29.5482 102.683 -29.9179 102.601C-29.9179 99.1093 -29.9179 95.6181 -29.9179 92.1268C-29.2607 92.0036 -29.0964 91.3464 -28.6446 90.9767C-27.4535 89.8677 -26.3445 88.7587 -25.1944 87.6498C-24.9891 87.4444 -24.7426 87.2801 -24.8248 86.9104C-24.4551 86.9515 -24.2497 86.7051 -24.0444 86.4586C-22.6889 85.1032 -21.3335 83.7477 -19.9781 82.3923C-19.8138 82.228 -19.5263 82.0637 -19.6495 81.7351C-18.828 81.5708 -18.0476 81.4476 -17.2261 81.4887C-15.8296 81.2833 -14.4742 80.9547 -13.4473 79.8868C-12.0919 79.3529 -11.1061 78.3671 -10.5722 77.0117C-10.5722 76.9706 -10.5722 76.9295 -10.5311 76.9295C-10.1614 76.7241 -9.95607 76.4366 -9.95607 75.9848C-9.915 75.9027 -9.87393 75.8616 -9.79178 75.7794C-9.62748 75.6973 -9.58641 75.533 -9.58641 75.4098C-9.54534 75.2455 -9.50426 75.1223 -9.46319 74.958C-9.17567 74.7937 -9.25782 74.5062 -9.21675 74.2597C-9.17567 74.1365 -9.1346 74.0133 -9.05245 73.89C-8.84708 73.6847 -8.88815 73.4382 -8.84708 73.1918C-8.9703 72.2882 -8.51849 71.4256 -8.72386 70.522C-9.05245 69.0023 -9.29889 67.5236 -10.0793 66.1271C-11.2704 64.0734 -12.9134 62.5537 -15.0081 61.5269C-16.8975 60.6232 -18.8691 60.4179 -20.9228 60.6232C-21.3746 60.5 -21.7853 60.4179 -22.1139 60.8697C-22.3603 60.5411 -22.6889 60.5822 -23.0586 60.5822C-25.4409 60.5 -27.6999 60.5 -29.959 60.5ZM28.6943 61.2804C28.53 61.9376 28.53 62.5948 28.6122 63.293C28.6532 63.5395 28.8175 63.6627 29.064 63.7038C29.3104 63.7448 29.5979 63.6627 29.639 63.4162C29.8033 62.6769 29.8033 61.8965 29.5569 61.1572C29.1872 61.8554 29.639 62.6358 29.1051 63.4162C28.6943 62.6358 29.064 61.8965 28.6943 61.2804ZM26.271 61.8144C26.0656 62.3483 26.1067 62.8001 26.1888 63.2519C26.2299 63.4984 26.4353 63.6216 26.6406 63.6216C26.8871 63.6627 27.1335 63.5395 27.2157 63.293C27.3389 62.718 27.38 62.143 27.1335 61.4858C26.846 61.9787 26.9692 62.4305 26.9281 62.8001C26.9281 62.9644 26.9281 63.1698 26.7228 63.1698C26.5174 63.1698 26.5174 62.9644 26.4763 62.8412C26.4763 62.5537 26.5996 62.2251 26.271 61.8144ZM25.0387 62.3894C24.628 62.6358 24.9566 63.1287 24.5869 63.2519C24.1762 63.4162 24.4226 62.718 24.0119 62.7591C23.9708 63.0877 23.8887 63.3752 24.2173 63.5805C24.4226 63.7038 24.628 63.7038 24.8334 63.5805C25.203 63.2519 25.1209 62.8412 25.0387 62.3894ZM22.5743 63.6627C23.4369 63.6216 23.4369 63.6216 23.478 63.1287C23.2315 63.2519 22.9851 63.4162 22.5743 63.6627Z" fill="#277781"/>
<path d="M73.6291 -2.95892C74.9434 -2.95892 76.2578 -2.95892 77.6132 -2.95892C78.1472 -2.75355 78.6811 -2.71248 79.2151 -2.63033C81.7206 -2.2196 84.0207 -1.35705 86.1976 -0.00161409C87.2245 0.655566 88.2924 1.27167 89.3603 1.92885L89.4014 1.96993C89.4425 2.011 89.4835 2.05207 89.5246 2.09315L89.5657 2.13422C90.2639 2.99677 91.0443 3.7361 91.9069 4.47542L91.9479 4.5165C91.989 4.55757 92.0712 4.59864 92.1123 4.63972L92.1533 4.68079C92.8926 5.83086 93.6731 6.93985 94.3302 8.13099C95.5624 10.4722 96.5071 12.9366 96.7125 15.6064C96.7536 15.8939 96.7536 16.1814 97 16.3868C97 17.5369 97 18.728 97 19.8781C96.7947 20.2477 96.7536 20.6174 96.7125 21.0281C96.5893 22.3425 96.3018 23.6569 95.85 24.8891C94.8231 27.5999 93.4266 30.1054 91.4551 32.2823C88.7853 35.1575 85.6637 37.2112 81.926 38.4023C80.4473 38.8541 78.8865 39.0595 77.4079 39.4702C76.5864 39.7167 75.6006 39.881 74.7381 39.347C74.6559 39.3881 74.5738 39.4292 74.5327 39.4292C73.1773 39.0595 71.7397 39.0184 70.3432 38.6077C64.8804 37.0469 60.6908 33.8431 57.6925 28.9964C56.0906 26.3677 55.3513 23.4515 54.653 20.4942C54.6119 20.2888 54.5709 20.0834 54.7352 19.8781C54.6119 19.3852 54.8173 18.8512 54.5298 18.3583C54.8584 17.7833 54.7352 17.1261 54.7352 16.469C54.8994 15.4832 54.9816 14.4974 55.187 13.5116C55.9674 10.1847 57.4049 7.22736 59.6229 4.59864C61.7588 2.05207 64.3053 0.162681 67.3037 -1.19275C69.2753 -2.0553 71.4522 -2.50711 73.6291 -2.95892ZM74.0398 28.5857C74.2862 28.75 74.6148 28.75 74.9024 28.75C76.9971 28.8321 79.0097 28.5446 80.858 27.4767C84.1439 25.5873 86.0333 22.7943 86.3209 19.0155C86.6084 14.8671 84.8833 11.5812 81.4741 9.28105C80.5705 8.66494 79.6258 8.08991 78.4347 8.13099C77.6132 7.76132 76.7096 7.6381 75.806 7.6381C69.2342 7.6381 64.2643 13.5527 65.3733 20.0013C66.1126 24.3962 69.9324 28.175 74.0398 28.5857Z" fill="#CF514A"/>
<path d="M-8.68276 101.286C-8.9292 100.999 -8.76491 100.629 -8.72383 100.342C-8.1488 97.0146 -7.16303 93.8519 -5.23257 91.0178C-3.3021 88.2248 -0.878753 85.9657 2.11963 84.2817C4.78942 82.803 7.66459 81.8994 10.663 81.653C12.6756 81.4887 14.6471 81.694 16.6597 82.0637C19.6992 82.6798 22.4511 83.9531 24.9566 85.8014C28.489 88.4712 30.9534 91.9214 32.432 96.0288C32.7606 96.8913 32.8017 97.8771 33.1714 98.7397C33.0892 99.5201 33.2535 100.259 33.541 100.958C33.541 101.081 33.541 101.204 33.541 101.327C33.4589 101.697 33.4589 102.067 33.541 102.436C33.541 102.518 33.541 102.642 33.541 102.724C33.541 102.765 33.541 102.806 33.541 102.847C33.4178 103.915 33.2946 104.983 33.1714 106.051C32.9249 107.94 32.3499 109.747 31.5284 111.473C30.707 113.198 29.639 114.799 28.489 116.36C28.4479 116.401 28.4479 116.484 28.4068 116.525C27.5854 117.182 26.846 117.921 26.1888 118.743C26.1478 118.743 26.1067 118.784 26.0656 118.784C25.3674 119.277 24.7102 119.769 24.0119 120.221C21.9172 121.536 19.6992 122.645 17.2758 123.22C16.249 123.466 15.14 123.343 14.1953 123.836C12.9631 123.836 11.772 123.836 10.5397 123.836C10.0469 123.918 9.63612 123.589 9.14324 123.548C5.6109 123.096 2.44822 121.7 -0.344793 119.564C-3.87714 116.853 -6.42371 113.403 -7.77914 109.09C-8.1488 107.981 -8.3131 106.79 -8.68276 105.681C-9.01135 104.736 -9.29887 103.71 -8.80598 102.683C-8.80598 102.477 -8.76491 102.231 -8.76491 102.026L-8.72383 102.067V102.108C-8.76491 101.861 -8.72384 101.574 -8.68276 101.286ZM12.2648 86.9515C7.04848 86.9104 2.94111 89.1284 -0.262645 93.1125C-2.02882 95.3305 -3.50747 99.1504 -3.17888 100.3C-2.72707 99.9719 -2.60385 99.3968 -2.19311 98.9861C-1.00197 97.8771 0.394533 97.0967 1.91426 96.4806C3.72151 95.7002 5.6109 95.0841 7.37707 94.1805C9.43076 93.1125 11.238 91.7571 11.9363 89.4159C12.0595 90.607 11.4434 91.5928 10.9094 92.5786C9.6772 94.6734 7.78781 96.0699 5.89842 97.4664C4.8305 98.2468 3.76258 99.0272 2.81789 99.9308C1.42138 101.245 1.42138 104.079 2.69466 105.435C3.63936 106.42 4.70728 107.242 5.77519 108.022C7.45922 109.213 9.10217 110.446 10.3344 112.13C11.1148 113.198 11.813 114.307 11.8952 115.703C10.9094 113.649 9.30754 112.212 7.25385 111.267C5.93949 110.692 4.62513 110.158 3.31077 109.624C0.764198 108.597 -1.82345 107.653 -3.26103 104.983C-3.3021 105.311 -3.34318 105.64 -3.26103 105.928C-2.06989 110.651 0.476681 114.389 4.8305 116.73C7.1717 118.003 9.63613 118.701 12.347 118.578C12.3881 118.578 12.4702 118.619 12.5113 118.619C19.9867 118.578 26.3942 113.239 27.955 105.928C27.9961 105.64 28.1193 105.353 27.9139 104.983C27.38 105.845 26.8871 106.585 26.1067 107.201C24.3816 108.515 22.369 109.213 20.3974 110.035C18.0973 110.939 15.7561 111.842 14.0721 113.814C13.6614 114.307 13.2917 114.841 12.881 115.375C12.8399 115.046 13.0042 114.758 13.0863 114.471C13.8256 112.623 15.0168 111.144 16.5365 109.912C18.0152 108.721 19.576 107.529 21.1368 106.379C23.519 104.613 23.7655 101.245 21.2189 99.2736C20.151 98.4111 19.042 97.6307 17.933 96.8092C15.9204 95.3305 14.1542 93.6876 13.1685 91.3053C13.2917 90.8535 13.456 91.0589 13.6203 91.2642C13.9489 91.716 14.3596 92.1678 14.7703 92.5375C16.7419 94.3037 19.2063 95.043 21.5475 96.0288C23.519 96.8503 25.5317 97.5485 26.9692 99.3147C27.38 99.8076 27.6675 100.342 28.0782 100.999C27.9961 99.1504 27.2157 96.5627 26.0656 94.7144C23.6423 90.7713 20.2331 88.2658 15.715 87.239C14.565 86.9515 13.4149 86.705 12.2648 86.9515Z" fill="#CF514A"/>
<path d="M22.8618 -2.95892C26.3942 -2.95892 29.9265 -2.95892 33.4999 -2.95892C33.4999 -2.87678 33.4999 -2.8357 33.4999 -2.75355C33.2124 -2.71248 33.0481 -2.50711 32.8838 -2.30174C32.0213 -1.4392 31.1587 -0.576647 30.2962 0.285902C27.9139 2.70925 25.4905 5.1326 23.1082 7.51488C19.6991 10.8829 16.29 14.292 12.922 17.6601C12.7166 17.8655 12.4291 18.0708 12.4702 18.4405C12.1826 18.9334 12.4291 19.4673 12.4291 20.0013C12.388 22.5479 12.4291 25.0944 12.4291 27.641C12.4291 27.8464 12.3469 28.175 12.5934 28.2982C12.8809 28.4214 13.0041 28.1339 13.1684 27.9696C14.2774 26.9017 15.3453 25.7516 16.4954 24.7248C16.9061 24.3551 17.399 23.9854 17.5222 23.3693C17.8919 23.4104 18.0973 23.1229 18.3026 22.9175C21.0956 20.1245 23.9297 17.2904 26.7227 14.4974C27.2156 14.0045 27.8317 13.5938 28.1192 12.9366C28.1603 12.9366 28.2014 12.9366 28.2835 12.9366C29.8033 14.4563 31.2819 15.9761 32.8427 17.4958C33.0481 17.7012 33.1713 18.0708 33.5821 17.9887C33.6231 18.0298 33.6231 18.1119 33.6642 18.153C30.2551 21.5621 26.8049 24.9712 23.3958 28.3803C23.1082 28.6679 23.1493 28.9143 23.3958 29.1607C25.0798 30.8037 26.7227 32.4466 28.4068 34.0896C30.0908 35.8147 31.7748 37.4987 33.4588 39.2238C33.1302 39.2649 32.8427 39.347 32.5141 39.347C29.3925 39.347 26.2299 39.347 23.1082 39.347C19.5348 39.347 16.0025 39.347 12.4291 39.3881C12.3469 38.4023 12.3059 37.4166 12.2237 36.4308C12.2648 35.5272 12.3469 34.6235 11.6898 33.8842C11.6487 33.761 11.6076 33.6378 11.5665 33.5146C11.8951 33.1038 11.8951 32.7752 11.3201 32.6109C11.1969 32.4877 11.1558 32.3645 11.1558 32.2413C11.2379 31.2966 10.8272 30.5162 10.3754 29.7358C10.2522 29.5304 10.129 29.2429 9.80036 29.325C9.30748 28.4214 8.81459 27.5178 8.19849 26.6963C5.52869 23.3283 2.28387 20.8638 -1.78243 19.4263C-3.5486 18.8102 -5.39692 18.5226 -7.24524 18.194C-6.8345 18.1119 -6.42376 18.0708 -5.97195 17.9887C1.21595 16.8797 6.47339 13.1009 9.96465 6.73448C11.0736 4.72187 11.6487 2.54496 12.1416 0.326975C12.3059 0.49127 12.3059 0.696639 12.3059 0.902007C12.4291 2.7914 12.3469 4.68079 12.388 6.57018C12.388 6.77555 12.3059 7.02199 12.5523 7.14522C12.8398 7.26844 12.963 7.02199 13.1273 6.8577C13.9488 6.0773 14.7703 5.2969 15.5507 4.47542C16.2079 3.77717 17.0704 3.16106 17.5222 2.21637C17.974 2.21637 18.2205 1.8467 18.4669 1.55919C19.617 0.450197 20.767 -0.699868 21.876 -1.84993C22.2046 -2.13745 22.6564 -2.42496 22.8618 -2.95892Z" fill="#277781"/>
<path d="M11.1147 32.2002C11.1147 32.3645 11.1558 32.4877 11.279 32.5698C11.238 32.8984 11.3612 33.1859 11.5255 33.4735C11.5666 33.5967 11.6076 33.7199 11.6487 33.8431C11.8952 34.6646 11.813 35.5682 12.1827 36.3897C12.2648 37.3755 12.3059 38.3612 12.388 39.347C12.388 39.5934 12.388 39.7988 12.388 40.0453C12.388 40.1685 12.388 40.2506 12.347 40.3738C12.3059 40.5792 12.2237 40.7846 12.2237 40.99C11.8541 45.5081 10.2522 49.4922 7.33597 52.9013C3.92685 56.9266 -0.385897 59.3499 -5.60226 60.1714C-6.13622 60.2535 -6.71125 60.1714 -7.24521 60.4589C-7.73809 60.4589 -8.27205 60.4589 -8.76494 60.5C-11.4347 60.4178 -14.0634 59.966 -16.5689 58.9803C-19.4852 57.8302 -21.9907 56.1051 -24.1676 53.8871C-24.9891 53.0656 -25.7284 52.162 -26.3034 51.1762C-26.3445 51.0941 -26.4266 51.0119 -26.4677 50.9298C-26.5499 50.8887 -26.5909 50.8066 -26.6731 50.7655C-26.632 50.6423 -26.6731 50.6012 -26.7963 50.6012C-26.8785 50.4369 -26.9606 50.2726 -27.0427 50.1083C-27.0017 49.944 -27.0017 49.8208 -27.207 49.8208C-27.3303 49.6565 -27.4535 49.4511 -27.5356 49.2869C-27.6178 48.9172 -27.6999 48.5475 -28.0285 48.26C-28.1107 48.0957 -28.1928 47.9725 -28.275 47.8082C-28.3982 47.151 -28.6036 46.4938 -28.9732 45.9188C-28.9732 45.7956 -28.9732 45.6724 -29.0143 45.5081C-29.0143 45.5081 -28.9732 45.5081 -28.9732 45.5491H-29.0143C-29.0964 45.3848 -29.1786 45.2206 -29.2607 45.0563L-29.2197 45.0152L-29.2607 44.9741C-29.3018 44.7687 -29.3018 44.5634 -29.3429 44.358C-29.3018 44.0294 -29.4661 43.783 -29.6304 43.4955C-29.6304 43.249 -29.6715 43.0026 -29.6715 42.7561C-29.6304 42.2222 -29.7125 41.7293 -29.959 41.2364C-29.959 39.6345 -29.959 38.0737 -29.959 36.4718C-29.9179 36.3897 -29.8358 36.3076 -29.8358 36.1843C-29.3018 33.9253 -28.6857 31.6251 -27.5356 29.4893C-25.6052 25.8748 -22.8532 23.0407 -19.2798 20.987C-16.4457 19.3441 -13.3652 18.3994 -10.0382 18.2351C-9.70963 18.2762 -9.38104 18.2762 -9.05245 18.153C-8.97031 18.153 -8.84709 18.153 -8.76494 18.153C-8.72387 18.153 -8.64172 18.153 -8.60064 18.153C-8.14883 18.2351 -7.65595 18.194 -7.20414 18.194C-5.35582 18.5226 -3.54857 18.8101 -1.74133 19.4262C2.28389 20.8638 5.52872 23.3282 8.15744 26.6963C8.81462 27.5178 9.26643 28.4214 9.75932 29.325C10.2111 30.2697 10.6629 31.2555 11.1147 32.2002ZM-8.76494 23.5336C-9.05245 23.5336 -9.33997 23.4925 -9.62749 23.4925C-18.5405 23.9033 -25.3998 31.8305 -24.5783 40.7435C-23.7979 48.9172 -16.9386 55.2425 -8.88816 55.2015C-8.39528 55.1604 -7.94346 55.1604 -7.45058 55.1193C-3.09676 54.7497 0.517725 52.9013 3.31074 49.5744C7.66455 44.358 8.36281 37.4165 4.95369 31.543C1.95531 26.3266 -2.68603 23.6158 -8.76494 23.5336Z" fill="#CF514A"/>
<path d="M96.9178 41.6061C96.9178 47.9314 96.9178 54.2979 96.9178 60.6232C96.7124 60.6232 96.5892 60.7875 96.466 60.9107C93.139 64.2377 89.8121 67.5647 86.4851 70.9327C82.9527 74.4651 79.4204 77.9974 75.8881 81.5297C75.6416 81.1601 75.6827 80.7083 75.6827 80.2975C75.6416 78.4492 75.272 76.642 74.6558 74.8758C74.0397 73.0275 73.1361 71.3024 72.0271 69.6594C69.4395 65.9628 66.0714 63.293 61.8408 61.7322C59.4996 60.8696 57.0763 60.4178 54.5708 60.4178C54.8583 59.4321 55.5976 58.857 56.4191 58.3642C57.6924 57.6659 59.0068 57.2141 60.4033 56.8444C65.4143 55.6122 70.5485 55.2015 75.7238 55.2015C80.5294 55.2015 85.0886 54.0925 89.237 51.5459C92.8515 49.2869 95.6035 46.3706 96.5892 42.0579C96.6714 41.9347 96.7535 41.7293 96.9178 41.6061ZM76.0113 60.7464C75.7648 60.8286 75.7648 61.0339 75.7648 61.2804C75.7648 63.5805 75.7648 65.8806 75.8059 68.1808C75.8059 68.7969 75.8059 69.4541 75.8059 70.0702C75.8059 70.2755 75.8059 70.522 76.0934 70.5631C76.2988 70.6041 76.422 70.4809 76.5863 70.3577C78.065 68.838 79.5436 67.3182 81.0223 65.7574C82.8706 64.1966 84.5135 62.3894 86.2797 60.6232C86.0743 60.5411 86.0333 60.5 85.9922 60.5C82.8295 60.4589 79.7079 60.4589 76.5452 60.4178C76.3399 60.4178 76.0524 60.4178 76.0113 60.7464Z" fill="#277781"/>
<path d="M96.9179 102.806C96.9179 102.847 96.9179 102.929 96.9179 102.97C96.7125 103.052 96.6304 103.217 96.5482 103.381C95.4392 105.928 93.5909 107.776 91.414 109.419C89.155 111.144 86.6905 112.499 84.2672 113.978C81.7617 115.498 79.3794 117.141 77.6543 119.564C76.8739 120.673 76.2167 121.864 75.9703 123.22C77.8597 120.139 81.0224 119.194 84.185 118.291C85.7869 117.839 87.3888 117.428 88.9496 116.812C92.8927 115.292 95.3571 112.499 96.3018 108.351C96.5482 107.16 96.6714 105.969 96.8768 104.777C96.8768 110.98 96.8768 117.182 96.8768 123.425C96.8768 123.918 96.7947 124 96.3018 124C89.4014 124 82.501 124 75.6006 124C75.6417 123.836 75.6828 123.712 75.6006 123.548C75.7649 122.932 75.5596 122.357 75.6417 121.741C75.7649 121.453 75.806 121.166 75.7649 120.878C75.6006 119.769 75.6828 118.619 75.6828 117.469C75.6417 113.033 75.6828 108.597 75.6828 104.161C75.6828 103.011 75.5596 102.847 74.4095 102.847C70.0557 102.847 65.7429 102.847 61.3891 102.847C60.9784 102.847 60.5676 102.888 60.1158 102.97C59.4587 103.052 58.7193 103.135 58.2264 102.477H58.3086L58.3907 102.518C58.555 102.559 58.6783 102.559 58.8425 102.436C61.8409 101.656 64.7161 100.547 67.1805 98.6164C69.9325 96.4806 72.1915 93.8929 73.7112 90.6892C74.4095 89.2105 74.8202 87.6086 75.3542 86.0889C75.3953 86.0068 75.3953 85.9246 75.4363 85.8425C75.3131 85.5139 75.3953 85.2264 75.5185 84.9389C75.7238 85.6371 75.7649 86.3354 75.806 87.0336C75.8471 88.6766 75.6006 90.3195 75.6417 91.9214C75.7239 95.0841 75.806 98.2467 75.806 101.409C75.806 102.683 75.8882 102.724 77.1204 102.765C79.3383 102.806 81.5563 102.642 83.7743 102.888C84.8422 103.011 85.9512 103.052 87.0191 102.97C90.3461 102.724 93.632 102.847 96.9179 102.806Z" fill="#277781"/>
<path d="M96.9178 41.6061C96.7535 41.7293 96.6714 41.9347 96.5892 42.14C95.5624 46.4117 92.8515 49.369 89.237 51.6281C85.1297 54.1747 80.5705 55.2836 75.7238 55.2836C70.5485 55.2836 65.4553 55.6944 60.4033 56.9266C59.0068 57.2552 57.6513 57.7481 56.4191 58.4463C55.5566 58.8981 54.8172 59.4732 54.5708 60.5C54.4887 60.5 54.3654 60.5 54.2833 60.5C53.7904 59.391 52.9689 59.2678 51.4081 60.1714C51.5724 59.4732 51.5724 59.4732 53.544 59.1446C53.2564 58.5695 52.7635 58.4053 52.2707 58.1588C50.217 57.2141 48.0401 56.6802 45.8221 56.3105C45.0006 56.1462 44.1791 56.023 43.3166 55.8998C43.9738 57.173 43.9738 57.6659 43.3577 58.241C42.7826 58.7338 42.1255 58.8571 41.4272 58.5285C40.6879 58.1999 40.4414 57.5427 40.4825 56.7623C40.5647 55.6122 40.5646 55.6122 39.4146 55.5301C37.6895 55.4069 35.9233 55.3658 34.1982 55.3658C30.2141 55.4069 26.3531 54.7497 22.6976 53.1067C18.9188 51.3816 15.715 48.9583 13.7435 45.1795C13.1274 43.9884 12.5113 42.7562 12.5524 41.3596C13.0452 41.7704 13.1274 42.3865 13.4971 42.8794C15.0989 45.0152 17.3169 46.3706 19.6992 47.3975C23.8476 49.1637 28.2425 49.903 32.7606 49.9441C37.1555 49.9851 41.5093 50.3959 45.6989 51.9156C49.1491 53.1889 52.3528 54.7497 54.1601 58.241C54.2422 58.4053 54.3654 58.4053 54.4887 58.282C54.6529 58.4053 54.4886 58.6928 54.7351 58.816C55.1869 58.4874 55.228 57.9124 55.5155 57.4606C56.7066 55.6122 58.3496 54.339 60.239 53.3532C64.3463 51.1763 68.7412 50.2726 73.3415 49.9851C75.5595 49.8619 77.7775 49.9441 79.9954 49.6976C84.3903 49.2047 88.6209 48.219 92.4408 45.8367C94.2891 44.6866 95.8499 43.249 96.6303 41.1543C96.6714 40.99 96.7946 40.8668 96.9589 40.8257C96.9178 41.0721 96.9178 41.3596 96.9178 41.6061ZM42.2487 55.6944C41.6736 55.5712 41.3451 55.7765 41.2218 56.2694C41.0575 56.9266 41.1397 57.4606 41.7147 57.9124C42.2076 58.282 42.9469 58.1588 43.2344 57.6249C43.4398 57.2552 43.4398 56.8444 43.1523 56.5159C42.9469 56.2694 42.6594 56.2283 42.3719 56.3926C41.9612 56.6391 42.0022 56.9677 42.2076 57.3373C42.2487 57.3784 42.2076 57.4606 42.1665 57.5427C41.304 57.132 41.3451 56.6391 42.2487 55.6944Z" fill="#66BFA3"/>
<path d="M-8.84702 102.724C-9.29883 103.751 -9.01131 104.777 -8.7238 105.722C-8.35413 106.831 -8.18984 108.022 -7.82017 109.131C-6.46474 113.403 -3.91817 116.894 -0.385828 119.605C2.40719 121.741 5.56986 123.137 9.10221 123.589C9.55402 123.63 9.96476 123.959 10.4987 123.877C0.558868 123.877 -9.38098 123.877 -19.3208 123.877C-18.869 123.425 -18.4583 122.973 -18.0065 122.521C-16.7743 121.166 -15.3367 120.016 -14.1866 118.578C-12.4204 120.303 -10.6953 121.987 -8.84702 123.795C-8.84702 123.425 -8.80594 123.261 -8.80594 123.055C-8.80594 119.646 -8.84702 116.196 -8.84702 112.787C-8.80594 111.842 -8.80594 110.897 -8.76487 109.953C-8.68272 108.104 -8.92916 106.215 -8.51843 104.367C-8.43628 103.915 -8.10769 103.34 -8.68272 103.093C-9.17561 102.888 -9.46312 103.463 -9.75064 103.751C-12.9133 106.872 -16.076 110.035 -19.1976 113.157C-19.2387 113.198 -19.2387 113.28 -19.2797 113.321C-21.5388 115.58 -23.7979 117.839 -26.098 120.057C-27.3713 121.289 -28.4803 122.645 -29.9178 123.712C-29.9178 120.18 -29.9178 116.648 -29.9178 113.074C-29.7946 113.033 -29.6714 112.992 -29.5482 112.91C-27.8642 111.308 -26.2623 109.706 -24.6604 108.022C-24.414 107.817 -24.1264 107.612 -23.88 107.365C-21.7852 105.27 -19.6905 103.176 -17.6368 101.081C-16.4457 99.8897 -15.1724 98.7807 -14.1045 97.4663H-14.0223L-13.9402 97.4253C-12.3794 99.3147 -10.5721 100.999 -8.84702 102.724Z" fill="#277781"/>
<path d="M42.7005 -2.95892C43.6041 -2.95892 44.5077 -2.95892 45.4113 -2.95892C45.7399 -2.99999 46.0274 -2.75355 46.356 -2.71247C46.4793 -2.71247 46.6025 -2.6714 46.7257 -2.6714C47.1364 -2.34281 47.6293 -2.30174 48.1222 -2.17852C48.1633 -2.13744 48.1633 -2.13744 48.2454 -2.13744C48.3686 -2.01422 48.4919 -1.97315 48.6562 -2.01422C48.6972 -1.97315 48.7794 -1.93207 48.8205 -1.93207C49.3955 -1.35704 50.0937 -0.987378 50.792 -0.617714L50.8331 -0.57664C50.8741 -0.412345 51.0384 -0.371272 51.2027 -0.371272C51.2027 -0.330198 51.2438 -0.330198 51.2438 -0.330198C51.6135 0.450203 52.2296 1.06631 52.8868 1.64134C52.8868 1.68242 52.9278 1.72349 52.9689 1.76456C53.0921 2.13423 53.2153 2.50389 53.3796 2.87355C54.7761 5.21476 54.8994 7.63811 54.2833 10.2258C53.9957 11.3758 53.4207 12.3616 52.9689 13.3884C52.9278 13.3884 52.9278 13.4295 52.9278 13.4706C52.0653 14.5385 51.0795 15.4832 50.0527 16.3457C50.0116 16.3457 49.9705 16.3457 49.9705 16.3868C48.8205 17.044 47.5472 17.4547 46.315 17.9476C45.7399 17.9476 45.1238 17.8244 44.5899 18.153C44.4256 18.1941 44.3023 18.1941 44.138 18.2351C43.6041 18.1941 43.0701 18.153 42.5772 18.1119C42.4951 18.0708 42.4129 17.9887 42.2897 17.9887C39.3324 17.4958 37.1144 15.8939 35.4304 13.4706C34.4857 12.1151 33.9518 10.5543 33.7053 8.91139C33.6642 8.54173 33.6642 8.13099 33.6232 7.76133C33.7053 7.10415 33.4999 6.4059 33.7875 5.74872C33.8285 5.54335 33.9107 5.33798 33.9518 5.13261C35.0197 1.10738 37.6073 -1.48026 41.5915 -2.63033C41.7968 -2.6714 42.0433 -2.63033 42.0433 -2.95892C42.2487 -2.95892 42.454 -2.95892 42.6594 -2.95892C42.5772 -2.95892 42.6183 -2.95892 42.7005 -2.95892ZM42.7415 12.7312C46.5203 13.7581 50.1348 10.2668 49.2312 6.44697C48.7794 4.6808 47.7936 3.32536 45.9453 2.75033C43.4809 1.47705 39.9485 3.03785 39.0449 5.99516C38.1002 8.95247 39.7842 11.9508 42.7415 12.7312Z" fill="#CF514A"/>
<path d="M26.0246 118.866C26.0657 118.825 26.1067 118.825 26.1478 118.825C27.1336 118.332 27.8318 117.592 28.3658 116.607C28.4069 116.566 28.4069 116.483 28.4479 116.442C29.4337 116.032 29.8034 115.046 30.2963 114.265C31.3231 112.664 32.1446 110.939 32.7196 109.09C32.966 108.392 32.966 107.57 33.4589 106.708C33.4589 108.721 33.4589 110.487 33.4589 112.294C33.4589 112.499 33.3768 112.828 33.5822 112.951C33.8697 113.074 33.9929 112.787 34.1572 112.623C35.5126 111.308 36.827 109.953 38.1824 108.597C38.3467 108.433 38.511 108.228 38.5521 107.981C38.9217 107.981 39.1682 107.694 39.4146 107.447C40.9754 105.886 42.5362 104.326 44.097 102.765C44.3435 102.601 44.5899 102.642 44.8774 102.642C47.7115 102.559 50.5456 102.724 53.3797 102.765C53.6672 102.765 53.9547 102.806 54.1601 103.093C54.119 103.34 53.9547 103.463 53.7904 103.586C50.5867 106.79 47.3829 109.994 44.1792 113.157C44.1381 113.198 44.1381 113.28 44.097 113.321C43.9738 113.403 43.8506 113.485 43.7274 113.608C40.3182 117.017 36.9091 120.427 33.4589 123.877C27.7497 123.877 22.0404 123.877 16.3312 123.877C16.4955 123.63 16.783 123.63 17.0294 123.548C20.0689 122.891 22.7798 121.494 25.2853 119.646C25.6138 119.482 25.9014 119.235 26.0246 118.866Z" fill="#277781"/>
<path d="M54.16 103.093C53.9547 102.806 53.7082 102.806 53.3796 102.806C50.5455 102.806 47.7114 102.601 44.8773 102.683C44.6309 102.683 44.3434 102.683 44.097 102.806C40.5646 102.724 37.0323 102.724 33.4999 102.806C33.4999 102.724 33.4999 102.601 33.4999 102.518C33.541 102.026 33.5821 101.533 33.4999 101.04C33.2124 100.342 33.0892 99.6022 33.1303 98.8218C33.2124 99.0272 33.1713 99.3147 33.4178 99.5611C33.5821 97.7539 33.4588 95.9877 33.4588 94.2626C33.4999 90.9767 33.4588 87.7319 33.4588 84.446C33.4588 84.1995 33.4999 83.9531 33.4999 83.7477C33.541 83.9942 33.6231 84.2406 33.6642 84.5281C33.9928 87.0336 34.7321 89.4159 35.9643 91.6339C39.2092 97.4253 44.0559 101.081 50.6277 102.436C51.9831 102.724 53.3796 102.518 54.735 102.806C54.5297 103.176 54.9815 103.504 54.7761 103.833C54.5297 105.558 54.8993 107.242 55.3101 108.885C56.1316 111.924 57.7745 114.307 60.5675 115.867C62.4158 116.894 64.4285 117.469 66.4 118.044C67.5501 118.373 68.7412 118.743 69.8913 119.112C72.1093 119.852 73.9165 121.125 75.3541 122.973C75.4773 123.137 75.4362 123.343 75.6416 123.466C75.7237 123.63 75.7237 123.754 75.6416 123.918C68.6591 123.918 61.6765 123.918 54.694 123.918C54.6529 123.179 54.735 122.439 54.6118 121.7C54.6118 119.769 54.6118 117.88 54.6118 115.95C54.694 115.826 54.694 115.662 54.6118 115.539C54.6118 115.333 54.6118 115.087 54.6118 114.882C54.694 114.553 54.735 114.224 54.6118 113.896C54.6118 113.732 54.5708 113.608 54.5708 113.444C54.6118 110.117 54.6118 106.79 54.6529 103.504C54.694 103.135 54.6529 102.806 54.16 103.093Z" fill="#38525F"/>
<path d="M-8.60062 18.153C-8.64169 18.153 -8.72384 18.153 -8.76491 18.153C-8.68276 17.044 -8.97028 15.935 -9.01135 14.826C-8.80598 14.6206 -8.84706 14.3331 -8.80598 14.0867C-8.64169 13.0187 -8.80598 11.9919 -8.80598 10.924C-8.80598 6.28265 -8.80598 1.64132 -8.80598 -3.00002C-1.65915 -3.00002 5.48768 -3.00002 12.5934 -3.00002C12.5934 -2.95894 12.5524 -2.87679 12.5524 -2.83572H12.5113C12.2238 -2.87679 12.0184 -2.7125 11.813 -2.50713C10.704 -1.52136 9.6772 -0.453443 8.65036 0.573401C3.39292 5.74869 -1.7413 10.924 -6.95767 16.0993C-7.28626 16.4279 -7.49162 17.044 -8.18988 16.7975C-8.3131 16.7565 -8.51847 16.9618 -8.43632 17.1261C-8.27202 17.4958 -8.60062 17.7833 -8.60062 18.153ZM-4.41109 7.22735C-4.20572 7.18627 -3.91821 7.22735 -3.91821 6.89876C-3.91821 6.61124 -4.12358 6.48802 -4.37002 6.48802C-4.65754 6.52909 -4.90398 6.69339 -4.90398 6.9809C-4.90398 7.26842 -4.61646 7.18627 -4.41109 7.22735ZM3.14647 0.162663C3.1054 -0.0837796 2.94111 -0.207001 2.73574 -0.207001C2.53037 -0.207001 2.36607 -0.165927 2.36607 0.0805154C2.40715 0.326958 2.57144 0.450179 2.77681 0.491253C2.98218 0.491253 3.1054 0.368032 3.14647 0.162663Z" fill="#277781"/>
<path d="M96.9179 40.8257C96.7536 40.8667 96.6715 40.99 96.5893 41.1543C95.8089 43.249 94.2481 44.6866 92.3998 45.8367C88.5799 48.2189 84.3493 49.2047 79.9544 49.6976C77.7365 49.944 75.5185 49.8208 73.3005 49.9851C68.7002 50.2726 64.3053 51.1763 60.198 53.3532C58.3086 54.3389 56.6246 55.6122 55.4745 57.4605C55.187 57.9124 55.187 58.4874 54.6941 58.816C54.7352 58.1588 54.7762 57.4605 54.9816 56.8444C55.187 56.7623 55.2691 56.6391 55.3102 56.4337C56.3781 53.4353 58.3497 51.0941 60.8962 49.2458C64.9625 46.2474 69.6449 44.892 74.6559 44.6866C77.2436 44.5634 79.8312 44.6045 82.4189 44.3991C85.8691 44.1116 89.2371 43.6187 92.523 42.5918C93.9195 42.14 95.3571 41.6882 96.3839 40.4971C96.5482 40.3328 96.7125 40.2096 96.9179 40.3739C96.9179 40.4971 96.9179 40.6614 96.9179 40.8257Z" fill="#F9DFB6"/>
<path d="M96.9178 40.3328C96.6714 40.1685 96.5482 40.2917 96.3839 40.456C95.357 41.6471 93.9194 42.0989 92.5229 42.5507C89.237 43.5776 85.8279 44.0705 82.4188 44.358C79.8312 44.5634 77.2435 44.5223 74.6559 44.6455C69.6449 44.8509 65.0035 46.2063 60.8962 49.2047C58.3496 51.053 56.4191 53.3942 55.3102 56.3926C55.228 56.5569 55.1459 56.7212 54.9816 56.8033C54.9816 56.6801 54.9816 56.5569 54.9816 56.4337C55.2691 54.7086 55.9263 53.1067 56.5424 51.5048C56.5834 51.4637 56.5834 51.4227 56.5834 51.3816C57.3638 50.1083 58.1853 48.794 58.9657 47.5207C59.1711 47.4385 59.2943 47.2742 59.2943 47.0689H59.2532C59.3765 47.0689 59.4175 47.0278 59.4175 46.9046V46.9456C59.5818 46.9046 59.664 46.7813 59.705 46.6581C59.7872 46.576 59.8693 46.4938 59.9515 46.4117C60.1158 46.2474 60.4033 46.1242 60.3622 45.8366V45.8777C60.6497 45.8366 60.773 45.6313 60.9373 45.3848C62.0462 44.5223 63.1142 43.5365 64.3053 42.7561C66.7697 41.1542 69.5217 40.2095 72.3557 39.6345C73.0951 39.7577 73.7933 39.3059 74.5326 39.4702C74.9845 39.1416 75.5595 39.2238 76.0524 39.2648C82.3367 39.6345 88.6209 39.3881 94.9052 39.4702C95.5213 39.4702 96.1785 39.5113 96.7946 39.5113C96.9178 39.7167 96.9178 40.0452 96.9178 40.3328Z" fill="#F7BB4B"/>
<path d="M96.9179 90.1142C96.9179 91.4285 96.9179 92.7429 96.9179 94.0983C96.5482 94.2215 96.6303 94.5501 96.5482 94.8376C96.0964 96.686 95.2338 98.2878 93.8373 99.6022C90.4282 102.847 86.403 103.71 82.0902 101.861C76.6685 99.5611 74.4916 93.6054 76.4632 88.4712C77.9418 84.6103 80.858 82.3923 84.9654 81.6941C85.4172 81.7762 85.869 81.7762 86.3619 81.653C86.4851 81.653 86.6494 81.653 86.7727 81.653C86.9369 81.653 87.1012 81.653 87.3066 81.6941C87.3888 81.6941 87.4709 81.7351 87.5531 81.7351C92.2765 82.4334 95.316 85.1032 96.6303 89.6623C96.6714 89.8677 96.6303 90.1142 96.9179 90.1142ZM86.4851 84.3228C85.9922 84.2406 85.5404 84.2406 85.0886 84.3638C79.0919 85.4318 76.381 92.3321 80.1598 97.1378C81.7206 99.1504 83.8564 100.259 86.4851 100.054C86.6905 100.054 86.8959 100.095 87.1012 100.054C92.2765 99.5611 95.6035 94.2626 93.7552 89.3748C92.6051 86.3354 89.4835 84.1585 86.4851 84.3228Z" fill="#CF514A"/>
<path d="M52.8868 13.4294C53.3797 12.4026 53.9548 11.3758 54.2012 10.2668C54.8173 7.67912 54.6941 5.25577 53.2976 2.91456C53.0922 2.58597 53.0101 2.17524 52.8868 1.80557C53.7494 2.29846 53.7494 3.24315 54.2012 3.98248C54.3244 4.14678 54.2423 4.55751 54.5709 4.47537C54.8173 4.39322 54.7352 4.06463 54.7352 3.85926C54.5298 1.6002 54.653 -0.658852 54.6119 -2.91791C60.9373 -2.91791 67.3037 -2.91791 73.6291 -2.91791C71.4522 -2.4661 69.3163 -2.05536 67.2627 -1.11066C64.2643 0.244771 61.7177 2.17524 59.5819 4.68074C57.3639 7.30945 55.9263 10.2668 55.1459 13.5937C54.8995 14.5795 54.8173 15.5653 54.653 16.551C54.4066 14.5795 54.7762 12.5669 54.5298 10.5543C53.9958 11.499 53.8315 12.6901 52.8868 13.4294Z" fill="#38525F"/>
<path d="M96.9178 39.3881C96.3017 39.3881 95.6445 39.347 95.0284 39.347C88.7442 39.2649 82.4599 39.5113 76.1756 39.1416C75.6827 39.1006 75.1077 39.0184 74.6559 39.347V39.3059C75.5184 39.8399 76.4631 39.6756 77.3257 39.4291C78.8454 39.0184 80.3651 38.813 81.8438 38.3612C85.5815 37.2112 88.7031 35.1575 91.3729 32.2412C93.3855 30.0643 94.782 27.5588 95.7678 24.848C96.2196 23.6158 96.5071 22.3425 96.6303 20.987C96.6714 20.5763 96.7124 20.2066 96.9178 19.837C96.9178 26.4088 96.9178 32.8984 96.9178 39.3881Z" fill="#277781"/>
<path d="M96.9179 104.736C96.7125 105.928 96.5893 107.119 96.3428 108.31C95.4392 112.458 92.9337 115.251 88.9907 116.771C87.4299 117.387 85.828 117.798 84.2261 118.25C81.0634 119.153 77.9007 120.098 76.0114 123.179C76.2578 121.782 76.8739 120.591 77.6954 119.523C79.4615 117.141 81.8438 115.498 84.3083 113.937C86.7316 112.458 89.196 111.103 91.4551 109.378C93.5909 107.735 95.4803 105.886 96.5893 103.34C96.6714 103.176 96.7536 103.011 96.959 102.929C96.9179 103.545 96.9179 104.12 96.9179 104.736Z" fill="#66BFA3"/>
<path d="M92.0712 4.68079L92.0301 4.63972C91.989 4.59865 91.9069 4.55757 91.8658 4.5165L91.8247 4.47542C91.8247 3.69502 91.1675 3.40751 90.7157 2.9557C90.3871 2.62711 90.1407 2.011 89.4835 2.13422L89.4424 2.09315C89.4014 2.05207 89.3603 2.011 89.3192 1.96993L89.2781 1.92885C89.2781 1.55919 88.9496 1.39489 88.7031 1.18952C86.0333 -0.864162 83.1582 -2.38389 79.708 -2.67141C79.4615 -2.67141 79.2151 -2.71248 79.1329 -2.95892C84.8833 -2.95892 90.5925 -2.95892 96.3428 -2.95892C96.8357 -2.95892 96.9179 -2.87678 96.9179 -2.38389C96.8768 2.91462 96.9179 8.25421 96.9179 13.5527C96.8357 13.4706 96.6714 13.3884 96.6304 13.3063C96.2607 12.2384 95.891 11.2115 95.5214 10.1436C95.0695 8.91139 94.5356 7.72025 93.7141 6.69341C93.2212 6.03623 93.0159 5.05046 92.0712 4.68079Z" fill="#277781"/>
<path d="M33.5 123.918C36.9091 120.509 40.3182 117.059 43.7684 113.649C43.8917 113.526 44.0149 113.444 44.1381 113.362C45.8632 115.087 47.5883 116.812 49.3134 118.578C49.108 118.989 48.7384 119.277 48.4508 119.564C47.0133 121.002 45.5757 122.48 44.1792 123.918C40.5647 123.918 37.0323 123.918 33.5 123.918Z" fill="#66BFA3"/>
<path d="M86.4851 70.9327C89.8121 67.6057 93.139 64.2788 96.466 60.9107C96.5892 60.7875 96.7125 60.6232 96.9178 60.6232C96.9178 64.1145 96.9178 67.6057 96.9178 71.097C96.7125 71.3024 96.466 71.4667 96.2607 71.672C94.6999 73.1918 93.1801 74.7115 91.6193 76.2312C90.7568 75.6562 90.0996 74.8347 89.4013 74.1365C88.4566 73.0685 87.2244 72.206 86.4851 70.9327Z" fill="#F7BB4B"/>
<path d="M84.9654 81.694C80.8991 82.3923 77.9418 84.6103 76.4631 88.4712C74.4916 93.6465 76.6685 99.5611 82.0902 101.861C86.403 103.668 90.4282 102.847 93.8373 99.6022C95.1928 98.3289 96.0553 96.6859 96.5482 94.8376C96.6303 94.5912 96.5482 94.2215 96.9178 94.0983C96.9178 97.0145 96.9178 99.9308 96.9178 102.806C93.6319 102.806 90.305 102.724 87.0191 102.888C85.9512 102.97 84.8422 102.888 83.7743 102.806C81.5563 102.559 79.3383 102.724 77.1203 102.683C75.847 102.642 75.7649 102.601 75.806 101.327C75.847 98.1646 75.7649 95.0019 75.6417 91.8392C75.6006 90.1963 75.847 88.5944 75.806 86.9515C75.7649 86.2532 75.7649 85.5139 75.5184 84.8567C75.6006 83.7888 75.7238 82.762 75.806 81.694C75.9702 81.694 76.1345 81.653 76.2578 81.653C77.2435 81.653 78.1882 81.653 79.174 81.653C79.4615 81.7762 79.749 81.7762 80.0365 81.653C80.5294 81.653 81.0223 81.653 81.5152 81.653C81.5563 81.653 81.5973 81.653 81.6795 81.653C81.8849 81.653 82.1313 81.653 82.3367 81.653C82.7885 81.8173 83.2814 81.7762 83.7332 81.6119C84.1439 81.6119 84.5547 81.5297 84.9654 81.694Z" fill="#38525F"/>
<path d="M44.1381 123.918C45.5756 122.48 47.0132 121.002 48.4097 119.564C48.7383 119.235 49.0669 118.989 49.2723 118.578V118.537C51.0385 120.262 52.7635 121.946 54.6119 123.754C54.6119 123.055 54.6119 122.398 54.6119 121.741C54.7762 122.48 54.6529 123.22 54.694 123.959C51.2028 123.918 47.6704 123.918 44.1381 123.918Z" fill="#277781"/>
<path d="M12.5114 -2.79463C12.5114 -2.8357 12.5524 -2.91785 12.5524 -2.95892C16.0026 -2.95892 19.4117 -2.95892 22.8619 -2.95892C22.6566 -2.42496 22.2047 -2.13745 21.8351 -1.76778C20.7261 -0.61772 19.576 0.491271 18.426 1.64134C18.1384 1.88778 17.9331 2.25744 17.4813 2.29852C15.8383 0.573419 14.1543 -1.11061 12.5114 -2.79463Z" fill="#66BFA3"/>
<path d="M96.466 81.2422C96.6303 81.3655 96.7535 81.4476 96.9178 81.5708C96.9178 84.4049 96.9178 87.2801 96.9178 90.1142C96.6303 90.0731 96.6303 89.8266 96.5892 89.6623C95.2749 85.0621 92.2354 82.4334 87.5119 81.7351C87.4298 81.7351 87.3477 81.6941 87.2655 81.6941C87.3887 81.653 87.5119 81.6119 87.6352 81.6119C90.2228 81.6119 92.8105 81.6119 95.4392 81.653C95.891 81.6119 96.2606 81.653 96.466 81.2422Z" fill="#38525F"/>
<path d="M41.879 -2.95892C41.879 -2.63033 41.5915 -2.71248 41.4272 -2.63033C37.4431 -1.43919 34.8554 1.10738 33.7875 5.1326C33.7464 5.33797 33.6643 5.54334 33.6232 5.74871C33.4178 5.50227 33.5 5.17368 33.5 4.92724C33.5 2.38066 33.5 -0.206983 33.5 -2.75355C33.5 -2.8357 33.5 -2.87678 33.5 -2.95892C36.293 -2.95892 39.086 -2.95892 41.879 -2.95892Z" fill="#38525F"/>
<path d="M54.5709 -2.95892C54.612 -0.699868 54.4887 1.55919 54.6941 3.81824C54.6941 4.02361 54.8173 4.39328 54.5298 4.43435C54.2012 4.5165 54.2834 4.10576 54.1601 3.94146C53.7083 3.20214 53.7083 2.25744 52.8458 1.76456C52.8047 1.72348 52.7636 1.68241 52.7636 1.64134C52.4761 0.778787 51.8189 0.203755 51.1207 -0.330204C51.0796 -0.330204 51.0796 -0.371278 51.0796 -0.371278C50.9975 -0.494499 50.8742 -0.576646 50.7099 -0.576646L50.6689 -0.61772C50.2992 -1.48027 49.4777 -1.68564 48.6973 -1.93208C48.6563 -1.97315 48.5741 -2.01423 48.533 -2.01423C48.4098 -2.0553 48.2455 -2.09637 48.1223 -2.13745C48.0812 -2.13745 48.0402 -2.13745 47.9991 -2.17852C47.5883 -2.50711 47.1365 -2.75355 46.6026 -2.67141C46.4794 -2.67141 46.3561 -2.71248 46.2329 -2.71248C46.2329 -2.79463 46.2329 -2.87678 46.274 -2.95892C49.1081 -2.95892 51.8189 -2.95892 54.5709 -2.95892Z" fill="#277781"/>
<path d="M79.174 -2.95892C79.2973 -2.67141 79.5437 -2.67141 79.7491 -2.67141C83.1993 -2.38389 86.0744 -0.823089 88.7442 1.18952C88.9906 1.35382 89.2782 1.55919 89.3192 1.92885C88.2513 1.27167 87.2245 0.655566 86.1566 -0.00161409C84.0207 -1.35705 81.6795 -2.2196 79.174 -2.63033C78.6401 -2.71248 78.065 -2.79463 77.5721 -2.95892C78.1061 -2.95892 78.6401 -2.95892 79.174 -2.95892Z" fill="#38525F"/>
<path d="M26.0246 118.866C25.8603 119.235 25.6139 119.482 25.3264 119.687C22.8209 121.536 20.11 122.891 17.0705 123.589C16.8241 123.63 16.5366 123.671 16.3723 123.918C15.633 123.918 14.8936 123.918 14.1543 123.918C15.099 123.384 16.208 123.507 17.2348 123.302C19.6992 122.727 21.8762 121.659 23.9709 120.303C24.6692 119.852 25.3674 119.359 26.0246 118.866Z" fill="#38525F"/>
<path d="M75.847 81.694C75.7649 82.7619 75.6416 83.7888 75.5595 84.8567C75.4363 85.1442 75.3131 85.4317 75.4774 85.7603C75.4363 85.8425 75.4363 85.9246 75.3952 86.0068C74.8612 87.5265 74.4505 89.1284 73.7523 90.607C72.2325 93.8108 70.0145 96.3573 67.2215 98.5342C64.7571 100.465 61.8819 101.574 58.8836 102.354C58.7193 102.313 58.596 102.313 58.4317 102.436L58.3496 102.395H58.2675C57.1585 102.601 56.0905 102.683 54.9405 102.683C54.8583 102.724 54.7762 102.724 54.653 102.765C53.2975 102.477 51.9421 102.683 50.5456 102.395C43.9738 101.04 39.1271 97.3842 35.8823 91.5928C34.6501 89.3748 33.9107 86.9925 33.5821 84.487C33.5411 84.2406 33.4589 83.9531 33.4178 83.7066C33.4178 83.6245 33.4178 83.5423 33.4178 83.4602C33.4178 82.228 33.4178 81.0368 33.4178 79.8046C33.4178 79.7225 33.4178 79.6403 33.4178 79.5582C33.4589 79.3939 33.5411 79.1885 33.5411 79.0242C33.9518 75.8205 34.9376 72.8221 36.7448 70.1112C38.0181 68.2218 39.4557 66.4967 41.304 65.0592C42.3719 64.2377 43.6041 63.5805 44.672 62.759C44.8363 62.759 44.9596 62.6769 45.0006 62.5126C45.1239 62.5126 45.2882 62.5126 45.3703 62.4715C47.7115 61.4447 50.1349 60.7875 52.6814 60.5C53.1743 60.4589 53.6672 60.4589 54.1601 60.4178C54.2422 60.4178 54.3655 60.4178 54.4476 60.4178C56.9531 60.4178 59.3764 60.8696 61.7176 61.7322C65.9482 63.293 69.3163 65.9217 71.9039 69.6594C73.0129 71.2613 73.9165 73.0275 74.5327 74.8758C75.1077 76.6009 75.4773 78.4081 75.5595 80.2975C75.5595 80.7082 75.5184 81.1601 75.7649 81.5297H75.8059C75.8881 81.5708 75.8881 81.6119 75.847 81.694ZM57.0352 71.4256C53.8315 70.563 50.9153 71.2202 48.2865 73.1918C44.3024 76.1901 42.947 81.2422 44.9185 85.8014C46.4793 89.3337 49.1902 91.5106 53.1332 92.0446C53.2154 92.0857 53.3386 92.1267 53.4208 92.1267C57.9799 92.7839 62.9909 89.6213 64.5517 85.2674C66.1125 80.9547 64.5928 76.108 61.3069 73.4793C60.0747 72.4935 58.6782 71.672 57.0352 71.4256Z" fill="#CF514A"/>
<path d="M-7.2041 60.5C-6.71122 60.2536 -6.13618 60.2946 -5.56115 60.2125C-0.344786 59.391 3.96796 56.9266 7.37708 52.9424C10.2933 49.4922 11.9363 45.5081 12.2649 41.0311C12.2649 40.8257 12.347 40.6203 12.3881 40.4149C12.3881 40.7025 12.4291 40.99 12.4291 41.2775C12.4291 48.0957 12.4291 54.8729 12.4291 61.6911C12.4291 67.2772 12.4291 72.8221 12.4291 78.4082C12.4291 78.9011 12.347 79.3529 12.347 79.8457C12.2649 79.3118 12.2238 78.7778 12.1416 78.2849C10.7041 70.6863 6.43238 65.2646 -0.632302 62.143C-2.76814 61.1983 -4.94505 60.7465 -7.2041 60.5ZM9.38969 60.5C9.51291 60.5 9.63614 60.5 9.80043 60.4589C10.2112 60.3357 10.7041 60.2536 10.5808 59.6785C10.4165 59.0624 9.88258 59.2267 9.47184 59.2678C9.34862 59.2678 9.2254 59.3499 9.10217 59.391C8.19855 59.8839 7.78782 61.1161 8.1164 62.2251C8.44499 63.252 9.34862 63.7859 10.4576 63.6216C11.4023 63.4573 12.0595 62.6358 12.0595 61.4858C12.0595 60.4179 12.0595 59.3089 12.0595 58.241C12.0595 57.8713 12.1006 57.3784 11.5255 57.3784C10.9916 57.4195 10.9505 57.8302 10.9505 58.241C10.9505 59.3089 10.9505 60.3357 10.9505 61.4036C10.9094 62.184 10.5398 62.4716 9.75936 62.3483C9.59506 62.3073 9.38969 62.2662 9.2254 62.2251C9.02003 61.609 9.18432 61.034 9.38969 60.5Z" fill="#38525F"/>
<path d="M12.4291 41.2775C12.4291 40.9899 12.3881 40.7024 12.3881 40.4149C12.3881 40.2917 12.3881 40.2095 12.4291 40.0863C13.0042 40.6203 13.5792 41.1542 14.2775 41.5239C16.1668 42.5507 18.2205 43.0436 20.2742 43.4544C24.8745 44.358 29.5158 44.6044 34.1982 44.6455C39.9485 44.7276 45.206 46.4117 49.6419 50.2726C50.9974 51.4637 52.1885 52.8192 53.0511 54.5032C53.5439 55.4479 53.8725 56.4337 54.3654 57.3784C54.4065 57.6659 54.4476 57.9945 54.4886 58.282C54.3654 58.4052 54.2422 58.3641 54.1601 58.2409C52.3528 54.7496 49.1491 53.1478 45.6989 51.9156C41.5093 50.3958 37.1966 49.944 32.7606 49.944C28.2425 49.9029 23.8887 49.1636 19.6992 47.3974C17.2758 46.3706 15.0989 45.0152 13.4971 42.8793C13.1274 42.3864 13.0452 41.7293 12.5524 41.3596C12.5113 41.2775 12.4702 41.2775 12.4291 41.2775Z" fill="#F9DFB6"/>
<path d="M12.0595 80.9958C12.0184 81.4476 11.7309 81.5298 11.3201 81.5298C5.28229 81.6941 -0.714482 81.5709 -6.75232 81.6119C-7.20414 81.6119 -7.53273 81.5298 -7.5738 80.9958C-8.02561 80.9958 -7.90239 81.6941 -8.31313 81.4887C-8.68279 81.3244 -8.76494 80.8726 -8.76494 80.544C-8.80601 79.0654 -8.84709 77.5867 -8.76494 76.1081C-8.72387 75.1634 -8.84709 74.2597 -8.80601 73.3561C-8.76494 72.6579 -8.92923 72.0007 -8.55957 71.3435C-8.47742 71.2203 -8.47742 70.9738 -8.55957 70.8095C-9.01138 69.6595 -8.88816 68.5094 -8.55957 67.3183C-8.5185 67.154 -8.5185 66.9486 -8.60064 66.7843C-8.92923 65.5932 -8.92923 64.402 -8.80601 63.1698C-8.68279 63.8681 -8.60064 64.5663 -8.47742 65.2646C-7.77917 69.8238 -5.27367 72.9043 -1.002 74.5883C1.38028 75.533 3.92685 76.0259 6.30913 76.8885C8.11638 77.5456 9.84147 78.326 11.1148 79.8458C11.238 79.969 11.3612 80.1333 11.5666 80.0922C11.6076 80.2154 11.6076 80.3386 11.6487 80.4619C11.6487 80.5851 11.6898 80.6672 11.813 80.7494C11.9773 80.7494 12.0184 80.8726 12.0595 80.9958Z" fill="#38525F"/>
<path d="M12.0595 80.9958C12.0184 80.8726 11.9363 80.7904 11.8952 80.6672C11.9774 80.5029 11.8952 80.4208 11.7309 80.3797C11.6898 80.2565 11.6898 80.1332 11.6488 80.01C11.2791 78.4903 10.3344 77.2992 9.34863 76.1902C7.29494 73.849 4.62515 72.3292 1.99643 70.7684C-0.878731 69.0433 -3.79497 67.4004 -6.0951 64.8538C-7.24516 63.5805 -8.31308 62.2251 -8.76489 60.5C-8.27201 60.5 -7.73805 60.5 -7.24516 60.4589C-5.02718 60.7464 -2.8092 61.1572 -0.755511 62.0608C6.30917 65.2235 10.5808 70.6041 12.0184 78.2028C12.1006 78.7367 12.1827 79.2296 12.2238 79.7636C12.1827 80.2154 12.4702 80.6672 12.0595 80.9958Z" fill="#66BFA3"/>
<path d="M33.2535 64.7306C32.966 65.7985 32.7195 66.8664 32.3499 67.9343C31.1587 71.2202 28.7354 73.315 25.5316 74.5472C23.8476 75.2044 22.0403 75.6562 20.3153 76.1491C17.3579 77.0116 14.4417 77.9974 12.6755 80.8315C12.7577 79.5993 13.4149 78.6135 14.031 77.6688C15.6739 75.1633 18.0151 73.4793 20.5206 71.9595C23.1904 70.2755 25.9834 68.8379 28.4479 66.9075C29.3925 66.1682 30.3372 65.3467 31.0766 64.402C31.1998 64.2377 31.4873 64.0323 31.2819 63.868C30.5426 63.3751 30.8712 62.6769 30.8301 62.0608C30.7891 61.6911 30.748 61.2804 30.9534 60.7464C31.323 61.4036 31.0766 61.9786 31.1587 62.5537C31.1998 62.8412 30.9944 63.3341 31.4052 63.3341C31.7748 63.3341 31.6516 62.8412 31.6105 62.5537C31.5695 61.7322 31.7748 60.8696 31.4462 60.0482C31.4873 60.0071 31.4873 60.0071 31.5284 60.0071C31.9802 60.2535 31.9391 60.7053 31.9802 61.1161C32.0213 61.8143 31.9802 62.4715 31.9802 63.3751C32.3909 62.6358 32.7195 62.0608 33.007 61.4857C33.1303 61.2393 33.2124 60.9107 33.541 60.8286C33.541 61.3625 33.541 61.8965 33.541 62.4304C33.541 62.5126 33.541 62.6358 33.541 62.718V62.759C33.541 62.8001 33.4999 62.8823 33.4999 62.9233C33.4999 63.0055 33.4999 63.0876 33.4999 63.1698C33.4999 63.3341 33.4999 63.5394 33.4999 63.7037C33.3767 64.0323 33.2945 64.3609 33.2535 64.7306Z" fill="#66BFA3"/>
<path d="M33.4178 63.1287C33.4178 63.0465 33.4178 62.9644 33.4178 62.8823C33.4178 62.8412 33.4589 62.759 33.4589 62.718V62.6769C33.6643 62.6769 33.8697 62.6358 33.9518 62.3894C34.5679 61.8554 34.1161 61.1161 34.2804 60.5C34.3215 60.4589 34.3625 60.4589 34.4036 60.4589C34.8143 60.5 34.8965 60.7464 34.8965 61.1161C34.8965 61.5679 34.8965 62.0197 34.8965 62.6769C35.2251 61.8554 34.9376 61.1572 35.2251 60.5C35.6358 60.4589 36.0466 60.4589 36.4162 60.4178C36.7037 60.4589 36.9913 60.4589 37.2377 60.5C37.2377 61.1161 37.2377 61.7322 37.2788 62.3072C37.402 63.1287 38.1824 63.8269 38.9217 63.7448C39.9486 63.6216 40.77 62.759 40.6879 61.8554C40.6468 61.4857 40.5647 61.1572 40.1129 61.1161C39.7432 61.075 39.5789 61.2393 39.4968 61.65C39.3735 62.2661 39.0039 62.5947 38.3467 62.184C38.3467 61.609 38.3467 61.0339 38.3467 60.4589C39.0449 60.4589 39.7021 60.4178 40.4004 60.4178C40.8522 60.5 41.2629 60.5 41.7147 60.4589C41.7147 61.1982 41.7147 61.9376 41.7558 62.6769C41.7558 63.0876 41.7558 63.6216 42.3719 63.6216C42.947 63.6216 42.947 63.1287 42.988 62.6769C42.988 61.9376 42.988 61.1982 42.988 60.4589C43.7684 60.3768 44.0559 60.7464 43.9738 61.5268C43.9327 61.9376 43.9738 62.3894 44.0559 62.8001C44.3435 62.0608 44.1792 61.2804 44.2613 60.5C44.3435 60.4589 44.4256 60.4589 44.5078 60.4178C44.8364 60.5411 44.9185 60.7875 44.8364 61.1161C44.7131 61.609 44.7542 62.1429 44.7953 62.6358C44.7953 62.6769 44.7953 62.759 44.7542 62.8001C43.6863 63.6216 42.4541 64.2377 41.3862 65.1002C39.5789 66.5378 38.1003 68.2218 36.827 70.1523C35.0197 72.8632 33.9929 75.8616 33.6232 79.0653C33.5821 79.2296 33.5411 79.435 33.5 79.5993C33.5 76.4366 33.5 73.2328 33.4589 70.0702C33.4589 68.6326 33.4589 67.195 33.4589 65.7163C33.4589 65.3878 33.5 65.0181 33.2535 64.7306C33.2946 64.402 33.3357 64.0323 33.4178 63.7037C33.8697 63.6627 34.3215 63.6216 34.609 63.1698C34.65 63.1287 34.7322 63.0876 34.6501 63.0465C34.6501 63.0876 34.609 63.1287 34.609 63.1698C34.1982 63.1698 33.7875 63.5394 33.4178 63.1287Z" fill="#38525F"/>
<path d="M52.8047 60.5411C50.2581 60.8286 47.8348 61.4447 45.4936 62.5126C45.3703 62.5537 45.2471 62.5537 45.1239 62.5537C45.165 62.1429 45.165 61.7733 45.165 61.3625C45.206 60.5 45.3703 60.3768 46.2329 60.5411C46.3561 60.5821 46.4793 60.5411 46.6026 60.5411C47.383 60.5 48.1634 60.1714 48.9027 60.6643C49.067 60.7875 49.1902 60.5821 49.3134 60.5C49.4366 60.5 49.5188 60.5 49.642 60.5C50.0938 60.5 50.5456 60.5 51.0385 60.5C51.1207 60.5 51.2028 60.5 51.285 60.5C51.7779 60.5 52.3118 60.5 52.8047 60.5411Z" fill="#38525F"/>
<path d="M49.683 60.5C49.5598 60.5 49.4776 60.5 49.3544 60.5C48.8615 59.5964 48.3276 59.3088 47.465 59.6374C47.0543 59.8017 46.6846 59.8017 46.2739 59.6374C45.4524 59.3088 44.9185 59.5964 44.5488 60.4178C44.4666 60.4589 44.3845 60.4589 44.3024 60.5C44.2202 59.8017 44.7131 59.1856 45.5346 59.1856C46.4382 59.2267 47.3829 59.2267 48.2865 59.1856C49.0258 59.1856 49.5187 59.7196 49.683 60.5Z" fill="#66BFA3"/>
<path d="M40.4414 60.4589C39.7432 60.4589 39.086 60.5 38.3877 60.5C38.3056 60.5 38.1824 60.4589 38.1002 60.4589C38.3056 59.8839 38.8395 60.2536 39.2092 60.1303C39.5789 60.0071 40.3182 60.4179 40.3182 59.8018C40.3182 59.3089 39.6199 59.5553 39.2503 59.5553C38.1824 59.5142 38.1002 59.4321 38.1002 58.4463V58.4052C38.4288 59.2267 39.1271 59.2678 39.8664 59.1856C40.195 59.1446 40.5236 59.1856 40.6879 59.5142C40.8932 59.925 40.6879 60.1714 40.4414 60.4589Z" fill="#66BFA3"/>
<path d="M28.6943 61.2804C29.064 61.8965 28.6943 62.6769 29.1051 63.3752C29.598 62.6358 29.1872 61.8144 29.5569 61.1161C29.8033 61.8554 29.8033 62.5948 29.639 63.3752C29.598 63.6216 29.3104 63.7037 29.064 63.6627C28.8176 63.6216 28.6533 63.4984 28.6122 63.2519C28.53 62.5948 28.53 61.9376 28.6943 61.2804Z" fill="#66BFA3"/>
<path d="M34.4036 60.4589C34.3625 60.4589 34.3215 60.5 34.2804 60.5C33.9107 59.7606 34.5268 59.5142 34.9787 59.3088C35.3894 59.1035 35.9233 59.0213 36.3341 59.3088C36.7038 59.5964 36.4573 60.0071 36.4573 60.4178C36.0466 60.4589 35.6358 60.4589 35.2662 60.5C35.184 60.0892 35.5537 60.2125 35.718 60.1303C35.8823 60.0482 36.2109 60.0071 36.1287 59.7606C36.0466 59.5142 35.8001 59.5553 35.5948 59.5553C34.9376 59.5142 34.6501 59.9249 34.4036 60.4589Z" fill="#66BFA3"/>
<path d="M26.271 61.8143C26.5996 62.184 26.4353 62.5537 26.5175 62.8823C26.5585 63.0466 26.5586 63.2519 26.7639 63.2109C26.9693 63.2109 26.9693 63.0055 26.9693 62.8412C27.0104 62.4305 26.8871 62.0197 27.1747 61.5268C27.4211 62.184 27.38 62.759 27.2568 63.3341C27.2157 63.5805 26.9693 63.7037 26.6818 63.6627C26.4764 63.6216 26.271 63.5395 26.23 63.293C26.1478 62.8412 26.1067 62.3894 26.271 61.8143Z" fill="#66BFA3"/>
<path d="M30.9123 59.5553C30.3373 59.4321 29.8444 59.5143 29.3105 59.7196C28.6944 59.9661 28.0372 59.5143 27.38 59.5964C27.2568 59.5964 27.2157 59.4321 27.3389 59.3089C27.38 59.2678 27.4211 59.2267 27.4621 59.2267C28.6122 59.5964 29.8855 58.8571 31.0356 59.4321C30.9945 59.5143 30.9534 59.5553 30.9123 59.5553Z" fill="#66BFA3"/>
<path d="M41.7559 60.4589C41.7969 59.966 41.5916 59.2267 42.372 59.2267C43.1934 59.2267 42.947 59.966 42.9881 60.4589C42.9059 60.4589 42.7827 60.4589 42.7005 60.4589C42.6184 60.1714 42.7827 59.6785 42.413 59.6375C41.9201 59.5964 42.1666 60.1714 42.0434 60.4589C41.9612 60.4589 41.838 60.4589 41.7559 60.4589Z" fill="#66BFA3"/>
<path d="M33.5 62.3894C33.5 61.8555 33.5 61.3215 33.5 60.7875C33.7464 60.4179 33.9518 60.5 33.9518 60.9108C33.9929 61.4036 33.9518 61.8965 33.9518 62.3894C33.8286 62.3894 33.6643 62.3894 33.5 62.3894Z" fill="#38525F"/>
<path d="M25.0388 62.3894C25.121 62.8412 25.2031 63.293 24.8335 63.5805C24.6692 63.7448 24.4227 63.7037 24.2173 63.5805C23.8888 63.3752 23.9298 63.0466 24.012 62.759C24.4227 62.718 24.1763 63.4162 24.587 63.2519C24.9567 63.1287 24.6281 62.6358 25.0388 62.3894Z" fill="#66BFA3"/>
<path d="M33.5 79.8047C33.5 81.0369 33.5 82.228 33.5 83.4602C33.2536 82.2691 33.2536 81.0369 33.5 79.8047Z" fill="#38525F"/>
<path d="M37.2788 60.5C37.2788 59.8018 37.1145 59.0624 37.402 58.4052C37.4431 58.4463 37.4842 58.4874 37.5252 58.5285C37.5252 59.1856 37.5252 59.8017 37.5663 60.4589C37.4842 60.4589 37.402 60.4589 37.2788 60.5Z" fill="#66BFA3"/>
<path d="M22.5743 63.6626C22.9851 63.4162 23.2315 63.2519 23.478 63.1287C23.4369 63.6216 23.4369 63.6216 22.5743 63.6626Z" fill="#66BFA3"/>
<path d="M37.402 58.3641C37.6484 57.9945 37.8949 57.9534 38.1002 58.4052C37.9359 58.4463 37.7306 58.4463 37.5663 58.4874C37.4841 58.4463 37.4431 58.4052 37.402 58.3641Z" fill="#66BFA3"/>
<path d="M31.4052 60.0482C31.2409 60.0071 31.1177 59.8839 31.0767 59.7196C31.1177 59.6785 31.1177 59.6785 31.1588 59.6375C31.3642 59.6785 31.4463 59.8017 31.4874 59.966C31.4463 60.0071 31.4463 60.0071 31.4052 60.0482Z" fill="#66BFA3"/>
<path d="M31.0356 59.4732C31.0766 59.5142 31.1177 59.5964 31.1588 59.6375C31.1177 59.6785 31.1177 59.6785 31.0767 59.7196C31.0356 59.6785 30.9534 59.6375 30.9124 59.5964C30.9534 59.5553 30.9945 59.5142 31.0356 59.4732Z" fill="#66BFA3"/>
<path d="M51.2849 60.459C51.2027 60.459 51.1206 60.459 51.0385 60.459C51.1206 60.3768 51.2027 60.3768 51.2849 60.459Z" fill="#66BFA3"/>
<path d="M54.4887 58.241C54.4476 57.9534 54.4065 57.6248 54.3654 57.3373C54.3244 57.0909 54.3244 56.8444 54.2833 56.6391C52.9279 49.903 49.1901 44.9331 43.1523 41.6882C40.8522 40.456 38.3467 39.7988 35.759 39.4292C38.2645 39.306 40.77 39.4292 43.2345 39.3881C43.6452 39.3881 44.0149 39.3881 44.3845 39.1827C44.5077 39.306 44.672 39.3881 44.8774 39.3881C47.9169 39.3881 50.9563 39.3881 53.9958 39.347C54.1601 39.347 54.2833 39.2649 54.4476 39.2238C54.6119 39.1417 54.6119 38.9774 54.6119 38.8131C54.6119 35.4861 54.5708 32.1591 54.5708 28.8732C54.6119 25.8748 54.6119 22.8765 54.653 19.9192C54.4887 20.0835 54.5297 20.3299 54.5708 20.5353C55.228 23.4926 55.9673 26.4088 57.6103 29.0375C60.6086 33.8842 64.7982 37.088 70.261 38.6488C71.6164 39.0184 73.054 39.1006 74.4505 39.4703C74.4916 39.4703 74.5737 39.4292 74.6559 39.3881V39.4292C73.9165 39.306 73.2183 39.7578 72.479 39.5935C72.2736 39.347 72.0271 39.347 71.7396 39.306C70.4663 39.2238 69.1931 39.4292 67.9608 39.4292C63.8945 39.4292 59.8282 39.4292 55.7619 39.4292C54.694 39.4292 54.653 39.4703 54.653 40.5382C54.653 45.0974 54.6119 49.6155 54.653 54.1747C54.653 55.0372 54.7351 55.8998 54.653 56.8444C54.9405 56.6391 54.9405 56.4748 54.9405 56.2694C55.228 54.8729 55.5977 53.4764 56.1316 52.121C56.2548 51.8745 56.337 51.6281 56.6245 51.5049C56.0084 53.1067 55.3512 54.7086 55.0637 56.4337C55.0226 56.5569 55.0637 56.6802 55.0637 56.8034C54.8583 57.4606 54.8173 58.1177 54.7762 58.7749C54.4887 58.6928 54.653 58.4052 54.4887 58.241Z" fill="#38525F"/>
<path d="M78.4347 8.08992C79.5848 8.08992 80.5705 8.66495 81.4742 9.23999C84.9244 11.5812 86.6495 14.826 86.3209 18.9745C86.0334 22.7533 84.144 25.5463 80.8581 27.4357C79.0097 28.5036 76.9971 28.7911 74.9024 28.7089C74.6149 28.7089 74.3273 28.7089 74.0398 28.5446C73.9577 28.3393 73.7934 28.2982 73.6291 28.2161C71.1236 27.1071 69.9735 24.4783 70.7539 21.8496C71.3289 19.8781 73.2594 18.153 75.8881 18.1119C77.49 18.1119 78.7633 17.4547 79.8312 16.2636C81.5974 14.251 81.4742 11.0062 79.5437 9.15784C79.133 8.87032 78.6401 8.62388 78.4347 8.08992Z" fill="#F7BB4B"/>
<path d="M78.4347 8.08986C78.64 8.58274 79.1329 8.82919 79.5026 9.19885C81.4331 11.0472 81.5563 14.292 79.7901 16.3046C78.7222 17.4957 77.4078 18.1529 75.847 18.1529C73.2183 18.194 71.3289 19.9191 70.7128 21.8906C69.9324 24.5194 71.1235 27.1481 73.588 28.2571C73.7523 28.3392 73.9576 28.3803 73.9987 28.5857C69.8913 28.1749 66.0715 24.3961 65.2911 20.0012C64.1821 13.5116 69.152 7.63805 75.7238 7.63805C76.7096 7.63805 77.6132 7.76127 78.4347 8.08986Z" fill="#F9DFB6"/>
<path d="M52.8868 13.4295C53.8315 12.6902 53.9958 11.499 54.5708 10.5543C54.8172 12.5669 54.4065 14.5385 54.694 16.5511C54.694 17.1672 54.8172 17.8244 54.4886 18.4405C51.0795 21.8496 47.6293 25.2587 44.2202 28.6678C44.1381 28.6678 44.0559 28.6678 43.9738 28.6268C42.2897 26.9427 40.6468 25.2998 38.9628 23.6158C39.0449 23.2872 39.2914 23.1229 39.5378 22.8764C41.0575 21.3567 42.5362 19.7959 44.0559 18.2762C44.2202 18.2351 44.3434 18.2351 44.5077 18.194C45.0828 18.2351 45.6989 18.194 46.2739 17.9887C47.6293 17.7833 48.9848 17.5369 49.9295 16.4279C49.9295 16.3868 49.9705 16.3868 50.0116 16.3868C51.4081 15.8528 52.3528 14.8671 52.8868 13.5116C52.8457 13.4706 52.8457 13.4295 52.8868 13.4295Z" fill="#277781"/>
<path d="M44.1792 28.6268C47.5883 25.2177 51.0385 21.8085 54.4476 18.3994C54.7352 18.8512 54.5298 19.4263 54.653 19.9191C54.6119 22.9175 54.6119 25.9159 54.5709 28.8732C53.4208 29.9822 52.3118 31.1323 51.1617 32.2413C50.5456 32.8163 50.0938 33.5556 49.3134 33.9253C47.8348 32.6109 46.5204 31.1733 45.0828 29.7768C44.7542 29.4483 44.3435 29.1197 44.1792 28.6268Z" fill="#F7BB4B"/>
<path d="M12.8399 115.333C13.2506 114.799 13.5792 114.266 14.031 113.773C15.715 111.801 18.0562 110.939 20.3564 109.994C22.3279 109.213 24.3405 108.515 26.0656 107.16C26.8049 106.585 27.3389 105.845 27.8729 104.942C28.0782 105.311 27.9961 105.599 27.9139 105.886C26.3531 113.198 19.9456 118.537 12.4702 118.578C12.4291 118.578 12.347 118.578 12.3059 118.537C12.2648 117.675 12.1827 116.812 11.9362 115.991C12.1005 115.867 12.0595 115.744 11.8952 115.621C11.813 114.224 11.1148 113.115 10.3344 112.048C9.10216 110.364 7.45921 109.131 5.77518 107.94C4.66619 107.16 3.59828 106.338 2.69465 105.353C1.42137 103.997 1.46244 101.163 2.81788 99.8486C3.76257 98.945 4.83049 98.1646 5.89841 97.3842C7.7878 95.9877 9.67719 94.5912 10.9094 92.4964C11.4844 91.5517 12.0595 90.566 11.9362 89.3337C12.1416 88.5123 12.2648 87.6908 12.2238 86.8693C13.3738 86.6229 14.5239 86.8693 15.6329 87.1158C20.151 88.1015 23.5601 90.6481 25.9835 94.5912C27.1335 96.4395 27.9139 99.0272 27.9961 100.875C27.5853 100.259 27.2978 99.6843 26.8871 99.1914C25.4906 97.4253 23.4369 96.727 21.4654 95.9055C19.0831 94.9198 16.6597 94.1804 14.6882 92.4143C14.2364 92.0035 13.8667 91.5928 13.5381 91.141C13.3738 90.9356 13.2095 90.7303 13.0863 91.1821C12.7577 90.7713 12.8809 90.1141 12.3059 89.6623C12.3059 90.4017 12.3059 90.9767 12.3059 91.5517C12.3059 93.4822 12.347 95.4537 12.347 97.3842C10.9915 97.4664 9.75934 97.836 8.73249 98.7807C7.08954 100.342 6.55558 102.272 7.29491 104.408C8.11639 106.708 9.88256 107.858 12.2648 108.022C12.3059 109.542 12.3059 111.062 12.347 112.581C12.347 113.649 12.347 114.758 12.347 115.991C12.5113 115.703 12.5934 115.539 12.6345 115.416C12.8809 115.539 12.8809 115.457 12.8399 115.333Z" fill="#F7BB4B"/>
<path d="M12.7167 115.498C12.6346 115.621 12.5935 115.785 12.4292 116.073C12.4292 114.841 12.4292 113.732 12.4292 112.664C12.4292 111.144 12.3881 109.624 12.347 108.104C12.5935 108.063 12.7989 108.063 13.0453 108.022C15.0579 107.694 16.4955 106.585 17.2348 104.736C17.9741 102.806 17.6456 100.999 16.3312 99.3968C15.3044 98.1646 13.9078 97.6717 12.3881 97.5074C12.3881 95.5769 12.347 93.6054 12.347 91.6749C12.347 91.0999 12.347 90.5249 12.347 89.7855C12.9221 90.2784 12.7989 90.8945 13.1274 91.3053C14.0721 93.6876 15.8794 95.3305 17.892 96.8092C19.001 97.6306 20.11 98.4521 21.1779 99.2736C23.7245 101.286 23.478 104.654 21.0957 106.379C19.5349 107.529 18.0152 108.679 16.4955 109.912C14.9758 111.144 13.7846 112.623 13.0453 114.471C12.9221 114.758 12.7578 115.046 12.8399 115.375H12.881C12.7989 115.375 12.7578 115.457 12.7167 115.498Z" fill="#F9DFB6"/>
<path d="M11.9362 116.032C12.1827 116.853 12.2648 117.716 12.3059 118.578C9.63611 118.66 7.13061 117.962 4.78941 116.73C0.476666 114.348 -2.11098 110.651 -3.26104 105.886C-3.34319 105.599 -3.30212 105.27 -3.26104 104.942C-1.82346 107.612 0.805257 108.515 3.31076 109.583C4.62511 110.117 5.93947 110.651 7.25383 111.226C9.30752 112.171 10.9094 113.567 11.8952 115.662C11.9362 115.785 11.9362 115.908 11.9362 116.032Z" fill="#F9DFB6"/>
<path d="M12.2648 86.9515C12.2648 87.773 12.1827 88.5944 11.9773 89.4159C11.279 91.7982 9.4718 93.1536 7.41812 94.1805C5.65195 95.0841 3.76255 95.7002 1.95531 96.4806C0.476652 97.0967 -0.919856 97.8771 -2.15207 98.9861C-2.56281 99.3558 -2.68602 99.9308 -3.13784 100.3C-3.5075 99.1504 -1.98777 95.3305 -0.2216 93.1125C2.94108 89.1284 7.04845 86.9104 12.2648 86.9515Z" fill="#F9DFB6"/>
<path d="M38.5932 108.022C38.5521 108.269 38.4289 108.433 38.2235 108.638C36.8681 109.994 35.5537 111.308 34.1983 112.664C34.034 112.828 33.9107 113.115 33.6232 112.992C33.3768 112.869 33.5 112.581 33.5 112.335C33.5 110.528 33.5 108.762 33.5 106.749C33.0071 107.612 32.9661 108.392 32.7607 109.131C32.1856 110.98 31.3642 112.705 30.3373 114.307C29.8444 115.046 29.4748 116.073 28.489 116.483C29.6391 114.923 30.6659 113.321 31.5285 111.596C32.3499 109.871 32.925 108.063 33.1714 106.174C33.3357 105.106 33.4179 104.038 33.5411 102.97C34.3626 103.463 34.9376 104.202 35.5948 104.86C36.5805 105.886 37.7306 106.831 38.5932 108.022Z" fill="#38525F"/>
<path d="M38.5931 108.022C37.7306 106.831 36.5805 105.886 35.5537 104.86C34.8965 104.202 34.3215 103.422 33.5 102.97C33.5 102.929 33.5 102.888 33.5 102.847C37.0323 102.765 40.5647 102.765 44.097 102.847C42.5362 104.408 40.9754 105.969 39.4146 107.529C39.2092 107.735 39.0039 108.022 38.5931 108.022Z" fill="#66BFA3"/>
<path d="M28.3658 116.607C27.8729 117.551 27.1336 118.291 26.1478 118.825C26.805 118.003 27.5443 117.264 28.3658 116.607Z" fill="#38525F"/>
<path d="M33.5 101.04C33.5822 101.533 33.5411 102.026 33.5 102.518V102.477C33.5822 102.108 33.5822 101.738 33.5 101.368C33.5411 101.245 33.5 101.163 33.5 101.04Z" fill="#277781"/>
<path d="M33.541 101.368C33.6232 101.738 33.6232 102.108 33.541 102.477C33.4178 102.108 33.4178 101.738 33.541 101.368Z" fill="#38525F"/>
<path d="M35.759 39.3881C38.3466 39.7988 40.8521 40.4149 43.1522 41.6472C49.1901 44.892 52.9278 49.8619 54.2832 56.598C54.3243 56.8444 54.3243 57.0498 54.3654 57.2962C53.8725 56.3926 53.5439 55.3658 53.051 54.4211C52.1885 52.7781 50.9973 51.3816 49.6419 50.1905C45.2059 46.3296 39.9485 44.6866 34.1982 44.5634C29.5158 44.4812 24.8744 44.2348 20.2742 43.3723C18.2205 42.9615 16.1668 42.4686 14.2774 41.4418C13.5791 41.0721 13.0041 40.4971 12.4291 40.0042C12.4291 39.7578 12.4291 39.5524 12.4291 39.306C16.0025 39.306 19.5348 39.2649 23.1083 39.2649C26.2299 39.2649 29.3925 39.2649 32.5141 39.2649C32.8427 39.2649 33.1302 39.1827 33.4588 39.1417C33.5821 39.1417 33.6642 39.1417 33.7874 39.1417C34.4035 39.5113 35.1018 39.2649 35.759 39.3881Z" fill="#F7BB4B"/>
<path d="M-8.60059 18.1529C-8.60059 17.7833 -8.272 17.4958 -8.43629 17.085C-8.51844 16.9207 -8.31307 16.7154 -8.18985 16.7564C-7.49159 17.0029 -7.28623 16.3868 -6.95764 16.0582C-1.74127 10.924 3.39295 5.74866 8.56824 0.614447C9.63616 -0.412397 10.6219 -1.48031 11.7309 -2.46608C11.9363 -2.63038 12.1006 -2.83575 12.4292 -2.79467C12.1827 -1.76783 12.3059 -0.699913 12.1417 0.326931C11.6488 2.54491 11.0737 4.72182 9.96474 6.73443C6.47348 13.1009 1.21604 16.8796 -5.97187 17.9886C-6.3826 18.0708 -6.79334 18.1119 -7.24515 18.194C-7.69696 18.194 -8.14877 18.2762 -8.60059 18.1529Z" fill="#66BFA3"/>
<path d="M28.3247 34.1307C26.6407 32.4877 24.9977 30.8448 23.3137 29.2018C23.0262 28.9143 22.9851 28.7089 23.3137 28.4214C26.7228 25.0123 30.173 21.6032 33.5821 18.194C33.6643 18.2762 33.7464 18.2762 33.8286 18.194C33.7875 18.2351 33.7875 18.2762 33.8286 18.3173C33.8286 18.6048 34.075 18.7691 34.2393 18.9744C35.0608 19.7959 35.9233 20.6174 36.7448 21.4799C37.3609 22.1371 38.1413 22.6711 38.5931 23.4926C38.511 23.6158 38.4699 23.7801 38.3467 23.9033C35.718 26.532 33.0892 29.1607 30.5016 31.7895C29.7623 32.5288 28.9408 33.227 28.3247 34.1307Z" fill="#F7BB4B"/>
<path d="M12.4293 18.4405C12.3882 18.0709 12.6757 17.8655 12.8811 17.6601C16.2902 14.2921 19.6993 10.883 23.0674 7.51491C23.437 8.50068 24.3406 9.03464 24.9978 9.77396C25.9836 10.883 27.1337 11.7866 28.0373 12.9366C27.7498 13.6349 27.1337 14.0046 26.6408 14.4974C23.8478 17.3315 21.0137 20.1245 18.2207 22.9176C18.0153 23.1229 17.8099 23.4104 17.4402 23.3694C16.5777 22.5068 15.7562 21.6443 14.8937 20.7817C14.1133 20.0013 13.415 19.0566 12.4293 18.4405Z" fill="#66BFA3"/>
<path d="M28.3247 34.1307C28.9408 33.227 29.7623 32.5698 30.5016 31.7894C33.0893 29.1607 35.718 26.532 38.3467 23.9033C38.4699 23.7801 38.511 23.6158 38.5931 23.4926C38.6753 23.5336 38.7985 23.5747 38.8807 23.6158C40.5647 25.2998 42.2076 26.9427 43.8917 28.6268C43.9327 28.9964 43.6452 29.2018 43.4398 29.4072C41.2629 31.5841 39.086 33.7199 36.9502 35.8968C35.8823 37.0058 34.6501 37.9916 33.7464 39.2649C33.6232 39.2649 33.5411 39.2649 33.4179 39.2649C31.6928 37.5398 30.0087 35.8147 28.3247 34.1307Z" fill="#F9DFB6"/>
<path d="M28.0783 12.8955C27.1747 11.7044 26.0246 10.8008 25.0389 9.73284C24.3817 8.99352 23.4781 8.45956 23.1084 7.47379C25.4907 5.05044 27.8729 2.62709 30.2963 0.244809C31.1588 -0.617739 32.0214 -1.48029 32.8839 -2.34284C33.0482 -2.50713 33.2125 -2.75357 33.5 -2.79465C33.5 -0.248076 33.5 2.33957 33.5 4.88614C33.5 5.17366 33.4179 5.46117 33.6233 5.70762C33.3358 6.3648 33.5822 7.06305 33.459 7.72023C33.3358 7.80238 33.2125 7.80238 33.1304 7.9256C31.4874 9.56855 29.8445 11.2115 28.2426 12.8544C28.2015 12.8955 28.1194 12.8955 28.0783 12.8955Z" fill="#F7BB4B"/>
<path d="M28.2426 12.8955C29.8855 11.2526 31.4874 9.60961 33.1303 7.96666C33.2125 7.88451 33.3768 7.84344 33.4589 7.76129C33.5 8.13096 33.5 8.54169 33.5411 8.91136C33.4179 11.9508 33.5 14.9492 33.5 17.9887C33.0893 18.0297 32.966 17.6601 32.7607 17.4958C31.2409 15.976 29.7623 14.4152 28.2426 12.8955Z" fill="#F9DFB6"/>
<path d="M12.1416 0.326957C12.3059 -0.699887 12.1827 -1.7678 12.4291 -2.79465H12.4702C14.1131 -1.11062 15.7972 0.5734 17.4401 2.25742C17.0294 3.20212 16.1668 3.77715 15.4686 4.51648C14.6882 5.33795 13.8667 6.11835 13.0452 6.89876C12.8809 7.06305 12.7577 7.30949 12.4702 7.18627C12.2648 7.06305 12.347 6.81661 12.3059 6.61124C12.2648 4.72185 12.347 2.83246 12.2237 0.943063C12.3059 0.696621 12.3059 0.491252 12.1416 0.326957Z" fill="#38525F"/>
<path d="M12.4292 18.4404C13.4149 19.0566 14.1132 20.0012 14.9347 20.8227C15.7972 21.6442 16.6187 22.5478 17.4812 23.4104C17.358 24.0265 16.8651 24.3961 16.4544 24.7658C15.3043 25.7926 14.2364 26.9427 13.1274 28.0106C12.9631 28.1749 12.8399 28.4624 12.5524 28.3392C12.306 28.216 12.3881 27.9285 12.3881 27.682C12.3881 25.1355 12.347 22.5889 12.3881 20.0423C12.3881 19.4673 12.1417 18.9333 12.4292 18.4404Z" fill="#38525F"/>
<path d="M33.5 17.9887C33.5411 14.9492 33.4178 11.9508 33.5411 8.91139C33.7875 10.5543 34.3215 12.1151 35.2661 13.4706C36.9502 15.8939 39.1681 17.4958 42.1255 17.9887C42.2076 17.9887 42.2898 18.0708 42.413 18.1119C42.0844 18.1119 41.7147 18.1119 41.3861 18.153C41.304 18.153 41.2218 18.153 41.1808 18.153C40.6057 18.153 39.9896 18.153 39.4146 18.153C39.1271 18.153 38.8806 18.153 38.5931 18.153C37.6895 18.153 36.8269 18.153 35.9233 18.153C35.5537 18.0298 35.2251 17.8244 34.8143 18.0708C34.65 18.1119 34.4857 18.1119 34.3215 18.153C34.1572 18.153 33.9929 18.153 33.8696 18.153C33.7875 18.2351 33.7053 18.1941 33.6232 18.153C33.5411 18.1119 33.5411 18.0298 33.5 17.9887Z" fill="#38525F"/>
<path d="M11.1148 32.2002C10.663 31.2144 10.2112 30.2697 9.7594 29.2839C10.088 29.2018 10.2523 29.5304 10.3344 29.6947C10.7862 30.4751 11.197 31.2965 11.1148 32.2002Z" fill="#38525F"/>
<path d="M12.1828 36.4308C11.8131 35.6093 11.8542 34.7057 11.6488 33.8842C12.306 34.6235 12.2238 35.5272 12.1828 36.4308Z" fill="#38525F"/>
<path d="M11.5255 33.5145C11.3612 33.227 11.2791 32.9395 11.2791 32.6109C11.813 32.7752 11.8541 33.1038 11.5255 33.5145Z" fill="#38525F"/>
<path d="M-8.76491 23.5336C-2.68599 23.6158 1.95534 26.3267 4.95372 31.543C8.36284 37.4166 7.66459 44.358 3.2697 49.5744C0.476687 52.9014 -3.1378 54.7497 -7.49162 55.1194C-7.9845 55.1604 -8.43631 55.1604 -8.9292 55.2015C-8.7649 53.4353 -8.80598 51.6692 -8.9292 49.903C-1.53593 49.9851 3.80366 42.5508 1.01065 35.5683C-0.714451 31.2144 -4.12357 28.9554 -8.84705 28.75C-8.84705 26.9838 -8.88813 25.2587 -8.76491 23.5336Z" fill="#F7BB4B"/>
<path d="M75.9291 81.5297C75.9291 81.5297 75.8881 81.5297 75.9291 81.5297C79.4204 77.9974 82.9528 74.465 86.4851 70.9327C87.2244 72.206 88.4567 73.0685 89.4424 74.1364C90.1407 74.8758 90.7979 75.6562 91.6604 76.2312C91.6604 76.2723 91.7015 76.3544 91.7015 76.3955C89.9353 77.9152 88.2924 79.5582 86.7726 81.2833C86.5673 81.3244 86.444 81.4476 86.3619 81.6119C85.9101 81.7351 85.4583 81.7351 84.9654 81.653C84.5546 81.4887 84.1439 81.5708 83.7332 81.5708C83.2813 81.5297 82.8295 81.5297 82.3367 81.6119C82.1313 81.6119 81.8848 81.6119 81.6795 81.6119C81.6384 81.6119 81.5973 81.6119 81.5152 81.6119C81.0223 81.6119 80.5294 81.6119 80.0365 81.6119C79.749 81.5297 79.4615 81.5297 79.174 81.6119C78.1882 81.6119 77.2435 81.6119 76.2577 81.6119C76.1756 81.5708 76.0524 81.5297 75.9291 81.5297Z" fill="#66BFA3"/>
<path d="M76.0114 60.7464C76.0524 60.3767 76.2989 60.4178 76.5453 60.4178C79.708 60.4178 82.8296 60.4589 85.9923 60.5C86.0333 60.5 86.0744 60.541 86.2798 60.6232C84.5136 62.3894 82.9117 64.1966 81.0224 65.7574C79.3794 64.1145 77.6954 62.4304 76.0114 60.7464Z" fill="#66BFA3"/>
<path d="M76.0113 60.7465C77.6954 62.4305 79.3383 64.0734 81.0223 65.7574C79.5437 67.2772 78.065 68.7969 76.5864 70.3577C76.4631 70.4809 76.2989 70.6452 76.0935 70.5631C75.847 70.4809 75.806 70.2756 75.806 70.0702C75.806 69.4541 75.806 68.7969 75.806 68.1808C75.806 65.8807 75.806 63.5805 75.7649 61.2804C75.806 61.075 75.7649 60.8697 76.0113 60.7465Z" fill="#38525F"/>
<path d="M54.7351 102.765C54.8172 102.724 54.8994 102.724 55.0226 102.683C55.5565 102.847 56.1316 102.806 56.6655 102.847C65.7839 103.668 73.5057 110.61 75.3541 119.564C75.5184 120.262 75.4362 121.002 75.7237 121.659C75.6416 122.275 75.847 122.85 75.6827 123.466C75.4773 123.384 75.5184 123.137 75.3951 122.973C75.4362 122.686 75.313 122.398 75.1898 122.152C74.1219 119.728 72.4378 117.798 70.3431 116.196C68.0019 114.43 65.4553 113.074 62.9909 111.555C59.8693 109.624 56.953 107.447 55.1869 104.079C55.1047 103.915 55.0226 103.71 54.7761 103.792C54.9815 103.463 54.4886 103.135 54.7351 102.765Z" fill="#66BFA3"/>
<path d="M75.7237 121.659C75.4362 121.002 75.5184 120.262 75.3541 119.564C73.4647 110.569 65.7428 103.669 56.6655 102.847C56.1316 102.806 55.5565 102.888 55.0226 102.683C56.1316 102.683 57.2406 102.601 58.3496 102.395C58.8424 103.052 59.5407 103.011 60.239 102.888C60.6497 102.806 61.0604 102.765 61.5122 102.765C65.8661 102.765 70.1788 102.765 74.5326 102.765C75.6416 102.765 75.8059 102.888 75.8059 104.079C75.8059 108.515 75.8059 112.951 75.8059 117.387C75.8059 118.537 75.7238 119.646 75.8881 120.796C75.847 121.084 75.847 121.371 75.7237 121.659Z" fill="#38525F"/>
<path d="M58.4318 102.436C58.555 102.313 58.7193 102.313 58.8836 102.354C58.7604 102.477 58.5961 102.477 58.4318 102.436Z" fill="#38525F"/>
<path d="M75.3541 86.0068C75.3952 85.9247 75.3952 85.8425 75.4363 85.7604C75.4363 85.8014 75.3952 85.9247 75.3541 86.0068Z" fill="#38525F"/>
<path d="M42.2487 55.6944C41.3451 56.6391 41.3451 57.0909 42.1255 57.5427C42.1255 57.4605 42.1666 57.3784 42.1666 57.3373C41.9612 56.9677 41.9201 56.6391 42.3309 56.3926C42.6184 56.2283 42.9059 56.2694 43.1113 56.5158C43.4399 56.8444 43.3988 57.2552 43.1934 57.6248C42.9059 58.1588 42.1666 58.282 41.6737 57.9123C41.1397 57.5016 41.0165 56.9266 41.1808 56.2694C41.3451 55.8176 41.6326 55.5712 42.2487 55.6944ZM42.947 57.173C42.947 57.0087 42.8648 56.9266 42.7416 56.9266C42.5773 56.9266 42.5773 57.0909 42.5773 57.2141C42.5773 57.3373 42.5773 57.4605 42.7005 57.4605C42.8238 57.5016 42.9059 57.3373 42.947 57.173Z" fill="#277781"/>
<path d="M42.7415 12.7312C39.7431 11.9508 38.1002 8.95245 39.0038 6.03622C39.9485 3.03783 43.4398 1.5181 45.9042 2.79139C46.0274 3.07891 46.1506 3.36642 46.2739 3.65394C47.0953 5.21474 46.6435 6.57017 45.0827 7.39165C44.5488 7.67917 43.9737 7.63809 43.3987 7.76131C41.6736 8.21312 40.9343 9.89715 41.7558 11.499C42.0433 11.9919 42.4129 12.3205 42.7415 12.7312Z" fill="#F9DFB6"/>
<path d="M42.7416 12.7312C42.413 12.3205 42.0433 11.9919 41.7969 11.499C40.9754 9.89716 41.7147 8.17206 43.4399 7.76132C44.0149 7.6381 44.5899 7.67917 45.1239 7.39166C46.6847 6.57018 47.1365 5.21475 46.315 3.65395C46.1507 3.36643 46.0686 3.07891 45.9454 2.7914C47.7937 3.36643 48.8205 4.68079 49.2313 6.48803C50.176 10.2668 46.5615 13.7581 42.7416 12.7312Z" fill="#F7BB4B"/>
<path d="M35.8824 18.1529C36.786 18.1529 37.6485 18.1529 38.5521 18.1529C38.8397 18.2762 39.0861 18.2351 39.3736 18.1529C39.9487 18.1529 40.5648 18.1529 41.1398 18.1529C41.2219 18.1529 41.3041 18.1529 41.3452 18.1529C41.6737 18.1529 42.0434 18.1529 42.372 18.1119C42.906 18.1529 43.4399 18.194 43.9328 18.2351C42.4131 19.7548 40.9344 21.3156 39.4147 22.8353C39.2093 23.0407 38.9218 23.205 38.8397 23.5747C38.7575 23.5336 38.6343 23.4925 38.5521 23.4515C38.1414 22.5889 37.3199 22.096 36.7038 21.4388C35.8824 20.5763 35.0198 19.7548 34.1983 18.9333C34.034 18.769 33.7876 18.6047 33.7876 18.2762C33.9519 18.2351 34.1162 18.194 34.2394 18.1529C34.4037 18.1119 34.568 18.1119 34.7323 18.0708C35.143 18.3583 35.5127 18.2351 35.8824 18.1529Z" fill="#66BFA3"/>
<path d="M52.8457 13.5116C52.3118 14.9081 51.326 15.8528 49.9706 16.3868C50.9974 15.5242 51.9421 14.5385 52.8457 13.5116Z" fill="#38525F"/>
<path d="M49.8473 16.4279C48.8616 17.5368 47.5472 17.7422 46.1918 17.9887C47.424 17.4958 48.6973 17.085 49.8473 16.4279Z" fill="#38525F"/>
<path d="M51.1617 -0.289154C51.86 0.203731 52.5172 0.819837 52.8047 1.68239C52.1475 1.10735 51.5725 0.532321 51.1617 -0.289154Z" fill="#38525F"/>
<path d="M46.1917 17.9887C45.6167 18.194 45.0416 18.2351 44.4255 18.194C44.9595 17.8654 45.5756 17.9887 46.1917 17.9887Z" fill="#38525F"/>
<path d="M49.3134 118.496V118.537C47.5883 116.812 45.8632 115.087 44.1381 113.321C44.1791 113.28 44.1791 113.198 44.2202 113.157C47.424 109.953 50.6277 106.79 53.8315 103.586C53.9958 103.422 54.1601 103.299 54.2011 103.093C54.694 102.806 54.7351 103.135 54.7351 103.504C54.694 106.831 54.694 110.158 54.6529 113.444C53.8725 114.019 53.2975 114.8 52.5993 115.416C51.4081 116.401 50.5045 117.634 49.3134 118.496Z" fill="#F7BB4B"/>
<path d="M44.1792 113.198C44.1381 113.239 44.1381 113.321 44.097 113.362C44.1381 113.28 44.1792 113.239 44.1792 113.198Z" fill="#66BFA3"/>
<path d="M54.7763 103.792C55.0227 103.71 55.1049 103.915 55.187 104.079C56.9532 107.447 59.8694 109.583 62.991 111.555C65.4554 113.074 68.0431 114.43 70.3432 116.196C72.438 117.798 74.122 119.687 75.1899 122.152C75.3131 122.398 75.4364 122.686 75.3953 122.973C73.9577 121.125 72.1505 119.81 69.9325 119.112C68.7824 118.743 67.5913 118.414 66.4412 118.044C64.4286 117.469 62.4571 116.894 60.6087 115.867C57.8157 114.307 56.1317 111.924 55.3513 108.885C54.8995 107.201 54.5298 105.517 54.7763 103.792Z" fill="#277781"/>
<path d="M49.3134 118.496C50.5456 117.634 51.4081 116.401 52.5582 115.416C53.2564 114.8 53.8315 113.978 54.6119 113.444C54.6119 113.608 54.6529 113.732 54.6529 113.896C54.6529 114.224 54.6529 114.553 54.6529 114.882C54.6529 115.087 54.6529 115.333 54.6529 115.539C54.6529 115.662 54.6529 115.826 54.6529 115.95C54.6529 117.88 54.6529 119.769 54.6529 121.7C54.6529 122.357 54.6529 122.973 54.6529 123.712C52.8046 121.905 51.0385 120.221 49.3134 118.496Z" fill="#F9DFB6"/>
<path d="M54.653 114.841C54.653 114.512 54.653 114.183 54.653 113.855C54.7762 114.183 54.7351 114.512 54.653 114.841Z" fill="#277781"/>
<path d="M54.653 115.95C54.653 115.826 54.653 115.662 54.653 115.539C54.7351 115.662 54.7351 115.785 54.653 115.95Z" fill="#277781"/>
<path d="M3.14653 0.162679C3.10546 0.368047 2.98224 0.491269 2.77687 0.491269C2.53042 0.450195 2.36613 0.326974 2.36613 0.0805311C2.32505 -0.165912 2.53042 -0.206985 2.73579 -0.206985C2.94116 -0.206985 3.10546 -0.0837641 3.14653 0.162679Z" fill="#66BFA3"/>
<path d="M56.6246 51.4637C56.3781 51.587 56.2549 51.8334 56.1317 52.0799C55.5566 53.4353 55.2281 54.8318 54.9405 56.2283C54.8995 56.3926 54.8995 56.598 54.653 56.8033C54.6941 55.8586 54.653 54.9961 54.653 54.1335C54.6119 49.5744 54.653 45.0562 54.653 40.4971C54.653 39.4291 54.6941 39.3881 55.762 39.3881C59.8283 39.3881 63.8946 39.3881 67.9609 39.3881C69.2342 39.3881 70.4664 39.1827 71.7397 39.2648C72.0272 39.2648 72.2737 39.3059 72.479 39.5524C69.6039 40.1274 66.893 41.0721 64.4286 42.674C63.2374 43.4544 62.1695 44.4401 61.0605 45.3027C60.8552 45.4259 60.6087 45.5081 60.4855 45.7956V45.7545C60.3623 45.9599 60.198 46.1652 60.0748 46.3295C59.9926 46.4117 59.9105 46.4938 59.8283 46.576C59.664 46.617 59.5819 46.7403 59.5408 46.8635V46.8224C59.4997 46.8635 59.4176 46.9456 59.3765 46.9867H59.4176C59.2122 47.0689 59.089 47.2331 59.089 47.4385C58.0211 48.5475 57.1174 49.7797 56.7067 51.2995C56.6656 51.3816 56.6656 51.4227 56.6246 51.4637Z" fill="#277781"/>
<path d="M56.6655 51.3405C57.0763 49.8208 57.9799 48.5886 59.0478 47.4796C58.2263 48.7529 57.4459 50.0672 56.6655 51.3405Z" fill="#38525F"/>
<path d="M60.0747 46.3295C60.1979 46.1241 60.3622 45.9188 60.4854 45.7545C60.4854 46.042 60.239 46.1652 60.0747 46.3295Z" fill="#38525F"/>
<path d="M60.4443 45.7545C60.5265 45.467 60.814 45.3849 61.0194 45.2616C60.8961 45.5081 60.7319 45.7135 60.4443 45.7545Z" fill="#38525F"/>
<path d="M59.0479 47.4797C59.0479 47.2332 59.2121 47.11 59.3764 47.0278C59.3354 47.2332 59.2121 47.3975 59.0479 47.4797Z" fill="#38525F"/>
<path d="M59.4996 46.8635C59.5407 46.6992 59.6229 46.576 59.7871 46.576C59.7461 46.6992 59.6639 46.8225 59.4996 46.8635Z" fill="#38525F"/>
<path d="M59.3354 47.0278C59.3765 46.9867 59.4587 46.9046 59.4998 46.8635C59.4998 46.9456 59.4587 47.0278 59.3354 47.0278Z" fill="#38525F"/>
<path d="M86.485 100.054C83.8563 100.218 81.7205 99.1093 80.1597 97.1378C76.3809 92.3321 79.0507 85.4318 85.0885 84.3638C85.5404 84.2817 86.0332 84.2406 86.485 84.3228C86.1975 85.1853 86.4029 86.0479 86.3618 86.8693C86.1975 86.9104 86.0332 86.9104 85.91 86.9104C82.7473 87.239 80.6115 90.032 81.1865 93.1536C81.6384 95.577 83.4045 97.0967 86.3618 97.4253C86.3618 98.3289 86.1975 99.2325 86.485 100.054Z" fill="#F9DFB6"/>
<path d="M86.4851 100.054C86.1976 99.1914 86.3619 98.3289 86.3619 97.5074C86.4851 97.5074 86.6084 97.4663 86.7727 97.4663C90.3461 97.1788 92.6462 93.6054 91.2908 90.2784C90.4282 88.1015 88.7031 87.0336 86.403 86.9104C86.4441 86.0478 86.1976 85.1853 86.5262 84.3638C89.5246 84.1995 92.6462 86.3764 93.8373 89.457C95.6857 94.3447 92.3587 99.6432 87.1834 100.136C86.8959 100.095 86.6905 100.054 86.4851 100.054Z" fill="#F7BB4B"/>
<path d="M86.7726 81.3243C88.2923 79.5993 89.9353 77.9563 91.7014 76.4366C93.3033 78.0385 94.9462 79.5993 96.507 81.2833C96.2606 81.694 95.8909 81.6529 95.4802 81.6529C92.8926 81.6119 90.3049 81.6119 87.6762 81.6119C87.553 81.6119 87.4298 81.694 87.3065 81.694C87.1422 81.694 86.978 81.694 86.7726 81.6529C86.7726 81.5297 86.7726 81.4065 86.7726 81.3243Z" fill="#277781"/>
<path d="M86.7727 81.3244C86.7727 81.4476 86.7727 81.5298 86.7727 81.653C86.6495 81.653 86.4852 81.653 86.3619 81.653C86.4441 81.4887 86.5673 81.3655 86.7727 81.3244Z" fill="#38525F"/>
<path d="M82.3367 81.6119C82.7885 81.5297 83.2403 81.5297 83.7332 81.5708C83.2814 81.7351 82.8296 81.7762 82.3367 81.6119Z" fill="#277781"/>
<path d="M79.215 81.653C79.5025 81.5708 79.79 81.5708 80.0775 81.653C79.79 81.7351 79.5025 81.7762 79.215 81.653Z" fill="#277781"/>
<path d="M75.9291 81.5298C76.0523 81.5708 76.1756 81.6119 76.3399 81.653C76.1756 81.653 76.0113 81.6941 75.8881 81.6941C75.8881 81.6119 75.8881 81.5708 75.9291 81.5298Z" fill="#277781"/>
<path d="M81.5563 81.653C81.5973 81.6119 81.6384 81.6119 81.7206 81.653C81.6384 81.6119 81.5973 81.6119 81.5563 81.653Z" fill="#277781"/>
<path d="M53.1333 92.0446C49.2312 91.5107 46.4793 89.3337 44.9185 85.8014C42.947 81.2422 44.3024 76.1901 48.2865 73.1918C50.9153 71.2202 53.8315 70.563 57.0353 71.4256C57.1174 71.7131 57.3638 71.8774 57.6103 72.0417C58.3496 72.5757 58.9657 73.1507 59.3354 74.0132C60.9783 77.5045 58.6371 81.4476 54.7762 81.5708C53.1333 81.6119 51.7778 82.228 50.6277 83.4191C49.3955 84.6924 48.9437 87.1158 49.6009 88.7176C50.2992 90.3606 51.5314 91.3874 53.1333 92.0446Z" fill="#F9DFB6"/>
<path d="M53.1332 92.0446C51.5313 91.4285 50.2991 90.4017 49.6419 88.7176C48.9848 87.0747 49.4366 84.6924 50.6688 83.4191C51.8189 82.228 53.1332 81.6119 54.8172 81.5708C58.6782 81.4887 61.0194 77.5045 59.3764 74.0132C58.9657 73.1507 58.3496 72.5757 57.6513 72.0417C57.4049 71.8774 57.1584 71.7131 57.0763 71.4256C58.7192 71.672 60.0747 72.4935 61.348 73.4793C64.6339 76.108 66.1536 80.9547 64.5928 85.2674C63.032 89.6213 58.021 92.7839 53.4618 92.1268C53.3386 92.1268 53.2564 92.0857 53.1332 92.0446Z" fill="#F7BB4B"/>
<path d="M44.5488 60.4178C44.9185 59.5553 45.4525 59.3088 46.2739 59.6374C46.6847 59.8017 47.0133 59.8428 47.4651 59.6374C48.3276 59.2678 48.8616 59.5553 49.3545 60.5C49.2312 60.6232 49.108 60.7875 48.9437 60.6643C48.2044 60.1714 47.424 60.5 46.6436 60.5411C46.5204 60.5411 46.3972 60.5821 46.2739 60.5411C45.4114 60.3768 45.2471 60.5 45.206 61.3625C45.206 61.7733 45.1649 62.1429 45.1649 62.5537C45.1239 62.718 45.0006 62.8001 44.8363 62.8001C44.8363 62.759 44.8774 62.6769 44.8774 62.6358C44.8363 62.1429 44.7953 61.609 44.9185 61.1161C44.9185 60.7875 44.8774 60.5411 44.5488 60.4178Z" fill="#277781"/>
<path d="M9.22548 62.2251C9.38978 62.2662 9.59514 62.3073 9.75944 62.3483C10.5398 62.5126 10.9506 62.2251 10.9506 61.4036C10.9916 60.3357 10.9506 59.3089 10.9506 58.241C10.9506 57.8302 10.9917 57.3784 11.5256 57.3784C12.1006 57.3373 12.0596 57.8302 12.0596 58.241C12.0596 59.3089 12.1006 60.4179 12.0596 61.4858C12.0596 62.6358 11.3613 63.4984 10.4577 63.6216C9.3487 63.7859 8.44508 63.293 8.11649 62.2251C7.74683 61.1161 8.15756 59.8839 9.10226 59.391C9.22548 59.3089 9.3487 59.2678 9.47192 59.2678C9.92373 59.2267 10.4577 59.0624 10.5809 59.6785C10.7041 60.2536 10.2113 60.3357 9.80051 60.4589C9.67729 60.5 9.55407 60.5 9.38978 60.5C9.47192 60.2536 9.67729 60.2125 9.88266 60.1303C10.047 60.0482 10.2934 60.0071 10.2113 59.7607C10.1291 59.5142 9.92373 59.4732 9.67729 59.5142C8.97904 59.6375 8.5683 60.0893 8.36293 60.7465C8.11649 61.5679 8.23971 62.3073 8.89689 62.9234C9.43085 63.4162 10.088 63.4573 10.7452 63.2109C11.5256 62.8823 11.8131 62.2251 11.8131 61.4447C11.8131 60.4589 11.8131 59.4321 11.8131 58.4463C11.8131 58.1999 11.9363 57.7891 11.5667 57.8302C11.2792 57.8302 11.3202 58.241 11.3202 58.4874C11.3202 59.391 11.3202 60.2946 11.3202 61.1983C11.3202 61.5679 11.2792 61.9376 11.0738 62.2662C10.5809 62.9234 9.71837 62.9234 9.22548 62.2251Z" fill="#277781"/>
<path d="M9.38977 60.5C9.1844 61.075 8.97903 61.609 9.22547 62.2251C8.65044 61.5679 8.69151 61.034 9.38977 60.5Z" fill="#277781"/>
<path d="M11.772 80.3797C11.9363 80.4208 12.0185 80.4618 11.9363 80.6672C11.8131 80.5851 11.731 80.5029 11.772 80.3797Z" fill="#277781"/>
<path d="M34.609 63.1698C34.3215 63.5806 33.8697 63.6216 33.4178 63.7038C33.4178 63.5395 33.4178 63.3341 33.4178 63.1698C33.7875 63.5395 34.1982 63.1698 34.609 63.1698Z" fill="#277781"/>
<path d="M33.4999 62.3894C33.6642 62.3894 33.8285 62.3894 33.9518 62.3894C33.9107 62.6358 33.7053 62.6769 33.4589 62.6769C33.4999 62.5948 33.4999 62.5126 33.4999 62.3894Z" fill="#277781"/>
<path d="M33.4589 62.7179C33.4589 62.759 33.4178 62.8412 33.4178 62.8823C33.4178 62.8412 33.4589 62.759 33.4589 62.7179Z" fill="#277781"/>
<path d="M37.2788 60.5C37.361 60.5 37.4431 60.4589 37.5663 60.4589C37.6074 60.5 37.6074 60.5 37.6485 60.5411C37.6485 61.075 37.5663 61.609 37.6074 62.1019C37.6485 62.8823 38.1414 63.3341 38.8396 63.3751C39.5789 63.4162 40.195 63.0055 40.4004 62.3072C40.4826 62.0608 40.6058 61.7322 40.3183 61.609C39.9075 61.4447 39.9897 61.8965 39.8664 62.1019C39.7022 62.4305 39.4968 62.6769 39.1271 62.718C38.7985 62.759 38.511 62.6769 38.4289 62.2662C39.086 62.6358 39.4557 62.3483 39.5789 61.7322C39.6611 61.3215 39.8254 61.1572 40.195 61.1982C40.6468 61.2393 40.729 61.5679 40.7701 61.9376C40.8111 62.8412 39.9897 63.7037 39.0039 63.827C38.3056 63.9091 37.4842 63.2519 37.361 62.3894C37.2788 61.6911 37.3199 61.1161 37.2788 60.5Z" fill="#277781"/>
<path d="M41.7558 60.4589C41.8379 60.4589 41.9612 60.4589 42.0433 60.4589C42.0844 60.5 42.0844 60.5 42.1255 60.5411C42.1255 61.3215 42.0844 62.0608 42.0844 62.8412C42.0844 63.0466 42.0844 63.293 42.3719 63.293C42.6594 63.293 42.6594 63.0466 42.6594 62.8412C42.6594 62.0608 42.6594 61.3215 42.6183 60.5411L42.6594 60.5C42.7416 60.5 42.8648 60.5 42.9469 60.5C42.9469 61.2393 42.9469 61.9786 42.9469 62.718C42.9469 63.1287 42.9469 63.6627 42.3308 63.6627C41.7147 63.6627 41.7558 63.1287 41.7147 62.718C41.7558 61.9376 41.7558 61.1982 41.7558 60.4589Z" fill="#277781"/>
<path d="M34.4037 60.4589C34.6091 59.966 34.9376 59.5142 35.5538 59.5553C35.7591 59.5553 36.0466 59.5142 36.0877 59.7607C36.1699 60.0482 35.8823 60.0482 35.677 60.1303C35.5127 60.2125 35.143 60.1303 35.2252 60.5C34.9376 61.1161 35.2252 61.8554 34.8966 62.6769C34.8966 62.0197 34.8966 61.5679 34.8966 61.1161C34.9376 60.7464 34.8144 60.5 34.4037 60.4589Z" fill="#277781"/>
<path d="M38.1413 60.4589C38.2234 60.4589 38.3467 60.5 38.4288 60.5C38.4288 61.075 38.4288 61.6501 38.4288 62.2251C37.8538 61.7322 38.2645 61.075 38.1002 60.5C38.1002 60.5 38.1002 60.4589 38.1413 60.4589Z" fill="#277781"/>
<path d="M34.609 63.1698C34.609 63.1287 34.6501 63.0876 34.6501 63.0466C34.7322 63.1287 34.6501 63.1287 34.609 63.1698Z" fill="#277781"/>
<path d="M39.2093 60.1303C38.8396 60.2536 38.3467 59.8839 38.1003 60.4589L38.0592 60.5C37.936 60.5 37.7717 60.5 37.6485 60.5C37.6074 60.4589 37.6074 60.4589 37.5663 60.4179C37.5663 59.7607 37.5663 59.1446 37.5253 58.4874C37.6896 58.4463 37.8949 58.4463 38.0592 58.4052C38.0592 59.391 38.1414 59.4732 39.2093 59.5142" fill="#277781"/>
<path d="M42.0433 60.4589C42.1666 60.1714 41.9201 59.6375 42.413 59.6375C42.7826 59.6375 42.6184 60.1714 42.7005 60.4589L42.6594 60.5C42.4951 60.5 42.2898 60.5 42.1255 60.5C42.0844 60.5 42.0844 60.5 42.0433 60.4589Z" fill="#277781"/>
<path d="M33.7053 39.2237C34.65 37.9505 35.8412 36.9647 36.9091 35.8557C39.0449 33.6788 41.2629 31.543 43.3987 29.366C43.6041 29.1607 43.9327 28.9964 43.8505 28.5856C43.9327 28.5856 44.0148 28.5856 44.097 28.6267C44.2613 29.1196 44.672 29.4482 45.0006 29.7768C46.3971 31.1733 47.7115 32.6109 49.2312 33.9252C49.2312 33.9663 49.1901 34.0074 49.1901 34.0485C48.8615 34.4181 48.5329 34.7878 48.1633 35.1574C46.89 36.5129 45.4524 37.704 44.3023 39.1827C43.9327 39.388 43.563 39.388 43.1523 39.388C40.6468 39.4291 38.1413 39.3059 35.6769 39.4291C35.1018 39.2648 34.4036 39.5113 33.7053 39.2237Z" fill="#66BFA3"/>
<path d="M44.3845 39.1416C45.5346 37.663 46.9722 36.4718 48.2454 35.1164C48.574 34.7467 48.9437 34.3771 49.2723 34.0074C51.0795 35.6504 52.8046 37.4165 54.4476 39.1827C54.2833 39.2238 54.1601 39.3059 53.9958 39.3059C50.9563 39.3059 47.9169 39.3059 44.8774 39.347C44.7131 39.3881 44.5488 39.2649 44.3845 39.1416Z" fill="#277781"/>
<path d="M54.4476 39.2238C52.7636 37.4166 51.0385 35.6915 49.2723 34.0485C49.2723 34.0075 49.2723 33.9664 49.3134 33.9253C50.0938 33.5557 50.5867 32.8163 51.1617 32.2413C52.3118 31.1323 53.4619 29.9822 54.5709 28.8732C54.5709 32.2002 54.6119 35.5272 54.6119 38.8131C54.653 38.9774 54.653 39.1417 54.4476 39.2238Z" fill="#F9DFB6"/>
<path d="M12.3881 97.4664C13.9489 97.6306 15.3043 98.1235 16.3311 99.3557C17.6455 100.958 17.9741 102.765 17.2348 104.695C16.4954 106.585 15.0168 107.653 13.0452 107.981C12.7988 108.022 12.5934 108.063 12.347 108.063C9.92364 107.899 8.15747 106.79 7.33599 104.449C6.59666 102.313 7.13062 100.383 8.77357 98.8218C9.80042 97.9182 11.0326 97.5074 12.3881 97.4664Z" fill="#CF514A"/>
<path d="M11.9363 116.032C11.9363 115.908 11.8953 115.785 11.8953 115.662C12.0596 115.785 12.1006 115.908 11.9363 116.032Z" fill="#CF514A"/>
<path d="M12.7167 115.498C12.7577 115.457 12.8399 115.375 12.881 115.333C12.881 115.457 12.881 115.539 12.7167 115.498Z" fill="#CF514A"/>
<path d="M34.3215 18.153C34.1572 18.194 33.9929 18.2351 33.8697 18.2762C33.8286 18.2351 33.8286 18.194 33.8697 18.153C33.9929 18.194 34.1572 18.153 34.3215 18.153Z" fill="#277781"/>
<path d="M35.8823 18.153C35.5126 18.1941 35.143 18.3584 34.7733 18.0708C35.1841 17.8244 35.5126 18.0708 35.8823 18.153Z" fill="#277781"/>
<path d="M39.3735 18.153C39.086 18.2351 38.8395 18.2762 38.552 18.153C38.8395 18.153 39.127 18.153 39.3735 18.153Z" fill="#277781"/>
<path d="M41.3862 18.1941C41.304 18.1941 41.2219 18.1941 41.1808 18.1941C41.2219 18.153 41.304 18.1941 41.3862 18.1941Z" fill="#277781"/>
<path d="M-8.88806 49.903C-13.2419 49.6976 -16.5278 47.685 -18.3761 43.7419C-21.5388 37.0058 -16.8564 29.284 -9.42202 28.7911C-9.21665 28.7911 -9.01128 28.75 -8.80591 28.75C-4.08243 28.9554 -0.673313 31.2144 1.05178 35.5682C3.8448 42.5508 -1.49479 49.9851 -8.88806 49.903ZM-8.76484 44.6045C-6.629 44.5634 -5.02713 43.5776 -4.08243 41.6882C-3.21988 39.9631 -3.30203 38.197 -4.36995 36.554C-5.39679 34.9932 -6.83437 34.0485 -8.80591 34.1717C-9.05235 34.0074 -9.2988 34.0485 -9.58631 34.0896C-10.9417 34.336 -12.1329 34.9521 -12.9954 36.0611C-14.3098 37.7041 -14.5562 40.0042 -13.5705 41.8114C-12.5025 43.6187 -10.9417 44.6455 -8.76484 44.6045Z" fill="#CF514A"/>
<path d="M42.947 57.173C42.9059 57.3373 42.8648 57.5016 42.6595 57.4606C42.5363 57.4606 42.5363 57.3373 42.5363 57.2141C42.5363 57.0909 42.5363 56.9266 42.7005 56.9266C42.8648 56.9266 42.947 57.0498 42.947 57.173Z" fill="#66BFA3"/>
<path d="M86.362 86.9104C88.7032 87.0336 90.3872 88.1015 91.2497 90.2785C92.5641 93.6054 90.3051 97.1788 86.7316 97.4664C86.6084 97.4664 86.4852 97.5074 86.3209 97.5074C83.4047 97.1378 81.6385 95.6591 81.1456 93.2358C80.5706 90.1142 82.7064 87.2801 85.8691 86.9926C86.0334 86.9515 86.1977 86.9104 86.362 86.9104ZM86.4852 89.6623C85.6226 89.3748 85.0065 89.8266 84.4726 90.3606C83.6922 91.0999 83.4868 92.4143 83.9797 93.4001C84.4315 94.3448 85.4994 94.9198 86.4852 94.7144C87.8817 94.7144 89.0318 93.5644 88.9907 92.1268C88.9496 90.7303 87.8817 89.6213 86.4852 89.6623Z" fill="#CF514A"/>
<path d="M9.38965 60.4589C8.69139 61.034 8.65032 61.5679 9.22535 62.2251C9.71824 62.9234 10.5808 62.9234 11.0326 62.2251C11.238 61.8965 11.279 61.5269 11.279 61.1572C11.279 60.2536 11.279 59.3499 11.279 58.4463C11.279 58.1999 11.238 57.7891 11.5255 57.7891C11.8951 57.7891 11.7719 58.1999 11.7719 58.4052C11.7719 59.391 11.7719 60.4179 11.7719 61.4036C11.7719 62.2251 11.5255 62.8823 10.704 63.1698C10.0468 63.4162 9.38965 63.3752 8.85569 62.8823C8.23958 62.2662 8.07529 61.5268 8.32173 60.7054C8.5271 60.0482 8.93784 59.5964 9.63609 59.4732C9.84146 59.4321 10.0879 59.4321 10.17 59.7196C10.2111 59.9661 10.0058 60.0071 9.84146 60.0893C9.67716 60.1714 9.4718 60.2536 9.38965 60.4589Z" fill="#38525F"/>
<path d="M37.6484 60.5C37.7717 60.5 37.936 60.5 38.0592 60.5C38.2645 61.075 37.8127 61.7322 38.3878 62.2251C38.4699 62.6358 38.7574 62.718 39.086 62.6769C39.4557 62.6358 39.7021 62.3894 39.8253 62.0608C39.9075 61.8554 39.8664 61.4036 40.2771 61.5679C40.5647 61.6911 40.4414 62.0197 40.3593 62.2662C40.1539 62.9644 39.5789 63.3751 38.7985 63.3341C38.1002 63.293 37.6074 62.8001 37.5663 62.0608C37.5663 61.5679 37.6074 61.034 37.6484 60.5Z" fill="#38525F"/>
<path d="M42.1254 60.5411C42.2897 60.5411 42.4951 60.5411 42.6594 60.5411C42.6594 61.3215 42.7004 62.0608 42.7004 62.8412C42.7004 63.0466 42.6594 63.293 42.4129 63.293C42.1254 63.293 42.1254 63.0466 42.1254 62.8412C42.0843 62.0608 42.0843 61.2804 42.1254 60.5411Z" fill="#38525F"/>
<path d="M86.4852 89.6623C87.8817 89.6623 88.9907 90.7303 88.9907 92.1678C89.0318 93.6054 87.8817 94.7555 86.4852 94.7555C86.1566 93.8519 86.362 92.9482 86.362 92.0035C86.3209 91.2231 86.1566 90.4017 86.4852 89.6623Z" fill="#F7BB4B"/>
<path d="M86.4851 89.6623C86.1565 90.4427 86.3208 91.2231 86.3619 92.0035C86.3619 92.9072 86.1565 93.8519 86.4851 94.7555C85.4994 94.9198 84.4314 94.3858 83.9796 93.4411C83.4868 92.4554 83.6511 91.0999 84.4725 90.4017C85.0065 89.8266 85.6226 89.3748 86.4851 89.6623Z" fill="#F9DFB6"/>
</g>
</g>
<defs>
<clipPath id="clip0">
<rect width="89" height="122" rx="5" fill="white"/>
</clipPath>
<clipPath id="clip1">
<rect width="124" height="123" fill="white" transform="translate(-29 -1)"/>
</clipPath>
</defs>
</svg>
